<?xml version="1.0" encoding="UTF-8"?>
<svg width="24px" height="24px" viewBox="0 0 24 24" version="1.1" xmlns="http://www.w3.org/2000/svg" xmlns:xlink="http://www.w3.org/1999/xlink">
    <!-- Generator: Sketch 51.3 (57544) - http://www.bohemiancoding.com/sketch -->
    <title>Icon / Line / Approvals</title>
    <desc>Created with Sketch.</desc>
    <defs>
        <path d="M19.1213501,6.36685083 L16.4511117,6.36685083 L16.4511117,7.99779006 L7.54888829,7.99779006 L7.54888829,6.36685083 L4.87864988,6.36685083 L4.87864988,21.0939227 L19.1213501,21.0939227 L19.1213501,6.36685083 Z M15.5724618,5.46077348 L20,5.46077348 L20,22 L4,22 L4,5.46077348 L8.42753817,5.46077348 L8.42753817,7.09171271 L15.5724618,7.09171271 L15.5724618,5.46077348 Z M6.67871822,10.6851781 L6.05741893,11.3258716 L7.29386552,12.6009144 L9.49468393,10.3313964 L8.87338464,9.69070301 L7.29386552,11.3195276 L6.67871822,10.6851781 Z M10.5341548,11.8184688 L17.6319314,11.8184688 L17.6319314,10.9123915 L10.5341548,10.9123915 L10.5341548,11.8184688 Z M6.68499202,14.1923336 L6.05114514,14.819821 L7.28746105,16.1478503 L9.49468393,13.8717279 L8.87338464,13.2310345 L7.30027,14.8532547 L6.68499202,14.1923336 Z M10.5341548,15.3985793 L17.6319314,15.3985793 L17.6319314,14.492502 L10.5341548,14.492502 L10.5341548,15.3985793 Z M6.68499202,17.7326651 L6.05114514,18.3601525 L7.28746105,19.6881818 L9.49468393,17.4120594 L8.87338464,16.771366 L7.30027,18.3935861 L6.68499202,17.7326651 Z M10.5341548,18.2020521 L17.6319314,18.2020521 L17.6319314,17.2959747 L10.5341548,17.2959747 L10.5341548,18.2020521 Z M15.5724618,4.77569061 L13.3736941,4.77569061 L13.3736941,4.32265193 C13.3736941,3.53860414 12.7603142,2.90607735 12,2.90607735 C11.2396858,2.90607735 10.6263059,3.53860414 10.6263059,4.32265193 L10.6263059,4.77569061 L8.42753817,4.77569061 L8.42753817,7.09171271 L15.5724618,7.09171271 L15.5724618,4.77569061 Z M14.2096757,3.86961326 L16.4511117,3.86961326 L16.4511117,7.99779006 L7.54888829,7.99779006 L7.54888829,3.86961326 L9.79032425,3.86961326 C9.99422021,2.80265109 10.9047935,2 12,2 C13.0952065,2 14.0057798,2.80265109 14.2096757,3.86961326 Z" id="path-1"></path>
    </defs>
    <g id="Icon-/-Line-/-Approvals" stroke="none" stroke-width="1" fill="none" fill-rule="evenodd">
        <mask id="mask-2" fill="white">
            <use xlink:href="#path-1"></use>
        </mask>
        <use id="Listing" fill="#0A1F44" fill-rule="nonzero" xlink:href="#path-1"></use>
        <g id="Color-/-Black-/-Black-800" mask="url(#mask-2)" fill="#182C4F">
            <polygon id="Black-/-Black-800" points="0 0 24 0 24 24 0 24"></polygon>
        </g>
    </g>
</svg>