<?xml version="1.0" encoding="UTF-8"?>
<svg width="24px" height="24px" viewBox="0 0 24 24" version="1.1" xmlns="http://www.w3.org/2000/svg" xmlns:xlink="http://www.w3.org/1999/xlink">
    <!-- Generator: Sketch 51.3 (57544) - http://www.bohemiancoding.com/sketch -->
    <title>Icon / Line / Calender</title>
    <desc>Created with Sketch.</desc>
    <defs>
        <path d="M8.0625,14.2479911 L6.9375,14.2479911 C6.62651786,14.2479911 6.375,14.4995089 6.375,14.8104911 L6.375,15.9354911 C6.375,16.2456696 6.62651786,16.4979911 6.9375,16.4979911 L8.0625,16.4979911 C8.37348214,16.4979911 8.625,16.2456696 8.625,15.9354911 L8.625,14.8104911 C8.625,14.4995089 8.37348214,14.2479911 8.0625,14.2479911 L8.0625,14.2479911 Z M8.0625,9.74799107 L6.9375,9.74799107 C6.62651786,9.74799107 6.375,9.99950893 6.375,10.3104911 L6.375,11.4354911 C6.375,11.7456696 6.62651786,11.9979911 6.9375,11.9979911 L8.0625,11.9979911 C8.37348214,11.9979911 8.625,11.7456696 8.625,11.4354911 L8.625,10.3104911 C8.625,9.99950893 8.37348214,9.74799107 8.0625,9.74799107 L8.0625,9.74799107 Z M12.5625,9.74799107 L11.4375,9.74799107 C11.1273214,9.74799107 10.875,9.99950893 10.875,10.3104911 L10.875,11.4354911 C10.875,11.7456696 11.1273214,11.9979911 11.4375,11.9979911 L12.5625,11.9979911 C12.8734821,11.9979911 13.125,11.7456696 13.125,11.4354911 L13.125,10.3104911 C13.125,9.99950893 12.8734821,9.74799107 12.5625,9.74799107 L12.5625,9.74799107 Z M12.5625,14.2479911 L11.4375,14.2479911 C11.1273214,14.2479911 10.875,14.4995089 10.875,14.8104911 L10.875,15.9354911 C10.875,16.2456696 11.1273214,16.4979911 11.4375,16.4979911 L12.5625,16.4979911 C12.8734821,16.4979911 13.125,16.2456696 13.125,15.9354911 L13.125,14.8104911 C13.125,14.4995089 12.8734821,14.2479911 12.5625,14.2479911 L12.5625,14.2479911 Z M15.9375,16.4979911 L17.0625,16.4979911 C17.3734821,16.4979911 17.625,16.2456696 17.625,15.9354911 L17.625,14.8104911 C17.625,14.4995089 17.3734821,14.2479911 17.0625,14.2479911 L15.9375,14.2479911 C15.6273214,14.2479911 15.375,14.4995089 15.375,14.8104911 L15.375,15.9354911 C15.375,16.2456696 15.6273214,16.4979911 15.9375,16.4979911 L15.9375,16.4979911 Z M15.9375,11.9979911 L17.0625,11.9979911 C17.3734821,11.9979911 17.625,11.7456696 17.625,11.4354911 L17.625,10.3104911 C17.625,9.99950893 17.3734821,9.74799107 17.0625,9.74799107 L15.9375,9.74799107 C15.6273214,9.74799107 15.375,9.99950893 15.375,10.3104911 L15.375,11.4354911 C15.375,11.7456696 15.6273214,11.9979911 15.9375,11.9979911 L15.9375,11.9979911 Z M19.875,19.8729911 L4.125,19.8729911 L4.125,5.81049107 L8.62098214,5.81049107 L8.62098214,6.37700893 C8.62098214,6.68799107 8.8725,6.93950893 9.18348214,6.93950893 C9.49446429,6.93950893 9.74598214,6.68799107 9.74598214,6.37700893 L9.74598214,5.81049107 L14.2459821,5.81049107 L14.2459821,6.37700893 C14.2459821,6.68799107 14.4975,6.93950893 14.8084821,6.93950893 C15.1194643,6.93950893 15.3709821,6.68799107 15.3709821,6.37700893 L15.3709821,5.81049107 L19.875,5.81049107 L19.875,19.8729911 Z M19.875,4.68549107 L15.3709821,4.68549107 L15.3709821,3.56450893 C15.3709821,3.25352679 15.1194643,3.00200893 14.8084821,3.00200893 C14.4975,3.00200893 14.2459821,3.25352679 14.2459821,3.56450893 L14.2459821,4.68549107 L9.74598214,4.68549107 L9.74598214,3.56450893 C9.74598214,3.25352679 9.49446429,3.00200893 9.18348214,3.00200893 C8.8725,3.00200893 8.62098214,3.25352679 8.62098214,3.56450893 L8.62098214,4.68549107 L4.125,4.68549107 C3.50383929,4.68549107 3,5.18933036 3,5.81049107 L3,19.8729911 C3,20.4941518 3.50383929,20.9979911 4.125,20.9979911 L19.875,20.9979911 C20.4961607,20.9979911 21,20.4941518 21,19.8729911 L21,5.81049107 C21,5.18933036 20.4961607,4.68549107 19.875,4.68549107 L19.875,4.68549107 Z" id="path-1"></path>
    </defs>
    <g id="Icon-/-Line-/-Calender" stroke="none" stroke-width="1" fill="none" fill-rule="evenodd">
        <mask id="mask-2" fill="white">
            <use xlink:href="#path-1"></use>
        </mask>
        <use id="Calender" fill="#0A1F44" xlink:href="#path-1"></use>
        <g id="Color-/-Black-/-Black-800" mask="url(#mask-2)" fill="#182C4F">
            <polygon id="Black-/-Black-800" points="0 0 24 0 24 24 0 24"></polygon>
        </g>
    </g>
</svg>