<?xml version="1.0" encoding="UTF-8"?>
<svg width="24px" height="24px" viewBox="0 0 24 24" version="1.1" xmlns="http://www.w3.org/2000/svg" xmlns:xlink="http://www.w3.org/1999/xlink">
    <!-- Generator: Sketch 51.3 (57544) - http://www.bohemiancoding.com/sketch -->
    <title>Icon / Solid / Cancel with Circle</title>
    <desc>Created with Sketch.</desc>
    <defs>
        <path d="M12,22 C6.4771525,22 2,17.5228475 2,12 C2,6.4771525 6.4771525,2 12,2 C17.5228475,2 22,6.4771525 22,12 C22,17.5228475 17.5228475,22 12,22 Z M15.1699998,8.23999988 L12.1999998,11.2099998 L9.22999986,8.23999988 C8.95699986,7.96699988 8.51399987,7.96699988 8.24099988,8.23999988 C7.96699988,8.51299987 7.96699988,8.95699986 8.24099988,9.22999986 L11.2099998,12.1999998 L8.24099988,15.1699998 C7.96699988,15.4429998 7.96699988,15.8859997 8.24099988,16.1599997 C8.51399987,16.4329997 8.95699986,16.4329997 9.22999986,16.1599997 L12.1999998,13.1899998 L15.1699998,16.1599997 C15.4439998,16.4329997 15.8869997,16.4329997 16.1599997,16.1599997 C16.4329997,15.8859997 16.4329997,15.4429998 16.1599997,15.1699998 L13.1899998,12.1999998 L16.1599997,9.22999986 C16.4329997,8.95699986 16.4329997,8.51299987 16.1599997,8.23999988 C15.8869997,7.96699988 15.4439998,7.96699988 15.1699998,8.23999988 Z" id="path-1"></path>
    </defs>
    <g id="Icon-/-Solid-/-Cancel-with-Circle" stroke="none" stroke-width="1" fill="none" fill-rule="evenodd">
        <mask id="mask-2" fill="white">
            <use xlink:href="#path-1"></use>
        </mask>
        <use id="cancel-with-circle" fill="#0A1F44" xlink:href="#path-1"></use>
        <g id="Color-/-Black-/-Black-800" mask="url(#mask-2)" fill="#182C4F">
            <polygon id="Black-/-Black-800" points="0 0 24 0 24 24 0 24"></polygon>
        </g>
    </g>
</svg>