<?xml version="1.0" encoding="UTF-8"?>
<svg width="24px" height="24px" viewBox="0 0 24 24" version="1.1" xmlns="http://www.w3.org/2000/svg" xmlns:xlink="http://www.w3.org/1999/xlink">
    <!-- Generator: Sketch 51.3 (57544) - http://www.bohemiancoding.com/sketch -->
    <title>Icon / Line / Chat</title>
    <desc>Created with Sketch.</desc>
    <defs>
        <path d="M4.74193548,17.3211679 C3.60967742,15.7773723 3,13.9051095 3,12 C3,7.04014599 7.03548387,3 12,3 C16.9645161,3 21,7.04014599 21,12 C21,16.959854 16.9645161,21 12,21 C11.3032258,21 10.5774194,20.9014599 9.90967742,20.770073 C9.56129032,20.6715328 9.32903226,20.310219 9.41612903,19.8832117 C9.50322581,19.4890511 9.82258065,19.2262774 10.2,19.3248175 C10.7806452,19.4562044 11.4193548,19.5547445 12.0290323,19.5547445 C16.2677419,19.5547445 19.7225806,16.1715328 19.7225806,12 C19.7225806,7.82846715 16.2387097,4.44525547 12,4.44525547 C7.76129032,4.44525547 4.30645161,7.82846715 4.30645161,12 C4.30645161,13.7408759 4.88709677,15.350365 5.99032258,16.6970803 C6.16451613,16.8941606 6.19354839,17.189781 6.13548387,17.4525547 C5.96129032,18.0109489 5.7,18.5036496 5.38064516,18.8978102 C5.93225806,18.8649635 6.54193548,18.7007299 7.12258065,18.3065693 C7.44193548,18.1094891 7.81935484,18.2080292 8.02258065,18.5693431 C8.22580645,18.9306569 8.10967742,19.3576642 7.79032258,19.5875912 C6.42580645,20.5072993 4.94516129,20.4744526 4.19032258,20.3430657 C3.81290323,20.2773723 3.52258065,19.9817518 3.46451613,19.5875912 C3.37741935,19.1934307 3.52258065,18.7664234 3.84193548,18.5364964 C4.21935484,18.2080292 4.53870968,17.8138686 4.74193548,17.3211679 Z M10.4903226,12.7226277 L15.716129,12.7226277 C16.0645161,12.7226277 16.3548387,12.3941606 16.3548387,12 C16.3548387,11.6058394 16.0645161,11.2773723 15.716129,11.2773723 L10.4903226,11.2773723 C10.1419355,11.2773723 9.8516129,11.6058394 9.8516129,12 C9.8516129,12.3941606 10.1129032,12.7226277 10.4903226,12.7226277 Z M10.4903226,9.89781022 L15.716129,9.89781022 C16.0645161,9.89781022 16.3548387,9.56934307 16.3548387,9.17518248 C16.3548387,8.7810219 16.0645161,8.45255474 15.716129,8.45255474 L10.4903226,8.45255474 C10.1419355,8.45255474 9.8516129,8.7810219 9.8516129,9.17518248 C9.8516129,9.56934307 10.1129032,9.89781022 10.4903226,9.89781022 Z M10.4903226,15.580292 L15.716129,15.580292 C16.0645161,15.580292 16.3548387,15.2518248 16.3548387,14.8576642 C16.3548387,14.4635036 16.0645161,14.1350365 15.716129,14.1350365 L10.4903226,14.1350365 C10.1419355,14.1350365 9.8516129,14.4635036 9.8516129,14.8576642 C9.82258065,15.2518248 10.1129032,15.580292 10.4903226,15.580292 Z M8.28387097,8.28832117 C7.87741935,8.28832117 7.52903226,8.68248175 7.52903226,9.14233577 C7.52903226,9.60218978 7.87741935,9.99635036 8.28387097,9.99635036 C8.69032258,9.99635036 9.03870968,9.60218978 9.03870968,9.14233577 C9.03870968,8.68248175 8.71935484,8.28832117 8.28387097,8.28832117 Z M8.28387097,11.1459854 C7.87741935,11.1459854 7.52903226,11.540146 7.52903226,12 C7.52903226,12.459854 7.87741935,12.8540146 8.28387097,12.8540146 C8.69032258,12.8540146 9.03870968,12.459854 9.03870968,12 C9.03870968,11.540146 8.71935484,11.1459854 8.28387097,11.1459854 Z M8.28387097,14.0036496 C7.87741935,14.0036496 7.52903226,14.3978102 7.52903226,14.8576642 C7.52903226,15.3175182 7.87741935,15.7116788 8.28387097,15.7116788 C8.69032258,15.7116788 9.03870968,15.3175182 9.03870968,14.8576642 C9.03870968,14.3649635 8.71935484,14.0036496 8.28387097,14.0036496 Z" id="path-1"></path>
    </defs>
    <g id="Icon-/-Line-/-Chat" stroke="none" stroke-width="1" fill="none" fill-rule="evenodd">
        <mask id="mask-2" fill="white">
            <use xlink:href="#path-1"></use>
        </mask>
        <path stroke="#0A1F44" d="M5.14512039,17.0254621 L5.31130742,17.2520525 L5.20415916,17.5118227 C4.98191987,18.0506198 4.63367609,18.5102846 4.13408075,18.9422686 C3.98480872,19.0497405 3.90660624,19.2709337 3.95917767,19.5147217 C3.98549771,19.6933907 4.10929092,19.8214437 4.2760632,19.850472 C5.29817561,20.0283804 6.4941266,19.8582785 7.49817731,19.181819 C7.62220488,19.0925224 7.65849894,18.9419594 7.58678605,18.8144616 C7.52309458,18.7012249 7.46278614,18.6841668 7.40340519,18.7202571 C6.78991969,19.1367108 6.10952308,19.3552936 5.41036585,19.3969261 L4.27811225,19.4643481 L4.99215409,18.5830489 C5.27488143,18.2340955 5.50456914,17.7960362 5.64726099,17.3446732 C5.67934869,17.1994588 5.65911059,17.0773408 5.60353654,17.0139344 C4.42485282,15.5751071 3.80645161,13.8528893 3.80645161,12 C3.80645161,7.55337737 7.4839887,3.94525547 12,3.94525547 C16.5209803,3.94525547 20.2225806,7.55816921 20.2225806,12 C20.2225806,16.4466226 16.5450436,20.0547445 12.0290323,20.0547445 C11.4289418,20.0547445 10.776443,19.9678941 10.0736895,19.8086002 C10.0049287,19.7906475 9.93756427,19.8407891 9.90604175,19.9831393 C9.87326537,20.1438313 9.94030518,20.2591202 10.006208,20.2794796 C10.7311552,20.4221224 11.3988428,20.5 12,20.5 C16.6867249,20.5 20.5,16.6853611 20.5,12 C20.5,7.31463893 16.6867249,3.5 12,3.5 C7.31327512,3.5 3.5,7.31463893 3.5,12 C3.5,13.8024801 4.0779617,15.5704272 5.14512039,17.0254621 Z M10.4903226,12.2226277 L15.716129,12.2226277 C15.7736899,12.2226277 15.8548387,12.130817 15.8548387,12 C15.8548387,11.869183 15.7736899,11.7773723 15.716129,11.7773723 L10.4903226,11.7773723 C10.4327618,11.7773723 10.3516129,11.869183 10.3516129,12 C10.3516129,12.1454047 10.4177352,12.2226277 10.4903226,12.2226277 Z M10.4903226,9.39781022 L15.716129,9.39781022 C15.7736899,9.39781022 15.8548387,9.30599948 15.8548387,9.17518248 C15.8548387,9.04436548 15.7736899,8.95255474 15.716129,8.95255474 L10.4903226,8.95255474 C10.4327618,8.95255474 10.3516129,9.04436548 10.3516129,9.17518248 C10.3516129,9.32058715 10.4177352,9.39781022 10.4903226,9.39781022 Z M10.4903226,15.080292 L15.716129,15.080292 C15.7736899,15.080292 15.8548387,14.9884812 15.8548387,14.8576642 C15.8548387,14.7268472 15.7736899,14.6350365 15.716129,14.6350365 L10.4903226,14.6350365 C10.4327618,14.6350365 10.3516129,14.7268472 10.3502621,14.8943927 C10.3421692,15.0042673 10.4093652,15.080292 10.4903226,15.080292 Z M8.28387097,8.78832117 C8.16824562,8.78832117 8.02903226,8.94582534 8.02903226,9.14233577 C8.02903226,9.33884619 8.16824562,9.49635036 8.28387097,9.49635036 C8.39949631,9.49635036 8.53870968,9.33884619 8.53870968,9.14233577 C8.53870968,8.93181079 8.4152209,8.78832117 8.28387097,8.78832117 Z M8.28387097,11.6459854 C8.16824562,11.6459854 8.02903226,11.8034896 8.02903226,12 C8.02903226,12.1965104 8.16824562,12.3540146 8.28387097,12.3540146 C8.39949631,12.3540146 8.53870968,12.1965104 8.53870968,12 C8.53870968,11.789475 8.4152209,11.6459854 8.28387097,11.6459854 Z M8.28387097,14.5036496 C8.16824562,14.5036496 8.02903226,14.6611538 8.02903226,14.8576642 C8.02903226,15.0541747 8.16824562,15.2116788 8.28387097,15.2116788 C8.39949631,15.2116788 8.53870968,15.0541747 8.53870968,14.8576642 C8.53870968,14.6283071 8.42852857,14.5036496 8.28387097,14.5036496 Z"></path>
        <g id="Color-/-Black-/-Black-800" mask="url(#mask-2)" fill="#182C4F">
            <polygon id="Black-/-Black-800" points="0 0 24 0 24 24 0 24"></polygon>
        </g>
    </g>
</svg>