<?xml version="1.0" encoding="UTF-8"?>
<svg width="24px" height="24px" viewBox="0 0 24 24" version="1.1" xmlns="http://www.w3.org/2000/svg" xmlns:xlink="http://www.w3.org/1999/xlink">
    <!-- Generator: Sketch 51.3 (57544) - http://www.bohemiancoding.com/sketch -->
    <title>Icon / Solid / Checkbox_Selected</title>
    <desc>Created with Sketch.</desc>
    <defs>
        <path d="M5,2 L19,2 C20.6568542,2 22,3.34314575 22,5 L22,19 C22,20.6568542 20.6568542,22 19,22 L5,22 C3.34314575,22 2,20.6568542 2,19 L2,5 C2,3.34314575 3.34314575,2 5,2 Z M15.8141427,8.29289322 L10.5212495,13.5857864 L8.70710678,11.7716438 C8.31658249,11.3811195 7.68341751,11.3811195 7.29289322,11.7716438 C6.90236893,12.1621681 6.90236893,12.795333 7.29289322,13.1858573 L9.81414268,15.7071068 C10.204667,16.0976311 10.8378319,16.0976311 11.2283562,15.7071068 L17.2283562,9.70710678 C17.6188805,9.31658249 17.6188805,8.68341751 17.2283562,8.29289322 C16.8378319,7.90236893 16.204667,7.90236893 15.8141427,8.29289322 Z" id="path-1"></path>
    </defs>
    <g id="Icon-/-Solid-/-Checkbox_Selected" stroke="none" stroke-width="1" fill="none" fill-rule="evenodd">
        <mask id="mask-2" fill="white">
            <use xlink:href="#path-1"></use>
        </mask>
        <use id="Checkbox_Unselected" fill="#0A1F44" fill-rule="nonzero" xlink:href="#path-1"></use>
        <g id="Color-/-Black-/-Black-800" mask="url(#mask-2)" fill="#182C4F">
            <polygon id="Black-/-Black-800" points="0 0 24 0 24 24 0 24"></polygon>
        </g>
    </g>
</svg>