<?xml version="1.0" encoding="UTF-8"?>
<svg width="24px" height="24px" viewBox="0 0 24 24" version="1.1" xmlns="http://www.w3.org/2000/svg" xmlns:xlink="http://www.w3.org/1999/xlink">
    <!-- Generator: Sketch 51.3 (57544) - http://www.bohemiancoding.com/sketch -->
    <title>Icon / Solid / Comment</title>
    <desc>Created with Sketch.</desc>
    <defs>
        <path d="M5.8125,4 C4.25437219,4 3,5.2742824 3,6.85714184 L3,20 L7.5,16.0000014 L18.1875,16.0000014 C19.7456278,16.0000014 21,14.7257162 21,13.1428596 L21,6.85714184 C21,5.2742824 19.7456278,4 18.1875,4 L5.8125,4 Z M6.9375,6.57142765 L17.0625,6.57142765 C17.3731603,6.57142765 17.625,6.82725613 17.625,7.14285602 C17.625,7.45845591 17.3731603,7.71428439 17.0625,7.71428439 L6.9375,7.71428439 C6.62683969,7.71428439 6.375,7.45845591 6.375,7.14285602 C6.375,6.82725613 6.62683969,6.57142765 6.9375,6.57142765 Z M6.9375,9.42856949 L17.0625,9.42856949 C17.3731603,9.42856949 17.625,9.68439797 17.625,9.99999786 C17.625,10.3155977 17.3731603,10.5714262 17.0625,10.5714262 L6.9375,10.5714262 C6.62683969,10.5714262 6.375,10.3155977 6.375,9.99999786 C6.375,9.68439797 6.62683969,9.42856949 6.9375,9.42856949 Z M6.9375,12.285717 L14.8125,12.285717 C15.1231603,12.285717 15.375,12.5415455 15.375,12.8571454 C15.375,13.1727453 15.1231603,13.4285738 14.8125,13.4285738 L6.9375,13.4285738 C6.62683969,13.4285738 6.375,13.1727453 6.375,12.8571454 C6.375,12.5415455 6.62683969,12.285717 6.9375,12.285717 Z" id="path-1"></path>
    </defs>
    <g id="Icon-/-Solid-/-Comment" stroke="none" stroke-width="1" fill="none" fill-rule="evenodd">
        <mask id="mask-2" fill="white">
            <use xlink:href="#path-1"></use>
        </mask>
        <use id="Comment" fill="#0A1F44" fill-rule="nonzero" xlink:href="#path-1"></use>
        <g id="Color-/-Black-/-Black-800" mask="url(#mask-2)" fill="#182C4F">
            <polygon id="Black-/-Black-800" points="0 0 24 0 24 24 0 24"></polygon>
        </g>
    </g>
</svg>