<?xml version="1.0" encoding="UTF-8"?>
<svg width="24px" height="24px" viewBox="0 0 24 24" version="1.1" xmlns="http://www.w3.org/2000/svg" xmlns:xlink="http://www.w3.org/1999/xlink">
    <!-- Generator: Sketch 51.3 (57544) - http://www.bohemiancoding.com/sketch -->
    <title>Icon / Line / Contract</title>
    <desc>Created with Sketch.</desc>
    <defs>
        <path d="M17.1957829,7.8519265 C17.1957829,7.8519265 18.8275994,7.8519265 19.9160687,7.8519265 C20.1689047,7.8519265 20.4113739,7.9461995 20.59015,8.11399787 C20.7689262,8.28179624 20.8693667,8.50937656 20.8693667,8.74668706 C20.8693667,8.74680064 20.8693667,8.74695209 20.8693667,8.74706567 C20.8693667,8.98437617 20.7689262,9.2119565 20.59015,9.37975486 C20.4113739,9.54755323 20.1689047,9.64182623 19.9160687,9.64182623 C18.4825518,9.64182623 15.8347526,9.64182623 14.8487408,9.64182623 C14.6034076,9.64182623 14.3681185,9.55035492 14.1946266,9.38751629 C14.0211347,9.22467767 13.9236791,9.00383655 13.9236791,8.77353026 C13.9236791,7.84806472 13.9236791,5.36289215 13.9236791,4.01740065 C13.9236791,3.78009014 14.0241196,3.55250982 14.2028958,3.38471145 C14.3816719,3.21691309 14.6241411,3.12264009 14.8769771,3.12264009 C14.8770981,3.12264009 14.8772191,3.12264009 14.8773805,3.12264009 C15.1302164,3.12264009 15.3726856,3.21691309 15.5514618,3.38471145 C15.7302379,3.55250982 15.8306785,3.78009014 15.8306785,4.01740065 C15.8306785,5.03903222 15.8306785,6.57064664 15.8306785,6.57064664 C15.8306785,6.57064664 18.1617873,4.38268012 19.3522703,3.26529899 C19.729104,2.911567 20.3400973,2.911567 20.716931,3.26529899 C20.7170924,3.26541257 20.7172134,3.26556401 20.7173747,3.26571545 C21.0942084,3.61940957 21.0942084,4.19288472 20.7173747,4.54657884 C19.5268917,5.66395998 17.1957829,7.8519265 17.1957829,7.8519265 Z M17.1957829,16.1481019 C17.1957829,16.1481019 19.5268917,18.3360684 20.7173747,19.4534496 C21.0942084,19.8071437 21.0942084,20.3806188 20.7173747,20.7343129 C20.7172134,20.7344644 20.7170924,20.734578 20.716931,20.7347294 C20.3400973,21.0884235 19.729104,21.0884235 19.3522703,20.7347294 C18.1617873,19.6173483 15.8306785,17.4293818 15.8306785,17.4293818 C15.8306785,17.4293818 15.8306785,18.9609962 15.8306785,19.9826277 C15.8306785,20.2199383 15.7302379,20.4475186 15.5514618,20.6153169 C15.3726856,20.7831153 15.1302164,20.8773883 14.8773805,20.8773883 C14.8772191,20.8773883 14.8770981,20.8773883 14.8769771,20.8773883 C14.6241411,20.8773883 14.3816719,20.7831153 14.2028958,20.6153169 C14.0241196,20.4475186 13.9236791,20.2199383 13.9236791,19.9826277 C13.9236791,18.6371362 13.9236791,16.1519258 13.9236791,15.2264603 C13.9236791,14.9961919 14.0211347,14.7753507 14.1946266,14.6125121 C14.1946266,14.6125121 14.1946266,14.6125121 14.1946266,14.6124742 C14.3681185,14.4496735 14.6034076,14.3581643 14.8487408,14.3581643 C15.8347526,14.3581643 18.4825518,14.3581643 19.9160687,14.3581643 C20.1689047,14.3581643 20.4113739,14.4524373 20.59015,14.6202357 C20.7689262,14.7880719 20.8693667,15.0156522 20.8693667,15.2529627 C20.8693667,15.2530763 20.8693667,15.2531899 20.8693667,15.2533413 C20.8693667,15.4906518 20.7689262,15.7182322 20.59015,15.8860305 C20.4113739,16.0538289 20.1689047,16.1481019 19.9160687,16.1481019 C18.8275994,16.1481019 17.1957829,16.1481019 17.1957829,16.1481019 Z M6.80421707,7.8519265 C6.80421707,7.8519265 4.47310828,5.66395998 3.28262526,4.54657884 C2.90579158,4.19288472 2.90579158,3.61940957 3.28262526,3.26571545 C3.28278661,3.26556401 3.28294796,3.26541257 3.28310931,3.26529899 C3.65994299,2.911567 4.27089599,2.911567 4.64777,3.26529899 C5.83825302,4.38268012 8.16932148,6.57064664 8.16932148,6.57064664 C8.16932148,6.57064664 8.16932148,5.03903222 8.16932148,4.01740065 C8.16932148,3.78009014 8.26976205,3.55250982 8.44853821,3.38471145 C8.62735471,3.21691309 8.8698239,3.12264009 9.12265986,3.12264009 C9.12278087,3.12264009 9.12290189,3.12264009 9.12306324,3.12264009 C9.37589919,3.12264009 9.61836839,3.21691309 9.79714455,3.38471145 C9.97592071,3.55250982 10.0763613,3.78009014 10.0763613,4.01740065 C10.0763613,5.36289215 10.0763613,7.84806472 10.0763613,8.77353026 C10.0763613,9.00383655 9.97890569,9.22467767 9.80541375,9.38751629 C9.63192182,9.55035492 9.39663271,9.64182623 9.1512592,9.64182623 C8.16524738,9.64182623 5.51748858,9.64182623 4.08397164,9.64182623 C3.83113568,9.64182623 3.58866648,9.54755323 3.40984999,9.37975486 C3.23107383,9.2119565 3.13063326,8.98437617 3.13063326,8.74706567 C3.13063326,8.74695209 3.13063326,8.74680064 3.13063326,8.74668706 C3.13063326,8.50937656 3.23107383,8.28179624 3.40984999,8.11399787 C3.58866648,7.9461995 3.83113568,7.8519265 4.08397164,7.8519265 C5.17244092,7.8519265 6.80421707,7.8519265 6.80421707,7.8519265 Z M6.80421707,16.1481019 C6.80421707,16.1481019 5.17244092,16.1481019 4.08397164,16.1481019 C3.83113568,16.1481019 3.58866648,16.0538289 3.40984999,15.8860305 C3.23107383,15.7182322 3.13063326,15.4906518 3.13063326,15.2533413 C3.13063326,15.2531899 3.13063326,15.2530763 3.13063326,15.2529627 C3.13063326,15.0156522 3.23107383,14.7880719 3.40984999,14.6202357 C3.58866648,14.4524373 3.83113568,14.3581643 4.08397164,14.3581643 C5.51748858,14.3581643 8.16524738,14.3581643 9.1512592,14.3581643 C9.39663271,14.3581643 9.63192182,14.4496735 9.80541375,14.6124742 C9.80541375,14.6125121 9.80541375,14.6125121 9.80541375,14.6125121 C9.97890569,14.7753507 10.0763613,14.9961919 10.0763613,15.2264603 C10.0763613,16.1519258 10.0763613,18.6371362 10.0763613,19.9826277 C10.0763613,20.2199383 9.97592071,20.4475186 9.79714455,20.6153169 C9.61836839,20.7831153 9.37589919,20.8773883 9.12306324,20.8773883 C9.12290189,20.8773883 9.12278087,20.8773883 9.12265986,20.8773883 C8.8698239,20.8773883 8.62735471,20.7831153 8.44853821,20.6153169 C8.26976205,20.4475186 8.16932148,20.2199383 8.16932148,19.9826277 C8.16932148,18.9609962 8.16932148,17.4293818 8.16932148,17.4293818 C8.16932148,17.4293818 5.83825302,19.6173483 4.64777,20.7347294 C4.27089599,21.0884235 3.65994299,21.0884235 3.28310931,20.7347294 C3.28294796,20.734578 3.28278661,20.7344644 3.28262526,20.7343129 C2.90579158,20.3806188 2.90579158,19.8071437 3.28262526,19.4534496 C4.47310828,18.3360684 6.80421707,16.1481019 6.80421707,16.1481019 Z" id="path-1"></path>
    </defs>
    <g id="Icon-/-Line-/-Contract" stroke="none" stroke-width="1" fill="none" fill-rule="evenodd">
        <mask id="mask-2" fill="white">
            <use xlink:href="#path-1"></use>
        </mask>
        <use id="Contract" fill="#0A1F44" xlink:href="#path-1"></use>
        <g id="Color-/-Black-/-Black-800" mask="url(#mask-2)" fill="#182C4F">
            <polygon id="Black-/-Black-800" points="0 0 24 0 24 24 0 24"></polygon>
        </g>
    </g>
</svg>