<?xml version="1.0" encoding="UTF-8"?>
<svg width="24px" height="24px" viewBox="0 0 24 24" version="1.1" xmlns="http://www.w3.org/2000/svg" xmlns:xlink="http://www.w3.org/1999/xlink">
    <!-- Generator: Sketch 51.3 (57544) - http://www.bohemiancoding.com/sketch -->
    <title>Icon / Line / Dashboard</title>
    <desc>Created with Sketch.</desc>
    <defs>
        <path d="M12,21 C7.02943725,21 3,16.9705627 3,12 C3,7.02943725 7.02943725,3 12,3 C16.9705627,3 21,7.02943725 21,12 C21,16.9705627 16.9705627,21 12,21 Z M6,12.75 C6.41421356,12.75 6.75,12.4142136 6.75,12 C6.75,11.5857864 6.41421356,11.25 6,11.25 C5.58578644,11.25 5.25,11.5857864 5.25,12 C5.25,12.4142136 5.58578644,12.75 6,12.75 Z M7.5,9 C7.91421356,9 8.25,8.66421356 8.25,8.25 C8.25,7.83578644 7.91421356,7.5 7.5,7.5 C7.08578644,7.5 6.75,7.83578644 6.75,8.25 C6.75,8.66421356 7.08578644,9 7.5,9 Z M12,6.75 C12.4142136,6.75 12.75,6.41421356 12.75,6 C12.75,5.58578644 12.4142136,5.25 12,5.25 C11.5857864,5.25 11.25,5.58578644 11.25,6 C11.25,6.41421356 11.5857864,6.75 12,6.75 Z M16.5,9 C16.9142136,9 17.25,8.66421356 17.25,8.25 C17.25,7.83578644 16.9142136,7.5 16.5,7.5 C16.0857864,7.5 15.75,7.83578644 15.75,8.25 C15.75,8.66421356 16.0857864,9 16.5,9 Z M18,12.75 C18.4142136,12.75 18.75,12.4142136 18.75,12 C18.75,11.5857864 18.4142136,11.25 18,11.25 C17.5857864,11.25 17.25,11.5857864 17.25,12 C17.25,12.4142136 17.5857864,12.75 18,12.75 Z M12.9003346,12.889206 L12.0555332,8.06850412 L11.0663345,13.0605583 C11.0100688,13.6298037 11.473951,14.0958451 12.0441216,14.042651 C12.6142923,13.9894568 13.0208419,13.4418835 12.9003346,12.889206 Z" id="path-1"></path>
    </defs>
    <g id="Icon-/-Line-/-Dashboard" stroke="none" stroke-width="1" fill="none" fill-rule="evenodd">
        <mask id="mask-2" fill="white">
            <use xlink:href="#path-1"></use>
        </mask>
        <use id="Dashboard" fill="#0A1F44" xlink:href="#path-1"></use>
        <g id="Color-/-Black-/-Black-800" mask="url(#mask-2)" fill="#182C4F">
            <polygon id="Black-/-Black-800" points="0 0 24 0 24 24 0 24"></polygon>
        </g>
    </g>
</svg>