<?xml version="1.0" encoding="UTF-8"?>
<svg width="24px" height="24px" viewBox="0 0 24 24" version="1.1" xmlns="http://www.w3.org/2000/svg" xmlns:xlink="http://www.w3.org/1999/xlink">
    <!-- Generator: Sketch 51.3 (57544) - http://www.bohemiancoding.com/sketch -->
    <title>Icon / Line / Deal</title>
    <desc>Created with Sketch.</desc>
    <defs>
        <path d="M12,3 C7.03670577,3 3,7.03670045 3,12 L3,14.4545455 C3.00003387,14.7934334 3.27474839,15.0681479 3.61363636,15.0681818 L5.91477273,15.0681818 C5.98549861,15.3463113 6.12707475,15.6013259 6.32386364,15.803267 C6.35317926,15.8319762 6.38530021,15.857673 6.41974432,15.8799716 L9.85866477,18.2194602 L9.90340909,18.2514205 L9.90340909,18.2450284 C10.1501009,18.434192 10.4518083,18.5454545 10.7727273,18.5454545 C11.0224204,18.5454545 11.2574431,18.4815588 11.4630682,18.3664773 C11.7330488,18.4985519 12.0130185,18.5454545 12.2045455,18.5454545 C12.9129064,18.5454545 13.7999965,18.2446602 14.7677557,17.8742898 C15.730149,17.5059648 16.6724224,17.0685341 17.2798295,16.6534091 C17.2832168,16.6511591 17.2892489,16.649267 17.2926136,16.647017 L17.2926136,16.640625 C17.6301523,16.4162795 17.9318182,15.9900682 17.9318182,15.5667614 C17.9318182,15.3946773 17.868098,15.2261318 17.8039773,15.0681818 L19.1399148,15.0681818 C17.9504664,17.8334932 15.2066131,19.7727273 12,19.7727273 C10.0561528,19.7727273 8.27524343,19.0900728 6.91193182,17.9318182 L7.09090909,17.9318182 C7.3122084,17.9349479 7.51804993,17.8186788 7.62961292,17.6275326 C7.74117591,17.4363863 7.74117591,17.1999773 7.62961292,17.0088311 C7.51804993,16.8176848 7.3122084,16.7014157 7.09090909,16.7045455 L5.45454545,16.7045455 C5.4332531,16.7034351 5.41191735,16.7034351 5.390625,16.7045455 C5.07691789,16.737426 4.83922218,17.0027608 4.84090909,17.3181818 L4.84090909,18.9545455 C4.83777937,19.1758448 4.95404848,19.3816863 5.1451947,19.4932493 C5.33634093,19.6048123 5.57274998,19.6048123 5.76389621,19.4932493 C5.95504243,19.3816863 6.07131154,19.1758448 6.06818182,18.9545455 L6.06818182,18.8267045 C7.65912859,20.1970891 9.74547157,21 12,21 C16.0021509,21 19.360372,18.3545318 20.5269886,14.7357955 C20.5645891,14.6664346 20.5884623,14.5904741 20.5973011,14.5120739 C20.5973122,14.5099432 20.5973122,14.5078125 20.5973011,14.5056818 C20.8320361,13.7039455 21,12.8766614 21,12 L21,9.13636364 C20.9999661,8.79747567 20.7252516,8.52276116 20.3863636,8.52272727 L16.2634943,8.52272727 L12.8757102,6.94389205 C12.7820289,6.89966641 12.6786766,6.87987554 12.5752841,6.88636364 C12.4907773,6.890697 12.4080797,6.91245952 12.3323864,6.95028409 L9.24502841,8.52272727 C9.22586282,8.52182799 9.20666559,8.52182799 9.1875,8.52272727 L5.04545455,8.52272727 C6.31877025,5.97338543 8.9503768,4.22727273 12,4.22727273 C13.9435349,4.22727273 15.7241012,4.91165911 17.0880682,6.06818182 L16.9090909,6.06818182 C16.6877916,6.0650521 16.4819501,6.1813212 16.3703871,6.37246743 C16.2588241,6.56361366 16.2588241,6.80002271 16.3703871,6.99116893 C16.4819501,7.18231516 16.6877916,7.29858427 16.9090909,7.29545455 L18.5454545,7.29545455 C18.8843425,7.29542066 19.159057,7.02070615 19.1590909,6.68181818 L19.1590909,5.04545455 C19.1625435,4.8793948 19.0985388,4.71902711 18.9816953,4.60097902 C18.8648517,4.48293093 18.7051489,4.41728482 18.5390625,4.41903409 C18.3751932,4.42072197 18.2188057,4.4878801 18.1047414,4.60554638 C17.9906772,4.72321266 17.9284121,4.88161192 17.9318182,5.04545455 L17.9318182,5.1796875 C16.3407865,3.8089686 14.254529,3 12,3 Z M12.6200284,8.18394886 L15.8671875,9.69247159 C15.9472783,9.72983407 16.034494,9.74945759 16.1228693,9.75 L19.7727273,9.75 L19.7727273,12 C19.7727273,12.6387341 19.6744105,13.2473386 19.5298295,13.8409091 L16.8515625,13.8409091 L13.0674716,9.74360795 C12.9087449,9.57119292 12.6656828,9.50422683 12.4410511,9.57102273 C12.4410511,9.57102273 11.804286,9.75737386 11.162642,9.94815341 C10.8418201,10.0435432 10.520461,10.1367157 10.2741477,10.2102273 C10.1509911,10.246982 10.0493067,10.2770011 9.97372159,10.2997159 C9.89813652,10.3224307 9.92553968,10.3141977 9.8203125,10.3508523 C9.79973359,10.3580114 9.77509364,10.3636364 9.75,10.3636364 C9.51716693,10.3636364 9.46182368,10.3050607 9.41761364,10.2549716 C9.37340359,10.2048825 9.34090909,10.1125936 9.34090909,10.0120739 C9.34090909,9.99618068 9.43017539,9.82173818 9.44318182,9.80752841 C9.44350909,9.80711932 9.44295682,9.80127955 9.44318182,9.80113636 L12.6200284,8.18394886 Z M4.55965909,9.75 L8.17116477,9.75 C8.15663836,9.83913682 8.11363636,9.92042932 8.11363636,10.0120739 C8.11363636,10.3634236 8.2164223,10.7486973 8.49715909,11.0667614 C8.77789589,11.3848255 9.23716589,11.5909091 9.75,11.5909091 C9.91351486,11.5909091 10.0749916,11.5593682 10.2230114,11.5078125 C10.1321343,11.5394659 10.2511372,11.4981375 10.3252841,11.4758523 C10.399431,11.4535691 10.5029459,11.4230018 10.6257102,11.3863636 C10.8712386,11.3130873 11.1935877,11.2196182 11.5142045,11.1242898 C11.9716799,10.9882691 12.1993109,10.921892 12.421875,10.8558239 L16.5127841,15.2919034 L16.5255682,15.3046875 C16.6219668,15.416983 16.684851,15.4975943 16.6981534,15.522017 C16.7123182,15.5479943 16.7045455,15.5187545 16.7045455,15.5667614 C16.7045455,15.5732837 16.7089387,15.5772756 16.7109375,15.5795455 C16.6972168,15.5827208 16.671962,15.5875479 16.6150568,15.6242898 C16.6107708,15.6263708 16.6065091,15.6285016 16.6022727,15.6306818 C16.175899,15.9237545 15.234078,16.3828568 14.3267045,16.7301136 C13.4193311,17.0773705 12.449287,17.3181818 12.2045455,17.3181818 C12.1950081,17.3181818 12.1932709,17.3179767 12.1853693,17.3181818 C12.1951149,17.2514967 12.2045455,17.1827795 12.2045455,17.1136364 C12.2045455,16.8080455 12.109459,16.5147784 11.9360795,16.2762784 C11.9065357,16.2360315 11.8721909,16.1995403 11.8338068,16.1676136 L8.49076705,13.3551136 C8.47842175,13.3439444 8.46562707,13.3332822 8.45241477,13.3231534 C8.17878368,13.128733 7.8442232,13.0227273 7.5,13.0227273 C6.90002625,13.0227273 6.37220509,13.3529559 6.08735795,13.8409091 L4.22727273,13.8409091 L4.22727273,12 C4.22727273,11.2169554 4.34539016,10.4621254 4.55965909,9.75 Z M7.5,14.25 C7.5967772,14.25 7.67608541,14.2773784 7.73650568,14.3203125 L10.9517045,17.0241477 C10.9644211,17.0488977 10.9772727,17.0744864 10.9772727,17.1136364 C10.9772727,17.2338682 10.892963,17.3181818 10.7727273,17.3181818 C10.7152557,17.3181818 10.6684496,17.2981466 10.6384943,17.2734375 C10.6240645,17.2621209 10.6091348,17.2514568 10.59375,17.2414773 L7.19957386,14.9339489 C7.1361255,14.8641784 7.09090909,14.7720205 7.09090909,14.6590909 C7.09090909,14.4258886 7.26679691,14.25 7.5,14.25 Z" id="path-1"></path>
    </defs>
    <g id="Icon-/-Line-/-Deal" stroke="none" stroke-width="1" fill="none" fill-rule="evenodd">
        <mask id="mask-2" fill="white">
            <use xlink:href="#path-1"></use>
        </mask>
        <use id="Deal" fill="#0A1F44" fill-rule="nonzero" xlink:href="#path-1"></use>
        <g id="Color-/-Black-/-Black-800" mask="url(#mask-2)" fill="#182C4F">
            <polygon id="Black-/-Black-800" points="0 0 24 0 24 24 0 24"></polygon>
        </g>
    </g>
</svg>