<?xml version="1.0" encoding="UTF-8"?>
<svg width="24px" height="24px" viewBox="0 0 24 24" version="1.1" xmlns="http://www.w3.org/2000/svg" xmlns:xlink="http://www.w3.org/1999/xlink">
    <!-- Generator: Sketch 51.3 (57544) - http://www.bohemiancoding.com/sketch -->
    <title>Icon / Solid / Delete</title>
    <desc>Created with Sketch.</desc>
    <defs>
        <path d="M18.4648649,18.0339623 C18.4648649,19.6641509 17.1891892,20.9773585 15.6540541,21 L8.34594595,21 C6.78918919,21 5.53513514,19.6867925 5.53513514,18.0566038 L5.53513514,7.03018868 L4,7.03018868 L4,5.67169811 L8.06486486,5.67169811 L8.06486486,5.03773585 C8.06486486,3.90566038 8.92972973,3 10.0108108,3 L13.9891892,3 C15.0702703,3 15.9351351,3.90566038 15.9351351,5.03773585 L15.9351351,5.67169811 L20,5.67169811 L20,7.03018868 L18.4648649,7.03018868 L18.4648649,18.0339623 Z M11.3513514,9.18113208 L11.3513514,17.309434 L12.6486486,17.309434 L12.6486486,9.18113208 L11.3513514,9.18113208 Z M13.7297297,9.18113208 L13.7297297,17.309434 L15.027027,17.309434 L15.027027,9.18113208 L13.7297297,9.18113208 Z M8.97297297,9.18113208 L8.97297297,17.309434 L10.2702703,17.309434 L10.2702703,9.18113208 L8.97297297,9.18113208 Z M9.36216216,5.03773585 L9.36216216,5.67169811 L14.6162162,5.67169811 L14.6162162,5.03773585 C14.6162162,4.65283019 14.3351351,4.35849057 13.9675676,4.35849057 L10.0108108,4.35849057 C9.64324324,4.35849057 9.36216216,4.65283019 9.36216216,5.03773585 Z" id="path-1"></path>
    </defs>
    <g id="Icon-/-Solid-/-Delete" stroke="none" stroke-width="1" fill="none" fill-rule="evenodd">
        <mask id="mask-2" fill="white">
            <use xlink:href="#path-1"></use>
        </mask>
        <use id="Delete" fill="#0A1F44" fill-rule="nonzero" xlink:href="#path-1"></use>
        <g id="Color-/-Black-/-Black-800" mask="url(#mask-2)" fill="#182C4F">
            <polygon id="Black-/-Black-800" points="0 0 24 0 24 24 0 24"></polygon>
        </g>
    </g>
</svg>