<?xml version="1.0" encoding="UTF-8"?>
<svg width="24px" height="24px" viewBox="0 0 24 24" version="1.1" xmlns="http://www.w3.org/2000/svg" xmlns:xlink="http://www.w3.org/1999/xlink">
    <!-- Generator: Sketch 51.3 (57544) - http://www.bohemiancoding.com/sketch -->
    <title>Icon / Line / Dislike</title>
    <desc>Created with Sketch.</desc>
    <defs>
        <path d="M20.9916352,12.8361297 C21.0375617,13.403088 20.8937344,13.9027277 20.5758403,14.2811117 C20.1821581,14.7494596 19.5681046,14.9631498 19.1644056,14.9631498 L17.6042296,14.9633556 C16.4335779,14.9633556 15.2627372,14.9633556 14.0922745,14.964385 C14.3169928,15.7975296 14.4929496,17.3114771 14.1467058,19.2637159 C13.9599761,20.3183736 13.3604755,21 12.6194155,21 C11.9403468,20.9870304 11.3552099,20.4355121 11.2915177,19.7695317 C11.2387874,19.2141019 11.1119699,18.4079259 10.9902554,17.852702 C10.6421217,16.2656716 8.86648834,14.1917653 7.60228279,13.2659804 C7.50589396,13.6624807 7.17382502,13.9556356 6.77995383,13.9556356 L3.85048961,13.9556356 C3.38158634,13.9556356 3,13.5399897 3,13.0292331 L3,4.03962944 C3,3.52887288 3.38158634,3.11322697 3.85048961,3.11322697 L6.77995383,3.11322697 C7.11277876,3.11322697 7.40156724,3.32279979 7.54104753,3.6266598 C8.31896203,3.20545548 9.19610032,3 10.2089389,3 C10.2624253,3 10.3162896,3.0006176 10.370343,3.0018528 C10.9121994,3.0131755 11.8346971,3.01852805 13.1903775,3.01852805 C14.0968105,3.01852805 15.0434999,3.01605764 15.8354002,3.01420484 C16.6590522,3.0119403 17.3154411,3.01029336 17.5857078,3.01214617 C18.4023669,3.01791045 19.043636,3.49490479 19.3447094,4.32022645 C19.5862484,4.98167782 19.4027316,5.50952136 19.124527,5.87040659 C19.5080034,6.01327844 19.943076,6.32804941 20.1046691,7.01832218 C20.2579462,7.67400926 20.0479698,8.16829645 19.7616383,8.49974267 C20.1647703,8.6514668 20.4987293,8.94276891 20.6467145,9.54204838 C20.8132214,10.2193515 20.5885032,10.8447761 20.0383309,11.3009779 C20.4533698,11.528667 20.9215171,11.9739578 20.9916352,12.8361297 Z M20.4269101,12.8909295 C20.3390262,11.8109501 19.3263766,11.6888709 19.3159817,11.6878415 C19.1870853,11.6742543 19.0833256,11.5669975 19.0634808,11.4274195 C19.043825,11.2880474 19.1133762,11.1517633 19.2324447,11.0965909 C19.6378448,10.9080165 20.2893198,10.4765188 20.0989991,9.70266397 C19.9818206,9.22731657 19.7227047,9.04862383 19.0326742,8.96668868 C18.9030218,8.95124864 18.800018,8.84172728 18.7826302,8.7009141 C18.7650534,8.56010093 18.8380065,8.4246403 18.9593431,8.37255589 C18.9918507,8.35855692 19.7535114,8.01928775 19.5552528,7.17111482 C19.3819419,6.42978698 18.6968253,6.37090896 18.471918,6.37090896 C18.471351,6.37090896 18.470973,6.37090896 18.470595,6.37090896 C18.3362177,6.37914364 18.2154482,6.28156258 18.1819956,6.1395142 C18.148543,5.99767169 18.2112902,5.8494473 18.3322487,5.78501086 C18.3643783,5.76792388 19.1137542,5.35845399 18.8181618,4.54857236 C18.5286173,3.75495425 17.9194778,3.63225739 17.5823059,3.62978698 C17.3126062,3.62793417 16.6579182,3.62937524 15.8371012,3.63184565 C15.0448229,3.63390432 14.0975664,3.63616886 13.1907555,3.63616886 C11.8316731,3.63616886 10.9055844,3.63061045 10.3599481,3.61928775 C9.30458499,3.59931863 8.40665696,3.81383227 7.63082144,4.2770335 L7.63082144,12.5568071 C8.97535101,13.4200083 11.1227428,15.7975688 11.5419397,17.7096635 C11.6685681,18.2875327 11.8004885,19.1272651 11.8556758,19.7059578 C11.8895064,20.059226 12.2400971,20.3752322 12.6196045,20.3824375 C13.0762229,20.3824375 13.4574313,19.8974144 13.5902966,19.1466166 C13.9830338,16.9323089 13.6751566,15.3631889 13.4313496,14.7849079 C13.3910931,14.6893855 13.398086,14.5780114 13.4504384,14.4894885 C13.5024127,14.4007597 13.5921866,14.3474401 13.6889534,14.3472342 C14.9937935,14.3457932 16.2993896,14.3457932 17.6046076,14.3457932 L19.1647836,14.3455873 C19.3923368,14.3455873 19.86313,14.2148616 20.1579664,13.8642697 C20.3683209,13.6139352 20.4590397,13.2861946 20.4269101,12.8909295 Z" id="path-1"></path>
    </defs>
    <g id="Icon-/-Line-/-Dislike" stroke="none" stroke-width="1" fill="none" fill-rule="evenodd">
        <mask id="mask-2" fill="white">
            <use xlink:href="#path-1"></use>
        </mask>
        <path stroke="#0A1F44" d="M20.4932741,12.8765797 C20.4470368,12.3083029 20.1950669,11.9572607 19.7978438,11.7393453 L19.1529813,11.3855756 L19.719179,10.9160856 C20.1287298,10.5764869 20.2798231,10.1440548 20.1612956,9.66191701 C20.0659664,9.27587316 19.888502,9.08172951 19.5855173,8.96769717 L18.9147358,8.7152396 L19.3832734,8.17287879 C19.6215614,7.89704577 19.7169442,7.55627546 19.6178312,7.13229104 C19.5173992,6.70327814 19.2860371,6.4641553 18.9499638,6.3389444 L18.3145178,6.10219616 L18.7285337,5.56513735 C18.9602958,5.26449705 19.0286837,4.91247321 18.8749877,4.49157862 C18.6437718,3.85775459 18.1847575,3.51638694 17.5822802,3.51213442 C17.3523655,3.51055824 16.9206458,3.51122297 15.8365701,3.51420347 C15.5959246,3.51477161 15.5959246,3.51477161 15.3444137,3.51536456 C14.6794942,3.51691785 14.2222339,3.5177861 13.7555434,3.51823925 C13.4721278,3.51847538 13.4721278,3.51847538 13.1903775,3.51852805 C11.8248374,3.51852805 10.9036582,3.51310617 10.3589202,3.50172231 C10.2836111,3.50028666 10.2836111,3.50028666 10.2089389,3.5 C9.27551967,3.5 8.48038887,3.68663891 7.77911655,4.06634508 L7.30944745,4.32064893 L7.08663478,3.83524804 C7.02255258,3.69564395 6.90287423,3.61322697 6.77995383,3.61322697 L3.85048961,3.61322697 C3.66772535,3.61322697 3.5,3.79592312 3.5,4.03962944 L3.5,13.0292331 C3.5,13.2729395 3.66772535,13.4556356 3.85048961,13.4556356 L6.77995383,13.4556356 C6.9285552,13.4556356 7.07112192,13.3342598 7.1164329,13.1478708 L7.29337029,12.42003 L7.89769496,12.8625803 C9.44578872,13.9962581 11.133835,16.1736993 11.4786577,17.7456359 C11.6048133,18.3211183 11.7346898,19.1472601 11.7892467,19.7219305 C11.8291465,20.1391323 12.2080195,20.4920515 12.6194155,20.5 C13.0805152,20.5 13.5056084,20.0167192 13.654389,19.1763999 C13.9405423,17.5629712 13.8828823,16.1080625 13.6095263,15.0945933 L13.4396994,14.4649587 L14.0918348,14.4643852 C14.7942555,14.4637674 15.5227931,14.4634827 16.4334871,14.4633938 C17.0188851,14.4633556 17.0188851,14.4633556 17.6041636,14.4633556 L19.1644056,14.4631498 C19.4892966,14.4631498 19.9355169,14.2658185 20.1930136,13.959485 C20.4227323,13.6860547 20.528937,13.3170377 20.4932741,12.8765797 Z M20.4932741,12.8765797 C20.493272,12.8765531 20.4932698,12.8765265 20.4932677,12.8764999 L20.4932806,12.8766596 C20.4932785,12.8766329 20.4932763,12.8766063 20.4932741,12.8765797 Z M13.9871968,14.8469287 C14.3091024,15.8312458 14.3982778,17.4541732 14.0826467,19.2337456 C13.9125735,20.1947978 13.3723615,20.8824375 12.6101132,20.8823474 C11.9828994,20.8704391 11.4166121,20.366157 11.3579341,19.7534252 C11.3046358,19.1945406 11.1758043,18.3746954 11.0535391,17.8167377 C10.7096959,16.2483561 8.84477054,13.9303495 7.36069494,12.9775584 L7.13082144,12.8299773 L7.13082144,3.99321725 L7.37451001,3.84772656 C8.232383,3.33554606 9.2215743,3.09765844 10.3703215,3.11939537 C10.9124617,3.13064552 11.8371975,3.13616886 13.1907555,3.13616886 C13.9529963,3.13616886 14.6989104,3.13480146 15.8355964,3.13184792 C16.8154723,3.12889879 17.3427988,3.12812979 17.5859692,3.1298004 C18.3137703,3.13513289 18.9698351,3.50547517 19.2878551,4.37714264 C19.5386655,5.0643279 19.3424537,5.58233216 18.9790092,5.93165982 C19.4776113,6.05996079 19.8889451,6.4020742 20.0421287,7.05730864 C20.2053217,7.75546698 19.9711075,8.25065536 19.594454,8.56582901 C20.1454352,8.72206398 20.447816,9.02865445 20.5845308,9.58325305 C20.7722037,10.3463416 20.4482364,10.9165241 19.8675833,11.3114954 C20.3959169,11.5216005 20.8560652,12.0000266 20.9252628,12.8503758 L20.9252664,12.85042 C20.9675396,13.3704732 20.8408346,13.8288288 20.5406364,14.1860828 C20.188598,14.604694 19.6123936,14.8455873 19.1648495,14.8455873 L17.6046076,14.8457932 C16.9519878,14.8457932 16.9519878,14.8457932 16.2993669,14.8458465 C15.4120125,14.8459554 14.6798784,14.8462735 13.9871968,14.8469287 Z"></path>
        <g id="Color-/-Black-/-Black-800" mask="url(#mask-2)" fill="#182C4F">
            <polygon id="Black-/-Black-800" points="0 0 24 0 24 24 0 24"></polygon>
        </g>
    </g>
</svg>