<?xml version="1.0" encoding="UTF-8"?>
<svg width="24px" height="24px" viewBox="0 0 24 24" version="1.1" xmlns="http://www.w3.org/2000/svg" xmlns:xlink="http://www.w3.org/1999/xlink">
    <!-- Generator: Sketch 51.3 (57544) - http://www.bohemiancoding.com/sketch -->
    <title>Icon / Line / Download</title>
    <desc>Created with Sketch.</desc>
    <defs>
        <path d="M20.193729,10.4876141 C20.6371781,10.4876141 21,10.863103 21,11.3220339 L21,17.642764 C21,18.9361147 19.9720045,20 18.7021277,20 L5.29787234,20 C4.02799552,20 3,18.9361147 3,17.642764 L3,11.3220339 C3,10.863103 3.36282195,10.4876141 3.806271,10.4876141 C4.24972004,10.4876141 4.61254199,10.863103 4.61254199,11.3220339 L4.61254199,17.642764 C4.61254199,18.0182529 4.93505039,18.3311604 5.29787234,18.3311604 L18.7021277,18.3311604 C19.0851064,18.3311604 19.387458,18.0391134 19.387458,17.642764 L19.387458,11.3220339 C19.387458,10.863103 19.75028,10.4876141 20.193729,10.4876141 Z M11.560755,16.9736235 L8.60186,14.0531541 C8.47179869,13.9408284 8.39051036,13.7536188 8.3742527,13.5476883 C8.35799503,13.3417578 8.42302569,13.1545482 8.53682934,13.0047805 C8.63437533,12.8550129 8.79695198,12.7614081 8.97578629,12.7426871 C9.1546206,12.7239662 9.31719725,12.79885 9.44725857,12.9298967 L11.3331477,14.7645505 L11.3331477,4.7488383 C11.3331477,4.33697723 11.6257856,4 11.9834543,4 C12.2923499,4 12.5849879,4.2620934 12.6825339,4.65523351 L12.6987915,4.69267543 L12.6987915,14.7832715 L14.568423,12.9298967 C14.8285456,12.6678033 15.2349872,12.7052452 15.4788522,13.0047805 C15.5926558,13.1545482 15.6414288,13.3417578 15.6251712,13.5476883 C15.5926558,13.7536188 15.5276252,13.9221074 15.3975639,14.0531541 L12.4224112,16.9923445 L12.3573806,17.0672283 L12.3248652,17.0672283 C12.3086076,17.0672283 12.3086076,17.0859493 12.2923499,17.0859493 C12.2760922,17.1046702 12.2435769,17.1233912 12.2273192,17.1233912 C12.1948039,17.1233912 12.1622886,17.1421121 12.1135156,17.1421121 L11.9021659,17.1421121 C11.853393,17.1421121 11.8208776,17.1421121 11.7883623,17.1233912 C11.7721046,17.1046702 11.7721046,17.1046702 11.755847,17.1046702 L11.707074,17.1046702 L11.6745586,17.0672283 L11.6420433,17.0672283 L11.560755,16.9736235 Z" id="path-1"></path>
    </defs>
    <g id="Icon-/-Line-/-Download" stroke="none" stroke-width="1" fill="none" fill-rule="evenodd">
        <mask id="mask-2" fill="white">
            <use xlink:href="#path-1"></use>
        </mask>
        <use id="Download" fill="#0A1F44" xlink:href="#path-1"></use>
        <g id="Color-/-Black-/-Black-800" mask="url(#mask-2)" fill="#182C4F">
            <polygon id="Black-/-Black-800" points="0 0 24 0 24 24 0 24"></polygon>
        </g>
    </g>
</svg>