<?xml version="1.0" encoding="UTF-8"?>
<svg width="24px" height="24px" viewBox="0 0 24 24" version="1.1" xmlns="http://www.w3.org/2000/svg" xmlns:xlink="http://www.w3.org/1999/xlink">
    <!-- Generator: Sketch 51.3 (57544) - http://www.bohemiancoding.com/sketch -->
    <title>Icon / Line / Edit</title>
    <desc>Created with Sketch.</desc>
    <defs>
        <path d="M20.4116174,5.0198759 L18.9769392,3.58519769 C18.1966756,2.8049341 16.9130161,2.8049341 16.1327526,3.58519769 L4.75600603,14.987114 C4.55464769,15.1884724 4.42879872,15.4653401 4.40362893,15.717038 L3.0192903,20.34828 C2.96895072,20.5244685 3.0192903,20.7258269 3.14513927,20.8516758 C3.24581844,20.952355 3.37166741,21.0026946 3.49751637,21.0026946 C3.54785596,21.0026946 3.59819554,21.0026946 3.64853513,20.9775248 L8.30494687,19.5931862 C8.5818146,19.5680164 8.83351253,19.4421674 9.03487088,19.2408091 L20.4367872,7.83889274 C21.191881,7.08379895 21.191881,5.82530929 20.4116174,5.0198759 Z M5.05804355,17.0762068 L6.94577804,18.9639413 L4.25261017,19.7693747 L5.05804355,17.0762068 Z M19.7068632,7.15930833 L18.5490527,8.31711881 L15.7048661,5.47293218 L16.8626766,4.31512169 C17.2653932,3.912405 17.8946381,3.912405 18.2973548,4.31512169 L19.732033,5.74979991 C20.0844101,6.1273468 20.0844101,6.78176143 19.7068632,7.15930833 Z" id="path-1"></path>
    </defs>
    <g id="Icon-/-Line-/-Edit" stroke="none" stroke-width="1" fill="none" fill-rule="evenodd">
        <mask id="mask-2" fill="white">
            <use xlink:href="#path-1"></use>
        </mask>
        <use id="Edit" fill="#0A1F44" fill-rule="nonzero" xlink:href="#path-1"></use>
        <g id="Color-/-Black-/-Black-800" mask="url(#mask-2)" fill="#182C4F">
            <polygon id="Black-/-Black-800" points="0 0 24 0 24 24 0 24"></polygon>
        </g>
    </g>
</svg>