<?xml version="1.0" encoding="UTF-8"?>
<svg width="24px" height="24px" viewBox="0 0 24 24" version="1.1" xmlns="http://www.w3.org/2000/svg" xmlns:xlink="http://www.w3.org/1999/xlink">
    <!-- Generator: Sketch 51.3 (57544) - http://www.bohemiancoding.com/sketch -->
    <title>Icon / Line / Excel Download</title>
    <desc>Created with Sketch.</desc>
    <defs>
        <path d="M13.342,5.922 L13.342,6.914 L14.922,6.914 L14.922,8.484 L13.342,8.484 L13.342,8.984 L14.922,8.984 L14.922,10.555 L13.342,10.555 L13.342,11.07 L14.922,11.07 L14.922,12.555 L13.342,12.555 L13.342,13.15 L14.922,13.15 L14.922,14.64 L13.342,14.64 L13.342,15.235 L14.3555938,15.235 C14.2566143,15.4228225 14.1721356,15.6290893 14.1021578,15.8538004 C14.0321799,16.0785115 13.9962047,16.3715781 13.9942322,16.733 L13.342,16.733 L13.342,17.8250693 L14.6381004,17.825 C14.4835335,17.1718331 14.4633993,16.6039573 14.5776978,16.1213727 C14.7491455,15.3974957 15.0069222,14.943771 15.4565887,14.4541516 C15.7832396,14.0984779 16.3770405,13.6456551 17.203064,13.447804 C17.7537463,13.3159032 18.352725,13.3338768 19,13.5017247 L19,6.103 C19,6.018 18.97,5.967 18.914,5.949 C18.857,5.931 18.786,5.922 18.702,5.922 L13.342,5.922 Z M18.007,12.554 L15.435,12.554 L15.435,11.075 L18.007,11.075 L18.007,12.555 L18.007,12.554 Z M18.007,10.554 L15.435,10.554 L15.435,8.985 L18.007,8.985 L18.007,10.555 L18.007,10.554 Z M18.007,8.474 L15.435,8.474 L15.435,6.915 L18.007,6.915 L18.007,8.485 L18.007,8.474 Z M3,5.675 L3,18.075 L12.44,19.708 L12.44,4 L3,5.68 L3,5.675 Z M8.595,15.055 C8.559,14.958 8.39,14.545 8.09,13.813 C7.79,13.083 7.61,12.657 7.557,12.536 L7.54,12.536 L6.528,14.946 L5.175,14.855 L6.78,11.855 L5.31,8.855 L6.69,8.782 L7.602,11.129 L7.62,11.129 L8.65,8.675 L10.075,8.585 L8.378,11.832 L10.128,15.144 L8.595,15.054 L8.595,15.055 Z M18.000053,20 C16.3433421,20 15,18.6565282 15,17 C15,15.3430479 16.3433421,14 18.000053,14 C19.6567639,14 21,15.3429419 21,17 C21,18.6565282 19.6567639,20 18.000053,20 Z M16.1147808,16.8121115 C15.958326,16.9696526 15.9622902,17.2214857 16.1237664,17.3747585 L17.7167249,18.8875676 C17.8748975,19.0374775 18.1253045,19.0374775 18.2829486,18.8875676 L19.8765679,17.3747585 C20.0377798,17.221615 20.0414797,16.9696526 19.8852892,16.8119821 C19.7285701,16.6541823 19.4712917,16.65069 19.310212,16.8034454 L18.4066325,17.6616438 L18.4066325,15.3982506 C18.4066325,15.1783656 18.2246745,15 18.0001671,15 C17.775924,15 17.5931731,15.1783656 17.5931731,15.3982506 L17.5931731,17.6616438 L16.6895937,16.8034454 C16.611102,16.7284258 16.5090892,16.6910453 16.4069443,16.6910453 C16.3003066,16.6910453 16.194726,16.7315301 16.1147808,16.8121115 Z" id="path-1"></path>
    </defs>
    <g id="Icon-/-Line-/-Excel-Download" stroke="none" stroke-width="1" fill="none" fill-rule="evenodd">
        <mask id="mask-2" fill="white">
            <use xlink:href="#path-1"></use>
        </mask>
        <use id="Excel-Download" fill="#0A1F44" xlink:href="#path-1"></use>
        <g id="Color-/-Black-/-Black-800" mask="url(#mask-2)" fill="#182C4F">
            <polygon id="Black-/-Black-800" points="0 0 24 0 24 24 0 24"></polygon>
        </g>
    </g>
</svg>