<?xml version="1.0" encoding="UTF-8"?>
<svg width="24px" height="24px" viewBox="0 0 24 24" version="1.1" xmlns="http://www.w3.org/2000/svg" xmlns:xlink="http://www.w3.org/1999/xlink">
    <!-- Generator: Sketch 51.3 (57544) - http://www.bohemiancoding.com/sketch -->
    <title>Icon / Line / Expand</title>
    <desc>Created with Sketch.</desc>
    <defs>
        <path d="M6.09202875,19.1765453 C6.09202875,19.1765453 7.63404077,19.1765453 8.66260784,19.1765453 C8.90152937,19.1765453 9.13065465,19.2725857 9.29959214,19.4435297 C9.46852963,19.6144738 9.56344262,19.8463205 9.56344262,20.0880798 C9.56344262,20.0881955 9.56344262,20.0883498 9.56344262,20.0884655 C9.56344262,20.3302248 9.46852963,20.5620716 9.29959214,20.7330156 C9.13065465,20.9039597 8.90152937,21 8.66260784,21 C7.30798226,21 4.80590061,21 3.87415241,21 C3.64232077,21 3.41998043,20.9068139 3.25603636,20.7409226 C3.25603636,20.7409226 3.25603636,20.7409226 3.25603636,20.7409226 C3.09209228,20.5750312 3,20.35005 3,20.1154262 C3,19.1726112 3,16.6408495 3,15.2701343 C3,15.028375 3.09491299,14.7965282 3.26385048,14.6255842 C3.43278797,14.4546401 3.66191325,14.3585998 3.90083478,14.3585998 C3.90094913,14.3585998 3.90106348,14.3585998 3.90121595,14.3585998 C4.14013748,14.3585998 4.36926276,14.4546401 4.53820025,14.6255842 C4.70713774,14.7965282 4.80205073,15.028375 4.80205073,15.2701343 C4.80205073,16.3109182 4.80205073,17.8712455 4.80205073,17.8712455 C4.80205073,17.8712455 7.00487059,15.6422616 8.12983724,14.5039331 C8.48593246,14.1435698 9.06330074,14.1435698 9.41939596,14.5039331 C9.41954843,14.5040488 9.41966279,14.5042031 9.41981526,14.5043574 C9.77591048,14.8646821 9.77591048,15.4489081 9.41981526,15.8092329 C8.29484861,16.9475614 6.09202875,19.1765453 6.09202875,19.1765453 Z M17.9079331,19.1765453 C17.9079331,19.1765453 15.7051133,16.9475614 14.5801466,15.8092329 C14.2240514,15.4489081 14.2240514,14.8646821 14.5801466,14.5043574 C14.5802991,14.5042031 14.5804516,14.5040488 14.580604,14.5039331 C14.9366993,14.1435698 15.5140294,14.1435698 15.8701628,14.5039331 C16.9951294,15.6422616 19.1979112,17.8712455 19.1979112,17.8712455 C19.1979112,17.8712455 19.1979112,16.3109182 19.1979112,15.2701343 C19.1979112,15.028375 19.2928241,14.7965282 19.4617616,14.6255842 C19.6307372,14.4546401 19.8598625,14.3585998 20.098784,14.3585998 C20.0988984,14.3585998 20.0990128,14.3585998 20.0991652,14.3585998 C20.3380867,14.3585998 20.567212,14.4546401 20.7361495,14.6255842 C20.905087,14.7965282 21,15.028375 21,15.2701343 C21,16.6408495 21,19.1726112 21,20.1154262 C21,20.35005 20.9079077,20.5750312 20.7439636,20.7409226 C20.5800196,20.9068139 20.3576792,21 20.1258095,21 C19.1940613,21 16.6920177,21 15.3373922,21 C15.0984706,21 14.8693454,20.9039597 14.7003697,20.7330156 C14.5314323,20.5620716 14.4365193,20.3302248 14.4365193,20.0884655 C14.4365193,20.0883498 14.4365193,20.0881955 14.4365193,20.0880798 C14.4365193,19.8463205 14.5314323,19.6144738 14.7003697,19.4435297 C14.8693454,19.2725857 15.0984706,19.1765453 15.3373922,19.1765453 C16.3659592,19.1765453 17.9079331,19.1765453 17.9079331,19.1765453 Z M17.9079331,4.82349324 C17.9079331,4.82349324 16.3659592,4.82349324 15.3373922,4.82349324 C15.0984706,4.82349324 14.8693454,4.72745292 14.7003697,4.55650886 C14.5314323,4.38556481 14.4365193,4.15371808 14.4365193,3.91195876 C14.4365193,3.91180447 14.4365193,3.91168876 14.4365193,3.91157305 C14.4365193,3.66981373 14.5314323,3.437967 14.7003697,3.26698437 C14.8693454,3.09604032 15.0984706,3 15.3373922,3 C16.6920177,3 19.1940613,3 20.1258095,3 C20.3576792,3 20.5800196,3.09322468 20.7439636,3.25907744 C20.7439636,3.25911601 20.7439636,3.25911601 20.7439636,3.25911601 C20.9079077,3.42500734 21,3.64998854 21,3.88457376 C21,4.82738885 21,7.35918908 21,8.72990428 C21,8.97166361 20.905087,9.20351034 20.7361495,9.37445439 C20.567212,9.54539844 20.3380867,9.64143876 20.0991652,9.64143876 C20.0990128,9.64143876 20.0988984,9.64143876 20.098784,9.64143876 C19.8598625,9.64143876 19.6307372,9.54539844 19.4617616,9.37445439 C19.2928241,9.20351034 19.1979112,8.97166361 19.1979112,8.72990428 C19.1979112,7.68912036 19.1979112,6.12879302 19.1979112,6.12879302 C19.1979112,6.12879302 16.9951294,8.35777697 15.8701628,9.49610546 C15.5140294,9.85643022 14.9366993,9.85643022 14.580604,9.49610546 C14.5804516,9.49595118 14.5802991,9.49583547 14.5801466,9.49568119 C14.2240514,9.13535642 14.2240514,8.55113043 14.5801466,8.19080567 C15.7051133,7.05247718 17.9079331,4.82349324 17.9079331,4.82349324 Z M6.09202875,4.82349324 C6.09202875,4.82349324 8.29484861,7.05247718 9.41981526,8.19080567 C9.77591048,8.55113043 9.77591048,9.13535642 9.41981526,9.49568119 C9.41966279,9.49583547 9.41954843,9.49595118 9.41939596,9.49610546 C9.06330074,9.85643022 8.48593246,9.85643022 8.12983724,9.49610546 C7.00487059,8.35777697 4.80205073,6.12879302 4.80205073,6.12879302 C4.80205073,6.12879302 4.80205073,7.68912036 4.80205073,8.72990428 C4.80205073,8.97166361 4.70713774,9.20351034 4.53820025,9.37445439 C4.36926276,9.54539844 4.14013748,9.64143876 3.90121595,9.64143876 C3.90106348,9.64143876 3.90094913,9.64143876 3.90083478,9.64143876 C3.66191325,9.64143876 3.43278797,9.54539844 3.26385048,9.37445439 C3.09491299,9.20351034 3,8.97166361 3,8.72990428 C3,7.35918908 3,4.82738885 3,3.88457376 C3,3.64998854 3.09209228,3.42500734 3.25603636,3.25911601 C3.25603636,3.25911601 3.25603636,3.25911601 3.25603636,3.25907744 C3.41998043,3.09322468 3.64232077,3 3.87415241,3 C4.80590061,3 7.30798226,3 8.66260784,3 C8.90152937,3 9.13065465,3.09604032 9.29959214,3.26698437 C9.46852963,3.437967 9.56344262,3.66981373 9.56344262,3.91157305 C9.56344262,3.91168876 9.56344262,3.91180447 9.56344262,3.91195876 C9.56344262,4.15371808 9.46852963,4.38556481 9.29959214,4.55650886 C9.13065465,4.72745292 8.90152937,4.82349324 8.66260784,4.82349324 C7.63404077,4.82349324 6.09202875,4.82349324 6.09202875,4.82349324 Z" id="path-1"></path>
    </defs>
    <g id="Icon-/-Line-/-Expand" stroke="none" stroke-width="1" fill="none" fill-rule="evenodd">
        <mask id="mask-2" fill="white">
            <use xlink:href="#path-1"></use>
        </mask>
        <use id="Expand" fill="#0A1F44" xlink:href="#path-1"></use>
        <g id="Color-/-Black-/-Black-800" mask="url(#mask-2)" fill="#182C4F">
            <polygon id="Black-/-Black-800" points="0 0 24 0 24 24 0 24"></polygon>
        </g>
    </g>
</svg>