<?xml version="1.0" encoding="UTF-8"?>
<svg width="24px" height="24px" viewBox="0 0 24 24" version="1.1" xmlns="http://www.w3.org/2000/svg" xmlns:xlink="http://www.w3.org/1999/xlink">
    <!-- Generator: Sketch 51.3 (57544) - http://www.bohemiancoding.com/sketch -->
    <title>Icon / Solid / Favourite</title>
    <desc>Created with Sketch.</desc>
    <defs>
        <path d="M21.3955583,8.75578624 L15.3850723,7.86623431 L12.6923746,2.40871305 C12.5721648,2.14425166 12.3077035,2 12.0192001,2 C11.7306968,2 11.4902774,2.16829361 11.3460257,2.40871305 L8.65332798,7.86623431 L2.64284201,8.75578624 C2.35433868,8.80387012 2.13796118,8.99620568 2.04179341,9.26066706 C1.94562563,9.52512844 2.01775146,9.81363177 2.23412896,10.0300093 L6.58572081,14.2854333 L5.55191722,20.2959193 C5.50383333,20.5844226 5.62404305,20.848884 5.84042054,21.0171776 C5.96063026,21.1133454 6.12892387,21.1614293 6.27317553,21.1614293 C6.39338525,21.1614293 6.51359497,21.1373873 6.60976275,21.0652615 L12.0192001,18.2042702 L17.4045956,21.0412196 C17.645015,21.1854712 17.9575603,21.1614293 18.1739378,20.9931357 C18.4143572,20.8248421 18.510525,20.5603807 18.4624411,20.2718774 L17.4286375,14.2613914 L21.7802294,10.0059673 C21.9725649,9.81363177 22.0446907,9.52512844 21.9725649,9.23662512 C21.924481,8.99620568 21.6840616,8.80387012 21.3955583,8.75578624 Z" id="path-1"></path>
    </defs>
    <g id="Icon-/-Solid-/-Favourite" stroke="none" stroke-width="1" fill="none" fill-rule="evenodd">
        <mask id="mask-2" fill="white">
            <use xlink:href="#path-1"></use>
        </mask>
        <use id="Favourite" fill="#0A1F44" fill-rule="nonzero" xlink:href="#path-1"></use>
        <g id="Color-/-Black-/-Black-800" mask="url(#mask-2)" fill="#182C4F">
            <polygon id="Black-/-Black-800" points="0 0 24 0 24 24 0 24"></polygon>
        </g>
    </g>
</svg>