<?xml version="1.0" encoding="UTF-8"?>
<svg width="24px" height="24px" viewBox="0 0 24 24" version="1.1" xmlns="http://www.w3.org/2000/svg" xmlns:xlink="http://www.w3.org/1999/xlink">
    <!-- Generator: Sketch 51.3 (57544) - http://www.bohemiancoding.com/sketch -->
    <title>Icon / Line / Filter</title>
    <desc>Created with Sketch.</desc>
    <defs>
        <path d="M10.1867962,19 L13.8272306,19 C13.8272306,19 14.6904831,18.8655998 14.6904831,17.9230769 C14.6904831,16.980554 13.8272306,16.8461538 13.8272306,16.8461538 L10.1867962,16.8461538 C10.1867962,16.8461538 9.30867854,16.8461538 9.30867854,17.9230769 C9.30867854,19 10.1867962,19 10.1867962,19 Z M5.6362533,13.6153846 L18.3777735,13.6153846 C18.3777735,13.6153846 19.2669402,13.6153846 19.2669402,12.5384615 C19.2669402,11.4615385 18.3777735,11.4615385 18.3777735,11.4615385 L5.6362533,11.4615385 C5.6362533,11.4615385 4.73422904,11.4615385 4.73422904,12.5384615 C4.73422904,13.6153846 5.6362533,13.6153846 5.6362533,13.6153846 Z M2.90592754,7.15384615 L21.1080993,7.15384615 C21.1080993,7.15384615 22,7.15384615 22,6.07692308 C22,5 21.1080993,5 21.1080993,5 L2.90592754,5 C2.90592754,5 2,5 2,6.07692308 C2,7.15384615 2.90592754,7.15384615 2.90592754,7.15384615 Z" id="path-1"></path>
    </defs>
    <g id="Icon-/-Line-/-Filter" stroke="none" stroke-width="1" fill="none" fill-rule="evenodd">
        <mask id="mask-2" fill="white">
            <use xlink:href="#path-1"></use>
        </mask>
        <use id="Filter" fill="#0A1F44" xlink:href="#path-1"></use>
        <g id="Color-/-Black-/-Black-800" mask="url(#mask-2)" fill="#182C4F">
            <polygon id="Black-/-Black-800" points="0 0 24 0 24 24 0 24"></polygon>
        </g>
    </g>
</svg>