<?xml version="1.0" encoding="UTF-8"?>
<svg width="24px" height="24px" viewBox="0 0 24 24" version="1.1" xmlns="http://www.w3.org/2000/svg" xmlns:xlink="http://www.w3.org/1999/xlink">
    <!-- Generator: Sketch 51.3 (57544) - http://www.bohemiancoding.com/sketch -->
    <title>Icon / Line / Hamburger Menu</title>
    <desc>Created with Sketch.</desc>
    <defs>
        <path d="M4.57884586,19 L19.4957514,19 C19.8319171,18.8868023 20,18.7073151 20,18.4615385 C20,18.2157618 19.8319171,18.0362746 19.4957514,17.9230769 L4.57884586,17.9230769 C4.19294862,18.0075545 4,18.1870416 4,18.4615385 C4,18.7360353 4.19294862,18.9155225 4.57884586,19 Z M4.57884586,12.5384615 L19.4957514,12.5384615 C19.8319171,12.4252638 20,12.2457767 20,12 C20,11.7542233 19.8319171,11.5747362 19.4957514,11.4615385 L4.57884586,11.4615385 C4.19294862,11.546016 4,11.7255032 4,12 C4,12.2744968 4.19294862,12.453984 4.57884586,12.5384615 Z M4.57884586,6.07692308 L19.4957514,6.07692308 C19.8319171,5.96372539 20,5.78423821 20,5.53846154 C20,5.29268487 19.8319171,5.11319769 19.4957514,5 L4.57884586,5 C4.19294862,5.08447753 4,5.26396471 4,5.53846154 C4,5.81295837 4.19294862,5.99244555 4.57884586,6.07692308 Z" id="path-1"></path>
    </defs>
    <g id="Icon-/-Line-/-Hamburger-Menu" stroke="none" stroke-width="1" fill="none" fill-rule="evenodd">
        <mask id="mask-2" fill="white">
            <use xlink:href="#path-1"></use>
        </mask>
        <use id="Menu" fill="#0A1F44" xlink:href="#path-1"></use>
        <g id="Color-/-Black-/-Black-800" mask="url(#mask-2)" fill="#182C4F">
            <polygon id="Black-/-Black-800" points="0 0 24 0 24 24 0 24"></polygon>
        </g>
    </g>
</svg>