<?xml version="1.0" encoding="UTF-8"?>
<svg width="24px" height="24px" viewBox="0 0 24 24" version="1.1" xmlns="http://www.w3.org/2000/svg" xmlns:xlink="http://www.w3.org/1999/xlink">
    <!-- Generator: Sketch 51.3 (57544) - http://www.bohemiancoding.com/sketch -->
    <title>Icon / Line / Historical View</title>
    <desc>Created with Sketch.</desc>
    <defs>
        <path d="M16.3073877,5.25749168 L5.45795208,5.25749168 C4.66270549,5.25749168 4,5.97669256 4,6.87569367 L4,19.381798 C4,20.2807991 4.64377105,21 5.45795208,21 L13.9405824,21 C14.565419,21 15.1713212,20.7203108 15.6068134,20.2208657 L17.1026343,18.5027747 C17.5381265,18.0033296 17.7653398,17.36404 17.7653398,16.6648169 L17.7653398,6.87569367 C17.7653398,5.97669256 17.1026343,5.25749168 16.3073877,5.25749168 Z M5.155001,19.3618202 L5.155001,6.87569367 C5.155001,6.65593785 5.2875421,6.47613762 5.45795208,6.47613762 L16.3073877,6.47613762 C16.4777977,6.47613762 16.6103388,6.65593785 16.6103388,6.87569367 L16.6103388,16.6448391 C16.6103388,16.7247503 16.6103388,16.8046615 16.5914044,16.8845727 L14.3192713,16.8845727 C13.9973857,16.8845727 13.751238,17.1642619 13.751238,17.4839068 L13.751238,19.7813541 L5.45795208,19.7813541 C5.2875421,19.7613762 5.155001,19.581576 5.155001,19.3618202 Z M14.8873045,19.2219756 L14.8873045,18.0832408 L15.8718955,18.0832408 L14.8873045,19.2219756 Z M6.76442863,9.37291898 C6.4425431,9.37291898 6.19639535,9.09322974 6.19639535,8.77358491 C6.19639535,8.45394007 6.4425431,8.17425083 6.76442863,8.17425083 L15.0198456,8.17425083 C15.3227967,8.17425083 15.5878789,8.45394007 15.5878789,8.77358491 C15.5878789,9.09322974 15.3417312,9.37291898 15.0198456,9.37291898 L6.76442863,9.37291898 Z M6.76442863,12.2697003 C6.4425431,12.2697003 6.19639535,11.9900111 6.19639535,11.6703663 C6.19639535,11.3507214 6.4425431,11.0710322 6.76442863,11.0710322 L15.0198456,11.0710322 C15.3227967,11.0710322 15.5878789,11.3507214 15.5878789,11.6703663 C15.5878789,11.9900111 15.3417312,12.2697003 15.0198456,12.2697003 L6.76442863,12.2697003 Z M15.0009112,15.1664817 L6.76442863,15.1664817 C6.46147755,15.1664817 6.19639535,14.8867925 6.19639535,14.5671476 C6.19639535,14.2475028 6.4425431,13.9678135 6.76442863,13.9678135 L15.0009112,13.9678135 C15.3038623,13.9678135 15.5689445,14.2475028 15.5689445,14.5671476 C15.5689445,14.8867925 15.3227967,15.1664817 15.0009112,15.1664817 Z M18.5605864,3 C19.355833,3 20.0185385,3.71920089 19.999604,4.618202 L19.999604,14.3873474 C19.999604,15.0865705 19.7723907,15.7258602 19.3368986,16.2253052 C19.1664886,16.4250832 18.8635375,16.2852386 18.8635375,16.0255272 L18.8635375,14.3873474 L18.8635375,13.1487236 L18.8635375,4.5982242 C18.8635375,4.37846837 18.7309964,4.19866815 18.5605864,4.19866815 L8.84721732,4.19866815 L7.71115076,4.19866815 L6.72655974,4.19866815 C6.49934643,4.19866815 6.36680533,3.95893452 6.48041199,3.75915649 C6.72655974,3.29966704 7.19992081,3 7.71115076,3 L18.5605864,3 Z" id="path-1"></path>
    </defs>
    <g id="Icon-/-Line-/-Historical-View" stroke="none" stroke-width="1" fill="none" fill-rule="evenodd">
        <mask id="mask-2" fill="white">
            <use xlink:href="#path-1"></use>
        </mask>
        <use id="Historical-View" fill="#0A1F44" fill-rule="nonzero" xlink:href="#path-1"></use>
        <g id="Color-/-Black-/-Black-800" mask="url(#mask-2)" fill="#182C4F">
            <polygon id="Black-/-Black-800" points="0 0 24 0 24 24 0 24"></polygon>
        </g>
    </g>
</svg>