<?xml version="1.0" encoding="UTF-8"?>
<svg width="24px" height="24px" viewBox="0 0 24 24" version="1.1" xmlns="http://www.w3.org/2000/svg" xmlns:xlink="http://www.w3.org/1999/xlink">
    <!-- Generator: Sketch 51.3 (57544) - http://www.bohemiancoding.com/sketch -->
    <title>Icon / Solid / Home</title>
    <desc>Created with Sketch.</desc>
    <defs>
        <path d="M6.40553207,11.2156805 L12.236015,5.33219317 L18.0664979,11.2156805 L18.0664979,17.2846832 C17.9869913,19.0603303 16.4233618,20.4649466 14.5152038,20.4649466 L14.0646665,20.4649466 L14.0646665,15.5885427 C14.0646665,14.5549571 13.2165962,13.7068868 12.1830106,13.7068868 C11.149425,13.7068868 10.3013548,14.5549571 10.3013548,15.5885427 L10.3013548,20.4914488 L9.95682622,20.4914488 C8.02216598,20.4914488 6.48503866,19.0603303 6.40553207,17.3111854 L6.40553207,11.2156805 Z M21.3527701,11.957742 C21.5117833,12.0902529 21.5117833,12.3552749 21.3792723,12.5672924 C21.2202592,12.7263056 20.9552372,12.7263056 20.796224,12.5672924 L16.3968596,8.16792805 L16.3703574,8.16792805 L16.3703574,8.14142586 L12.236015,4.00708342 L3.70230817,12.5407902 C3.543295,12.6998034 3.27827305,12.6998034 3.11925988,12.5407902 C2.96024671,12.3817771 2.96024671,12.1167551 3.11925988,11.957742 L11.9179887,3.13251098 C11.9974952,3.0265022 12.1300062,3 12.236015,3 C12.3420238,3 12.4745348,3.07950659 12.5540413,3.13251098 L16.3438553,6.97532927 L16.3438553,4.48412293 L18.0664979,4.48412293 L18.0664979,7.66438634 L18.0664979,8.14142586 L18.0664979,8.64496756 L21.3527701,11.957742 Z" id="path-1"></path>
    </defs>
    <g id="Icon-/-Solid-/-Home" stroke="none" stroke-width="1" fill="none" fill-rule="evenodd">
        <mask id="mask-2" fill="white">
            <use xlink:href="#path-1"></use>
        </mask>
        <use id="Home-Fill" fill="#0A1F44" fill-rule="nonzero" xlink:href="#path-1"></use>
        <g id="Color-/-Black-/-Black-800" mask="url(#mask-2)" fill="#182C4F">
            <polygon id="Black-/-Black-800" points="0 0 24 0 24 24 0 24"></polygon>
        </g>
    </g>
</svg>