<?xml version="1.0" encoding="UTF-8"?>
<svg width="24px" height="24px" viewBox="0 0 24 24" version="1.1" xmlns="http://www.w3.org/2000/svg" xmlns:xlink="http://www.w3.org/1999/xlink">
    <!-- Generator: Sketch 51.3 (57544) - http://www.bohemiancoding.com/sketch -->
    <title>Icon / Line / Logout</title>
    <desc>Created with Sketch.</desc>
    <defs>
        <path d="M5.20867286,6.17300003 C5.57233647,5.75734726 6.20409721,5.7152017 6.61974999,6.0788653 C7.03540277,6.4425289 7.07754832,7.07428965 6.71388472,7.48994243 C5.61465308,8.7463197 5,10.3484962 5,12.047662 C5,15.8859902 8.13267351,19 12,19 C15.8673265,19 19,15.8859902 19,12.047662 C19,9.98783212 18.0940681,8.07602383 16.5475632,6.76208215 C16.1266769,6.40448862 16.0753679,5.773406 16.4329614,5.35251965 C16.790555,4.9316333 17.4216376,4.88032433 17.8425239,5.23791785 C19.8312355,6.92756731 21,9.39403698 21,12.047662 C21,16.9932438 16.9692295,21 12,21 C7.03077049,21 3,16.9932438 3,12.047662 C3,9.85906749 3.79364823,7.79031592 5.20867286,6.17300003 Z M11,4 C11,3.44771525 11.4477153,3 12,3 C12.5522847,3 13,3.44771525 13,4 L13,12 C13,12.5522847 12.5522847,13 12,13 C11.4477153,13 11,12.5522847 11,12 L11,4 Z" id="path-1"></path>
    </defs>
    <g id="Icon-/-Line-/-Logout" stroke="none" stroke-width="1" fill="none" fill-rule="evenodd">
        <mask id="mask-2" fill="white">
            <use xlink:href="#path-1"></use>
        </mask>
        <use id="Logout" fill="#0A1F44" fill-rule="nonzero" xlink:href="#path-1"></use>
        <g id="Color-/-Black-/-Black-800" mask="url(#mask-2)" fill="#182C4F">
            <polygon id="Black-/-Black-800" points="0 0 24 0 24 24 0 24"></polygon>
        </g>
    </g>
</svg>