<?xml version="1.0" encoding="UTF-8"?>
<svg width="24px" height="24px" viewBox="0 0 24 24" version="1.1" xmlns="http://www.w3.org/2000/svg" xmlns:xlink="http://www.w3.org/1999/xlink">
    <!-- Generator: Sketch 51.3 (57544) - http://www.bohemiancoding.com/sketch -->
    <title>Icon / Line / More</title>
    <desc>Created with Sketch.</desc>
    <defs>
        <path d="M19,14 C17.8954305,14 17,13.1045695 17,12 C17,10.8954305 17.8954305,10 19,10 C20.1045695,10 21,10.8954305 21,12 C21,13.1045695 20.1045695,14 19,14 Z M12,14 C10.8954305,14 10,13.1045695 10,12 C10,10.8954305 10.8954305,10 12,10 C13.1045695,10 14,10.8954305 14,12 C14,13.1045695 13.1045695,14 12,14 Z M5,14 C6.1045695,14 7,13.1045695 7,12 C7,10.8954305 6.1045695,10 5,10 C3.8954305,10 3,10.8954305 3,12 C3,13.1045695 3.8954305,14 5,14 Z" id="path-1"></path>
    </defs>
    <g id="Icon-/-Line-/-More" stroke="none" stroke-width="1" fill="none" fill-rule="evenodd">
        <mask id="mask-2" fill="white">
            <use xlink:href="#path-1"></use>
        </mask>
        <use id="More" fill="#0A1F44" xlink:href="#path-1"></use>
        <g id="Color-/-Black-/-Black-800" mask="url(#mask-2)" fill="#182C4F">
            <polygon id="Black-/-Black-800" points="0 0 24 0 24 24 0 24"></polygon>
        </g>
    </g>
</svg>