<?xml version="1.0" encoding="UTF-8"?>
<svg width="24px" height="24px" viewBox="0 0 24 24" version="1.1" xmlns="http://www.w3.org/2000/svg" xmlns:xlink="http://www.w3.org/1999/xlink">
    <!-- Generator: Sketch 51.3 (57544) - http://www.bohemiancoding.com/sketch -->
    <title>Icon / Line / Preferences</title>
    <desc>Created with Sketch.</desc>
    <defs>
        <path d="M19.3119375,21 L4.6875,21 C3.757125,21 3,20.2423125 3,19.3119375 L3,4.6875 C3,3.757125 3.757125,3 4.6875,3 L19.3119375,3 C20.2423125,3 21,3.757125 21,4.6875 L21,19.3119375 C21,20.2423125 20.2423125,21 19.3119375,21 Z M4.6875,4.125 C4.3775625,4.125 4.125,4.3775625 4.125,4.6875 L4.125,19.3119375 C4.125,19.6224375 4.3775625,19.875 4.6875,19.875 L19.3119375,19.875 C19.6224375,19.875 19.875,19.6224375 19.875,19.3119375 L19.875,4.6875 C19.875,4.377 19.6224375,4.125 19.3119375,4.125 L4.6875,4.125 Z M7.5,14.8125 C7.1895,14.8125 6.9375,14.5610625 6.9375,14.25 L6.9375,6.375 C6.9375,6.0645 7.1895,5.8125 7.5,5.8125 C7.8105,5.8125 8.0625,6.0645 8.0625,6.375 L8.0625,14.25 C8.0625,14.5610625 7.8105,14.8125 7.5,14.8125 Z M7.5,18.1875 C7.1895,18.1875 6.9375,17.9360625 6.9375,17.625 L6.9375,16.5 C6.9375,16.1889375 7.1895,15.9375 7.5,15.9375 C7.8105,15.9375 8.0625,16.1889375 8.0625,16.5 L8.0625,17.625 C8.0625,17.9360625 7.8105,18.1875 7.5,18.1875 Z M12,18.1875 C11.6895,18.1875 11.4375,17.9360625 11.4375,17.625 L11.4375,13.6875 C11.4375,13.3764375 11.6895,13.125 12,13.125 C12.3105,13.125 12.5625,13.3764375 12.5625,13.6875 L12.5625,17.625 C12.5625,17.9360625 12.3105,18.1875 12,18.1875 Z M12,11.4375 C11.6895,11.4375 11.4375,11.1855 11.4375,10.875 L11.4375,6.375 C11.4375,6.0645 11.6895,5.8125 12,5.8125 C12.3105,5.8125 12.5625,6.0645 12.5625,6.375 L12.5625,10.875 C12.5625,11.1855 12.3105,11.4375 12,11.4375 Z M7.5,17.0625 C6.569625,17.0625 5.8125,16.305375 5.8125,15.375 C5.8125,14.444625 6.569625,13.6875 7.5,13.6875 C8.430375,13.6875 9.1875,14.444625 9.1875,15.375 C9.1875,16.305375 8.430375,17.0625 7.5,17.0625 Z M7.5,14.8125 C7.1900625,14.8125 6.9375,15.0645 6.9375,15.375 C6.9375,15.6855 7.1900625,15.9375 7.5,15.9375 C7.8099375,15.9375 8.0625,15.6855 8.0625,15.375 C8.0625,15.0645 7.8099375,14.8125 7.5,14.8125 Z M16.5,18.1875 C16.1889375,18.1875 15.9375,17.9360625 15.9375,17.625 L15.9375,10.3125 C15.9375,10.002 16.1889375,9.75 16.5,9.75 C16.8110625,9.75 17.0625,10.002 17.0625,10.3125 L17.0625,17.625 C17.0625,17.9360625 16.8110625,18.1875 16.5,18.1875 Z M16.5,8.0625 C16.1889375,8.0625 15.9375,7.8105 15.9375,7.5 L15.9375,6.375 C15.9375,6.0645 16.1889375,5.8125 16.5,5.8125 C16.8110625,5.8125 17.0625,6.0645 17.0625,6.375 L17.0625,7.5 C17.0625,7.8105 16.8110625,8.0625 16.5,8.0625 Z M16.5,10.3125 C15.569625,10.3125 14.8125,9.555375 14.8125,8.625 C14.8125,7.694625 15.569625,6.9375 16.5,6.9375 C17.430375,6.9375 18.1875,7.694625 18.1875,8.625 C18.1875,9.555375 17.430375,10.3125 16.5,10.3125 Z M16.5,8.0625 C16.1895,8.0625 15.9375,8.3150625 15.9375,8.625 C15.9375,8.9349375 16.1895,9.1875 16.5,9.1875 C16.8105,9.1875 17.0625,8.9349375 17.0625,8.625 C17.0625,8.3150625 16.8105,8.0625 16.5,8.0625 Z M12,13.6875 C11.069625,13.6875 10.3125,12.930375 10.3125,12 C10.3125,11.069625 11.069625,10.3125 12,10.3125 C12.930375,10.3125 13.6875,11.069625 13.6875,12 C13.6875,12.930375 12.930375,13.6875 12,13.6875 Z M12,11.4375 C11.6900625,11.4375 11.4375,11.6900625 11.4375,12 C11.4375,12.3099375 11.6900625,12.5625 12,12.5625 C12.3099375,12.5625 12.5625,12.3099375 12.5625,12 C12.5625,11.6900625 12.3099375,11.4375 12,11.4375 Z" id="path-1"></path>
    </defs>
    <g id="Icon-/-Line-/-Preferences" stroke="none" stroke-width="1" fill="none" fill-rule="evenodd">
        <mask id="mask-2" fill="white">
            <use xlink:href="#path-1"></use>
        </mask>
        <use id="Preferences" fill="#0A1F44" xlink:href="#path-1"></use>
        <g id="Color-/-Black-/-Black-800" mask="url(#mask-2)" fill="#182C4F">
            <polygon id="Black-/-Black-800" points="0 0 24 0 24 24 0 24"></polygon>
        </g>
    </g>
</svg>