<?xml version="1.0" encoding="UTF-8"?>
<svg width="24px" height="24px" viewBox="0 0 24 24" version="1.1" xmlns="http://www.w3.org/2000/svg" xmlns:xlink="http://www.w3.org/1999/xlink">
    <!-- Generator: Sketch 51.3 (57544) - http://www.bohemiancoding.com/sketch -->
    <title>Icon / Line / Product</title>
    <desc>Created with Sketch.</desc>
    <defs>
        <path d="M21,8.37466935 C21,8.25069003 20.9265608,8.13647124 20.8073952,8.07458542 C20.6882297,8.01269959 20.5418131,8.01311494 20.4226476,8.07500076 L12.9858869,11.9360114 C12.5902851,12.1413976 12.3464114,12.5208117 12.3464114,12.9317917 L12.3464114,20.6540207 C12.3464114,20.7775847 12.4196197,20.8918035 12.5387853,20.9534817 C12.6577198,21.0153675 12.8043674,21.0155752 12.9237638,20.9536893 L20.0762362,17.2403324 C20.648046,16.9433635 21,16.3951133 21,15.8013832 L21,8.37466935 Z M3.57735239,8.07479309 L11.0141131,11.9358038 C11.4099459,12.1411899 11.6535886,12.520604 11.6535886,12.931584 L11.6535886,20.6538131 C11.6535886,20.7771694 11.5806112,20.8915958 11.4616766,20.9534817 C11.3425111,21.0153675 11.1958636,21.0155752 11.0766981,20.9536893 C11.0764671,20.9536893 11.0762362,20.9534817 11.0762362,20.9534817 L3.92376382,17.2403324 C3.35218496,16.9433635 3,16.3949056 3,15.8013832 L3,8.37466935 L3,8.37425401 C3,8.25069003 3.07343922,8.13667891 3.19260476,8.07479309 C3.31177029,8.01290726 3.45818686,8.01311494 3.57735239,8.07479309 Z M20.0762362,7.53547269 L12.6392446,11.3964834 C12.2436427,11.6018695 11.7561264,11.6018695 11.3605245,11.3964834 L3.92376382,7.53526502 C3.80459829,7.4733792 3.73115907,7.35957574 3.73092813,7.2358041 C3.73092813,7.11224013 3.80413641,6.99781366 3.92330194,6.93592784 C3.92330194,6.93592784 3.92353288,6.93572017 3.92376382,6.93572017 L11.0762362,3.2225709 C11.647815,2.9258097 12.351954,2.9258097 12.9237638,3.2225709 L20.0762362,6.93613551 C20.0764671,6.93613551 20.0766981,6.93634318 20.0766981,6.93634318 C20.1958636,6.99802133 20.2688409,7.1124478 20.2688409,7.23601177 C20.26861,7.35957574 20.1954017,7.47379454 20.0762362,7.53547269 Z" id="path-1"></path>
    </defs>
    <g id="Icon-/-Line-/-Product" stroke="none" stroke-width="1" fill="none" fill-rule="evenodd">
        <mask id="mask-2" fill="white">
            <use xlink:href="#path-1"></use>
        </mask>
        <use id="Product-Requirement" fill="#0A1F44" xlink:href="#path-1"></use>
        <g id="Color-/-Black-/-Black-800" mask="url(#mask-2)" fill="#182C4F">
            <polygon id="Black-/-Black-800" points="0 0 24 0 24 24 0 24"></polygon>
        </g>
    </g>
</svg>