<?xml version="1.0" encoding="UTF-8"?>
<svg width="24px" height="24px" viewBox="0 0 24 24" version="1.1" xmlns="http://www.w3.org/2000/svg" xmlns:xlink="http://www.w3.org/1999/xlink">
    <!-- Generator: Sketch 51.3 (57544) - http://www.bohemiancoding.com/sketch -->
    <title>Icon / Line / Product Gallery</title>
    <desc>Created with Sketch.</desc>
    <defs>
        <path d="M17,20 L21,20 L21,16 L17,16 L17,20 Z M10,20 L14,20 L14,16 L10,16 L10,20 Z M3,20 L7,20 L7,16 L3,16 L3,20 Z M17,14 L21,14 L21,10 L17,10 L17,14 Z M10,14 L14,14 L14,10 L10,10 L10,14 Z M3,14 L7,14 L7,10 L3,10 L3,14 Z M17,8 L21,8 L21,4 L17,4 L17,8 Z M10,8 L14,8 L14,4 L10,4 L10,8 Z M3,8 L7,8 L7,4 L3,4 L3,8 Z" id="path-1"></path>
    </defs>
    <g id="Icon-/-Line-/-Product-Gallery" stroke="none" stroke-width="1" fill="none" fill-rule="evenodd">
        <mask id="mask-2" fill="white">
            <use xlink:href="#path-1"></use>
        </mask>
        <use id="Menu" fill="#0A1F44" xlink:href="#path-1"></use>
        <g id="Color-/-Black-/-Black-800" mask="url(#mask-2)" fill="#182C4F">
            <polygon id="Black-/-Black-800" points="0 0 24 0 24 24 0 24"></polygon>
        </g>
    </g>
</svg>