<?xml version="1.0" encoding="UTF-8"?>
<svg width="24px" height="24px" viewBox="0 0 24 24" version="1.1" xmlns="http://www.w3.org/2000/svg" xmlns:xlink="http://www.w3.org/1999/xlink">
    <!-- Generator: Sketch 51.3 (57544) - http://www.bohemiancoding.com/sketch -->
    <title>Icon / Solid / Proposal</title>
    <desc>Created with Sketch.</desc>
    <defs>
        <path d="M18,5.20694246 C18.0003422,5.20406783 18.000699,5.20257176 18.0010704,5.20257176 C19.380031,5.20257176 20.001385,6.27240625 20.001385,7.46456097 L20.0015478,18.6092038 C20.0015478,19.9101124 19.2350882,20.9991285 17.6103361,20.9992026 C17.4821022,20.9992453 16.199969,20.9997039 15.2151819,20.9999603 C14.1113995,21.000224 13.6448341,20.9990843 12.9154325,20.9992026 C10.0125848,20.9996734 8.31465575,20.9991053 8.23200876,20.9992026 C7.02666223,21.0006224 5.99650314,20.0704523 5.99592633,18.9935502 C4.89322976,18.9913519 4,18.0967656 4,16.9935543 L4,5 C4,3.8954305 4.8954305,3 6,3 L16,3 C17.1045695,3 18,3.8954305 18,5 L18,5.2069419 Z M18,6.16812428 L18,16.9935543 C18,18.0981238 17.1045695,18.9935543 16,18.9935543 L7.00890987,18.9935543 C7.0095329,19.597341 7.63088071,19.9750229 8.23200876,19.985354 C8.30468156,19.986603 10.086008,19.9869033 12.9154325,19.9864444 C13.6448025,19.9863261 14.1110903,19.9862272 15.2148375,19.9859635 C16.1995954,19.9857071 16.1995954,19.9857071 16.9262528,19.9854935 C17.4816168,19.9853226 17.4816168,19.9853226 17.6103361,19.9852799 C18.4455372,19.9853582 18.9900855,19.273362 18.9900855,18.6092038 L18.9899226,7.46456097 C18.9899226,6.84708145 18.7559237,6.17249442 18.0010704,6.17249442 C18.000699,6.17249442 18.0003422,6.17099835 18,6.16812372 Z M6.4,13.6320787 L6.4,14.4499309 L10.4,14.4499309 L10.4,13.6320787 L6.4,13.6320787 Z M6.4,11.1785221 L6.4,11.9963743 L14.4,11.9963743 L14.4,11.1785221 L6.4,11.1785221 Z M6.4,8.72496546 L6.4,9.54281767 L14.4,9.54281767 L14.4,8.72496546 L6.4,8.72496546 Z M6.4,6.27140884 L6.4,7.08926104 L14.4,7.08926104 L14.4,6.27140884 L6.4,6.27140884 Z" id="path-1"></path>
    </defs>
    <g id="Icon-/-Solid-/-Proposal" stroke="none" stroke-width="1" fill="none" fill-rule="evenodd">
        <mask id="mask-2" fill="white">
            <use xlink:href="#path-1"></use>
        </mask>
        <use id="Proposal" fill="#0A1F44" xlink:href="#path-1"></use>
        <g id="Color-/-Black-/-Black-800" mask="url(#mask-2)" fill="#182C4F">
            <polygon id="Black-/-Black-800" points="0 0 24 0 24 24 0 24"></polygon>
        </g>
    </g>
</svg>