<?xml version="1.0" encoding="UTF-8"?>
<svg width="24px" height="24px" viewBox="0 0 24 24" version="1.1" xmlns="http://www.w3.org/2000/svg" xmlns:xlink="http://www.w3.org/1999/xlink">
    <!-- Generator: Sketch 51.3 (57544) - http://www.bohemiancoding.com/sketch -->
    <title>Icon / Line / Radio Button Off</title>
    <desc>Created with Sketch.</desc>
    <defs>
        <path d="M12,3 C7.05,3 3,7.05 3,12 C3,16.95 7.05,21 12,21 C16.95,21 21,16.95 21,12 C21,7.05 16.95,3 12,3 L12,3 Z M12,19.2 C8.04,19.2 4.8,15.96 4.8,12 C4.8,8.04 8.04,4.8 12,4.8 C15.96,4.8 19.2,8.04 19.2,12 C19.2,15.96 15.96,19.2 12,19.2 L12,19.2 Z" id="path-1"></path>
    </defs>
    <g id="Icon-/-Line-/-Radio-Button-Off" stroke="none" stroke-width="1" fill="none" fill-rule="evenodd">
        <mask id="mask-2" fill="white">
            <use xlink:href="#path-1"></use>
        </mask>
        <use id="Radio-Button-Off" fill="#0A1F44" xlink:href="#path-1"></use>
        <g id="Color-/-Black-/-Black-800" mask="url(#mask-2)" fill="#182C4F">
            <polygon id="Black-/-Black-800" points="0 0 24 0 24 24 0 24"></polygon>
        </g>
    </g>
</svg>