<svg xmlns="http://www.w3.org/2000/svg" xmlns:xlink="http://www.w3.org/1999/xlink" width="28" height="28" viewBox="0 0 28 28">
    <defs>
        <circle id="a" cx="14" cy="14" r="14"/>
        <linearGradient id="c" x1="1.463%" x2="98.223%" y1="1.463%" y2="98.223%">
            <stop offset="0%" stop-color="#FF5980"/>
            <stop offset="100%" stop-color="#FFA882"/>
        </linearGradient>
        <path id="d" d="M19.87 20.326l-2.524-.918c-.069-.046-.183-.023-.252.023-2.317 1.583-5.39 2.11-8.556.918a8.402 8.402 0 0 1-4.908-4.932C1.015 8.374 6.956 1.79 13.883 3.189c3.51.712 6.285 3.533 6.95 7.066.527 2.776-.23 5.368-1.766 7.318-.07.092-.092.206-.046.298l.986 2.317c.023.092-.046.16-.138.138zM12.391 6.562c-.16-.344-.62-.344-.757-.023l-1.4 2.844a.48.48 0 0 1-.343.253l-3.143.458c-.367.046-.505.505-.252.757l2.248 2.226a.42.42 0 0 1 .137.39l-.527 3.12c-.07.344.32.619.642.458l2.798-1.468a.439.439 0 0 1 .413 0l2.799 1.468a.434.434 0 0 0 .642-.458l-.528-3.12a.42.42 0 0 1 .138-.39l2.27-2.203c.253-.252.115-.71-.252-.757l-3.142-.458a.441.441 0 0 1-.344-.253l-1.4-2.844z"/>
    </defs>
    <g fill="none" fill-rule="evenodd">
        <mask id="b" fill="#fff">
            <use xlink:href="#a"/>
        </mask>
        <use fill="#FFF" xlink:href="#a"/>
        <g fill="url(#c)" mask="url(#b)">
            <circle cx="14" cy="14" r="14"/>
        </g>
        <path fill="#000" d="M8.191 7.07C14.211 1.61 20.93 8.546 20.93 8.546l6.147 10.458s-1.377 3.626-4.063 5.703c-2.687 2.077-3.824 2.317-5.523 2.845-1.699.528-4.474.448-4.474.448l-6.334-8.819s-4.51-6.649 1.51-12.11z" opacity=".15"/>
        <g transform="translate(2 2)">
            <mask id="e" fill="#fff">
                <use xlink:href="#d"/>
            </mask>
            <use fill="#182C4F" xlink:href="#d"/>
            <g fill="#FCFCFD" mask="url(#e)">
                <path d="M0 0h24v24H0z"/>
            </g>
        </g>
    </g>
</svg>
