<svg xmlns="http://www.w3.org/2000/svg" xmlns:xlink="http://www.w3.org/1999/xlink" width="136" height="137" viewBox="0 0 136 137">
    <defs>
        <circle id="a" cx="68" cy="68" r="68"/>
        <linearGradient id="d" x1="1.463%" x2="98.223%" y1="1.463%" y2="98.223%">
            <stop offset="0%" stop-color="#FF5980"/>
            <stop offset="100%" stop-color="#FFA882"/>
        </linearGradient>
        <circle id="c" cx="68" cy="68" r="68"/>
        <linearGradient id="e" x1="0%" y1="50%" y2="50%">
            <stop offset="0%" stop-color="#FF512F"/>
            <stop offset="100%" stop-color="#DD2476"/>
        </linearGradient>
        <path id="g" d="M96.864 99.088l-12.3-4.473c-.336-.224-.895-.112-1.23.112-11.295 7.716-26.279 10.289-41.71 4.473-11.07-4.138-19.792-12.973-23.93-24.044C4.947 40.823 33.908 8.726 67.678 15.548c17.109 3.467 30.64 17.223 33.882 34.445 2.572 13.532-1.118 26.17-8.61 35.675-.336.448-.447 1.007-.224 1.454l4.808 11.295c.112.448-.223.783-.67.671zm-36.454-67.1c-.783-1.678-3.02-1.678-3.69-.112l-6.821 13.867a2.342 2.342 0 0 1-1.678 1.23l-15.32 2.237c-1.788.224-2.46 2.46-1.23 3.69l10.96 10.849c.558.447.782 1.23.67 1.9L40.73 80.86c-.335 1.678 1.566 3.02 3.131 2.237l13.643-7.157c.67-.336 1.341-.336 2.012 0l13.642 7.157c1.566.895 3.467-.447 3.131-2.237l-2.571-15.21c-.112-.67.111-1.453.67-1.9l11.07-10.736c1.23-1.23.56-3.467-1.23-3.69l-15.319-2.238c-.782-.111-1.342-.559-1.677-1.23L60.41 31.988z"/>
    </defs>
    <g fill="none" fill-rule="evenodd">
        <mask id="b" fill="#fff">
            <use xlink:href="#a"/>
        </mask>
        <use fill="#FFF" xlink:href="#a"/>
        <g mask="url(#b)">
            <mask id="f" fill="#fff">
                <use xlink:href="#c"/>
            </mask>
            <use fill="url(#d)" xlink:href="#c"/>
            <path fill="url(#e)" d="M0 0h136v136H0z" mask="url(#f)"/>
        </g>
        <path fill="#000" d="M39.786 34.342c29.238-26.529 61.87 7.167 61.87 7.167l29.855 50.798s-6.687 17.608-19.735 27.697c-13.05 10.089-18.572 11.255-26.823 13.82C76.7 136.39 63.222 136 63.222 136L32.455 93.167s-21.906-32.296 7.331-58.825z" opacity=".15"/>
        <g transform="translate(9.714 9.714)">
            <mask id="h" fill="#fff">
                <use xlink:href="#g"/>
            </mask>
            <use fill="#182C4F" xlink:href="#g"/>
            <g fill="#FCFCFD" mask="url(#h)">
                <path d="M0 0h117v117H0z"/>
            </g>
        </g>
    </g>
</svg>
