<?xml version="1.0" encoding="UTF-8"?>
<svg width="24px" height="24px" viewBox="0 0 24 24" version="1.1" xmlns="http://www.w3.org/2000/svg" xmlns:xlink="http://www.w3.org/1999/xlink">
    <!-- Generator: Sketch 51.3 (57544) - http://www.bohemiancoding.com/sketch -->
    <title>Icon / Solid / Rating Configurator</title>
    <desc>Created with Sketch.</desc>
    <defs>
        <path d="M19.8694507,20.3258061 L17.3463077,19.4081927 C17.2774947,19.362312 17.1628064,19.3852524 17.0939934,19.431133 C14.7772894,21.0140161 11.7036425,21.5416439 8.53824498,20.3487464 C6.2674163,19.499954 4.47827856,17.6876676 3.62958502,15.4165744 C1.01469139,8.37389157 6.9555462,1.79001543 13.8827205,3.18937586 C17.392183,3.90052625 20.1676403,6.72218745 20.8328325,10.254999 C21.3603988,13.0307796 20.6034559,15.6230374 19.0666325,17.5729659 C18.9978195,17.6647272 18.9748818,17.7794289 19.0207571,17.8711903 L20.0070767,20.1881641 C20.0300143,20.2799254 19.9612013,20.3487464 19.8694507,20.3258061 Z M12.3917724,6.56160511 C12.2312088,6.21750008 11.7724555,6.21750008 11.6348295,6.53866477 L10.2356321,9.38326631 C10.1668191,9.52090832 10.0291931,9.61266966 9.89156712,9.63560999 L6.74910723,10.0944167 C6.38210462,10.1402974 6.24447864,10.5991041 6.49679294,10.8514477 L8.74468395,13.0766602 C8.85937227,13.1684216 8.90524759,13.3290039 8.88230993,13.4666459 L8.35474367,16.5865315 C8.28593068,16.9306365 8.67587096,17.2059205 8.99699825,17.0453382 L11.7953932,15.5771568 C11.9330192,15.5083358 12.0706451,15.5083358 12.2082711,15.5771568 L15.0066661,17.0453382 C15.3277933,17.2288609 15.7177336,16.9535769 15.6489206,16.5865315 L15.1213544,13.4666459 C15.0984167,13.3290039 15.144292,13.1684216 15.2589803,13.0766602 L17.529809,10.8743881 C17.7821233,10.6220444 17.6444973,10.1632377 17.2774947,10.117357 L14.1350348,9.65855033 C13.9744712,9.63560999 13.8597829,9.54384865 13.7909699,9.40620664 L12.3917724,6.56160511 Z" id="path-1"></path>
    </defs>
    <g id="Icon-/-Solid-/-Rating-Configurator" stroke="none" stroke-width="1" fill="none" fill-rule="evenodd">
        <mask id="mask-2" fill="white">
            <use xlink:href="#path-1"></use>
        </mask>
        <use id="Rating" fill="#0A1F44" xlink:href="#path-1"></use>
        <g id="Color-/-Black-/-Black-800" mask="url(#mask-2)" fill="#182C4F">
            <polygon id="Black-/-Black-800" points="0 0 24 0 24 24 0 24"></polygon>
        </g>
    </g>
</svg>