<?xml version="1.0" encoding="UTF-8"?>
<svg width="24px" height="24px" viewBox="0 0 24 24" version="1.1" xmlns="http://www.w3.org/2000/svg" xmlns:xlink="http://www.w3.org/1999/xlink">
    <!-- Generator: Sketch 51.3 (57544) - http://www.bohemiancoding.com/sketch -->
    <title>Icon / Line / Reports</title>
    <desc>Created with Sketch.</desc>
    <defs>
        <path d="M14.4545455,17.4857143 L12.2045455,17.4857143 L12.2045455,14.9714286 L14.4545455,14.9714286 L14.4545455,17.4857143 Z M12.6136364,17.0285714 L14.0454545,17.0285714 L14.0454545,15.4285714 L12.6136364,15.4285714 L12.6136364,17.0285714 Z M15.0681818,12 L18.3409091,12 L18.3409091,12.5028571 L15.0681818,12.5028571 L15.0681818,12 Z M15.0681818,12.9142857 L18.9545455,12.9142857 L18.9545455,13.4171429 L15.0681818,13.4171429 L15.0681818,12.9142857 Z M15.0681818,15.4285714 L18.5454545,15.4285714 L18.5454545,15.9314286 L15.0681818,15.9314286 L15.0681818,15.4285714 Z M15.0681818,11.0857143 L19.1590909,11.0857143 L19.1590909,11.5885714 L15.0681818,11.5885714 L15.0681818,11.0857143 Z M15.0681818,16.3428571 L17.3181818,16.3428571 L17.3181818,16.8457143 L15.0681818,16.8457143 L15.0681818,16.3428571 Z M14.4545455,13.6 L12.2045455,13.6 L12.2045455,11.0857143 L14.4545455,11.0857143 L14.4545455,13.6 Z M12.6136364,13.1428571 L14.0454545,13.1428571 L14.0454545,11.5428571 L12.6136364,11.5428571 L12.6136364,13.1428571 Z M14.4545455,9.71428571 L12.2045455,9.71428571 L12.2045455,7.2 L14.4545455,7.2 L14.4545455,9.71428571 Z M12.6136364,9.25714286 L14.0454545,9.25714286 L14.0454545,7.65714286 L12.6136364,7.65714286 L12.6136364,9.25714286 Z M15.0681818,7.65714286 L19.3636364,7.65714286 L19.3636364,8.16 L15.0681818,8.16 L15.0681818,7.65714286 Z M15.0681818,8.57142857 L18.75,8.57142857 L18.75,9.07428571 L15.0681818,9.07428571 L15.0681818,8.57142857 Z M8.31818182,16.3428571 L9.75,16.3428571 L9.75,18.1714286 L8.31818182,18.1714286 L8.31818182,16.3428571 Z M5.86363636,18.6285714 L9.75,18.6285714 L9.75,19.1314286 L5.86363636,19.1314286 L5.86363636,18.6285714 Z M9.75,14.7428571 L9.75,15.8857143 L3.54736364,15.8857143 C3.24504545,15.8857143 3,15.6185143 3,15.2806857 L3,5.90308571 C3,5.56525714 3.24504545,5.37142857 3.54736364,5.37142857 L9.75,5.37142857 L9.75,6.51428571 L4.28290909,6.51428571 C4.07815909,6.51428571 4.02272727,6.49622857 4.02272727,6.72502857 L4.02272727,14.4587429 C4.02272727,14.6875429 4.07815909,14.7428571 4.28290909,14.7428571 L9.75,14.7428571 Z M4.43181818,8.1456 C4.43181818,8.1456 5.48031818,8.51497143 5.99106818,9.16502857 C6.70513636,10.0736 6.51102273,11.0665143 6.85711364,11.5821714 C8.01422727,13.3062857 9.75,12.2228571 9.75,12.2228571 L9.75,14.2857143 L4.43181818,14.2857143 L4.43181818,8.1456 Z M20.3311364,4.45714286 L18.0091364,4.45714286 C18.0091364,4.22857143 17.8358864,4 17.6221364,4 L14.3328409,4 C14.1190909,4 13.9458409,4.22857143 13.9458409,4.45714286 L11.2370455,4.45714286 C10.9165227,4.45714286 10.5681818,4.70765714 10.5681818,5.04685714 L10.5681818,19.3853714 C10.5681818,19.7248 10.9165227,20 11.2370455,20 L20.3311364,20 C20.6516591,20 21,19.7248 21,19.3856 L21,5.04685714 C21,4.70765714 20.6516591,4.45714286 20.3311364,4.45714286 Z M17.2353409,4.64868571 C17.3421136,4.64868571 17.4288409,4.74537143 17.4288409,4.86491429 C17.4288409,4.98422857 17.3423182,5.08114286 17.2353409,5.08114286 C17.1283636,5.08114286 17.0418409,4.98422857 17.0418409,4.86491429 C17.0418409,4.74537143 17.1283636,4.64868571 17.2353409,4.64868571 Z M14.7198409,4.64868571 C14.8266136,4.64868571 14.9133409,4.74537143 14.9133409,4.86491429 C14.9133409,4.98422857 14.8268182,5.08114286 14.7198409,5.08114286 C14.6128636,5.08114286 14.5263409,4.98422857 14.5263409,4.86491429 C14.5263409,4.74537143 14.6130682,4.64868571 14.7198409,4.64868571 Z M20.1818182,18.9188571 C20.1818182,18.9188571 20.1376364,19.0857143 19.9441364,19.0857143 L11.6240455,19.0857143 C11.4305455,19.0857143 11.3863636,18.9188571 11.3863636,18.9188571 L11.3863636,5.5136 C11.3863636,5.29737143 11.6240455,5.37142857 11.6240455,5.37142857 L13.9458409,5.37142857 C13.9458409,5.6 14.1190909,5.82857143 14.3328409,5.82857143 L17.6221364,5.82857143 C17.8358864,5.82857143 18.0091364,5.6 18.0091364,5.37142857 L19.9439318,5.37142857 C19.9439318,5.37142857 20.1816136,5.29737143 20.1816136,5.5136 L20.1816136,18.9188571 L20.1818182,18.9188571 Z" id="path-1"></path>
    </defs>
    <g id="Icon-/-Line-/-Reports" stroke="none" stroke-width="1" fill="none" fill-rule="evenodd">
        <mask id="mask-2" fill="white">
            <use xlink:href="#path-1"></use>
        </mask>
        <use id="Reports" fill="#0A1F44" fill-rule="nonzero" xlink:href="#path-1"></use>
        <g id="Color-/-Black-/-Black-800" mask="url(#mask-2)" fill="#182C4F">
            <polygon id="Black-/-Black-800" points="0 0 24 0 24 24 0 24"></polygon>
        </g>
    </g>
</svg>