<svg xmlns="http://www.w3.org/2000/svg" xmlns:xlink="http://www.w3.org/1999/xlink" width="24" height="24" viewBox="0 0 24 24">
    <defs>
        <path id="a" d="M19.077 5H4.923C4.414 5 4 5.51 4 6.135V7.65c0 .492.258.908.615 1.065v8.394c0 1.043.69 1.892 1.539 1.892h11.692c.848 0 1.539-.849 1.539-1.892V8.714c.357-.157.615-.573.615-1.065V6.135C20 5.51 19.586 5 19.077 5zm-1.23 13.243H6.153c-.51 0-.923-.51-.923-1.135V8.784h4.923c0 .417.276.757.615.757h2.462c.34 0 .615-.34.615-.757h4.923v8.324c0 .626-.414 1.135-.923 1.135zM19.384 7.65c0 .209-.138.378-.308.378H4.923c-.17 0-.308-.17-.308-.378V6.135c0-.209.138-.378.308-.378h14.154c.17 0 .308.17.308.378V7.65zM6.4 15.576h2.4v.738H6.4v-.738zm0-1.476H10v.738H6.4V14.1zm0-1.476h5v.738h-5v-.738zm0-1.475h5v.737h-5v-.737zm6.8 3.689h.6v1.476h-.6v-1.476zm2.4-2.952h.6v4.428h-.6v-4.428zM17 14.1h.6v2.214H17V14.1zm-2.6-.738h.6v2.952h-.6v-2.952z"/>
    </defs>
    <g fill="none" fill-rule="evenodd">
        <mask id="b" fill="#fff">
            <use xlink:href="#a"/>
        </mask>
        <use fill="#0A1F44" fill-rule="nonzero" xlink:href="#a"/>
        <g fill="#182C4F" mask="url(#b)">
            <path d="M0 0h24v24H0z"/>
        </g>
    </g>
</svg>
