<?xml version="1.0" encoding="utf-8"?>
<!-- Generator: Adobe Illustrator 22.1.0, SVG Export Plug-In . SVG Version: 6.00 Build 0)  -->
<svg version="1.1" id="Layer_1" xmlns="http://www.w3.org/2000/svg" xmlns:xlink="http://www.w3.org/1999/xlink" x="0px" y="0px"
	 width="24px" height="24px" viewBox="0 0 24 24" style="enable-background:new 0 0 24 24;" xml:space="preserve">
<style type="text/css">
	.st0{fill:#FFFFFF;}
</style>
<g>
	<path id="a_1_" class="st0" d="M19.1,5H4.9C4.4,5,4,5.5,4,6.1v1.5c0,0.5,0.3,0.9,0.6,1.1v8.4c0,1,0.7,1.9,1.5,1.9h11.7
		c0.8,0,1.5-0.8,1.5-1.9V8.7C19.7,8.6,20,8.1,20,7.6V6.1C20,5.5,19.6,5,19.1,5z M17.8,18.2H6.2c-0.5,0-0.9-0.5-0.9-1.1V8.8h4.9
		c0,0.4,0.3,0.8,0.6,0.8h2.5c0.3,0,0.6-0.3,0.6-0.8h4.9v8.3C18.8,17.7,18.4,18.2,17.8,18.2L17.8,18.2z M19.4,7.7
		c0,0.2-0.1,0.4-0.3,0.4H4.9C4.8,8,4.6,7.9,4.6,7.7V6.1c0-0.2,0.1-0.4,0.3-0.4h14.2c0.2,0,0.3,0.2,0.3,0.4L19.4,7.7L19.4,7.7z
		 M6.4,15.6h2.4v0.7H6.4C6.4,16.3,6.4,15.6,6.4,15.6z M6.4,14.1H10v0.7H6.4V14.1z M6.4,12.6h5v0.7h-5C6.4,13.4,6.4,12.6,6.4,12.6z
		 M6.4,11.1h5v0.7h-5C6.4,11.9,6.4,11.1,6.4,11.1z M13.2,14.8h0.6v1.5h-0.6C13.2,16.3,13.2,14.8,13.2,14.8z M15.6,11.9h0.6v4.4h-0.6
		C15.6,16.3,15.6,11.9,15.6,11.9z M17,14.1h0.6v2.2H17V14.1z M14.4,13.4H15v3h-0.6C14.4,16.3,14.4,13.4,14.4,13.4z"/>
</g>
</svg>
