<?xml version="1.0" encoding="UTF-8"?>
<svg width="24px" height="24px" viewBox="0 0 24 24" version="1.1" xmlns="http://www.w3.org/2000/svg" xmlns:xlink="http://www.w3.org/1999/xlink">
    <!-- Generator: Sketch 51.3 (57544) - http://www.bohemiancoding.com/sketch -->
    <title>Icon / Solid / RevX</title>
    <desc>Created with Sketch.</desc>
    <defs>
        <path d="M17.8461538,18.2432432 L6.15384615,18.2432432 C5.64492308,18.2432432 5.23076923,17.7339459 5.23076923,17.1081081 L5.23076923,8.78378378 L10.1538462,8.78378378 C10.1538462,9.20113514 10.4298462,9.54054054 10.7692308,9.54054054 L13.2307692,9.54054054 C13.5701538,9.54054054 13.8461538,9.20113514 13.8461538,8.78378378 L18.7692308,8.78378378 L18.7692308,17.1081081 C18.7692308,17.7339459 18.3550769,18.2432432 17.8461538,18.2432432 Z M19.3846154,7.64864865 C19.3846154,7.85751351 19.2467692,8.02702703 19.0769231,8.02702703 L4.92307692,8.02702703 C4.75323077,8.02702703 4.61538462,7.85751351 4.61538462,7.64864865 L4.61538462,6.13513514 C4.61538462,5.92627027 4.75323077,5.75675676 4.92307692,5.75675676 L19.0769231,5.75675676 C19.2467692,5.75675676 19.3846154,5.92627027 19.3846154,6.13513514 L19.3846154,7.64864865 Z M6.4,15.5756757 L6.4,16.3135135 L8.8,16.3135135 L8.8,15.5756757 L6.4,15.5756757 Z M6.4,14.1 L6.4,14.8378378 L10,14.8378378 L10,14.1 L6.4,14.1 Z M6.4,12.6243243 L6.4,13.3621622 L11.4,13.3621622 L11.4,12.6243243 L6.4,12.6243243 Z M6.4,11.1486486 L6.4,11.8864865 L11.4,11.8864865 L11.4,11.1486486 L6.4,11.1486486 Z M13.2,14.8378378 L13.2,16.3135135 L13.8,16.3135135 L13.8,14.8378378 L13.2,14.8378378 Z M15.6,11.8864865 L15.6,16.3135135 L16.2,16.3135135 L16.2,11.8864865 L15.6,11.8864865 Z M17,14.1 L17,16.3135135 L17.6,16.3135135 L17.6,14.1 L17,14.1 Z M14.4,13.3621622 L14.4,16.3135135 L15,16.3135135 L15,13.3621622 L14.4,13.3621622 Z" id="path-1"></path>
    </defs>
    <g id="Icon-/-Solid-/-RevX" stroke="none" stroke-width="1" fill="none" fill-rule="evenodd">
        <mask id="mask-2" fill="white">
            <use xlink:href="#path-1"></use>
        </mask>
        <use id="Revx" fill="#0A1F44" fill-rule="nonzero" xlink:href="#path-1"></use>
        <g id="Color-/-Black-/-Black-800" mask="url(#mask-2)" fill="#182C4F">
            <polygon id="Black-/-Black-800" points="0 0 24 0 24 24 0 24"></polygon>
        </g>
    </g>
</svg>