<?xml version="1.0" encoding="UTF-8"?>
<svg width="24px" height="24px" viewBox="0 0 24 24" version="1.1" xmlns="http://www.w3.org/2000/svg" xmlns:xlink="http://www.w3.org/1999/xlink">
    <!-- Generator: Sketch 51.3 (57544) - http://www.bohemiancoding.com/sketch -->
    <title>Icon / Line / Setting</title>
    <desc>Created with Sketch.</desc>
    <defs>
        <path d="M11,3 C10.12052,3 9.4,3.72052176 9.4,4.59999947 L9.4,5.50624916 C9.34996,5.52653516 9.2993,5.54742915 9.25,5.56874914 L8.60624,4.92499936 C7.9838,4.30252157 6.9662,4.30252157 6.34376,4.92499936 L4.93124,6.33749889 C4.3088,6.95997668 4.3088,7.98377034 4.93124,8.60624813 L5.56876,9.24374792 C5.54638,9.2953439 5.52748,9.34757588 5.50624,9.39999787 L4.6,9.39999787 C3.72052,9.39999787 3,10.1205196 3,11.0000013 L3,13.0000027 C3,13.8794824 3.72052,14.6000021 4.6,14.6000021 L5.5125,14.6000021 C5.53274,14.6498421 5.5475,14.7009021 5.56876,14.7500021 L4.93124,15.3875019 C4.3088,16.0099817 4.3088,17.0337613 4.93124,17.6562411 L6.34376,19.0687406 C6.9662,19.6912204 7.9838,19.6912204 8.60624,19.0687406 L9.25,18.4250009 C9.2993,18.4463209 9.34996,18.4672208 9.4,18.4875008 L9.4,19.4000005 C9.4,20.2794802 10.12052,21 11,21 L13,21 C13.87948,21 14.6,20.2794802 14.6,19.4000005 L14.6,18.4875008 C14.65004,18.4672208 14.7007,18.4463209 14.75,18.4250009 L15.39376,19.0687406 C16.0162,19.6912204 17.0338,19.6912204 17.65624,19.0687406 L19.06876,17.6562411 C19.6912,17.0337613 19.6912,16.0099817 19.06876,15.3875019 L18.43124,14.7500021 C18.4525,14.7009021 18.46726,14.6498421 18.4875,14.6000021 L19.4,14.6000021 C20.27948,14.6000021 21,13.8794824 21,13.0000027 L21,11.0000013 C21,10.1205196 20.27948,9.39999787 19.4,9.39999787 L18.49376,9.39999787 C18.47254,9.34757588 18.45362,9.2953439 18.43124,9.24374792 L19.06876,8.60624813 C19.6912,7.98377034 19.6912,6.95997668 19.06876,6.33749889 L17.65624,4.92499936 C17.0338,4.30252157 16.0162,4.30252157 15.39376,4.92499936 L14.75,5.56874914 C14.7007,5.54742915 14.65004,5.52653516 14.6,5.50624916 L14.6,4.59999947 C14.6,3.72052176 13.87948,3 13,3 L11,3 Z M11,3.79999973 L13,3.79999973 C13.45012,3.79999973 13.8,4.14988562 13.8,4.59999947 L13.8,5.77499908 C13.8012226,5.94427216 13.9088556,6.09445204 14.06876,6.14999895 C14.27326,6.22231493 14.47116,6.3055249 14.66876,6.39999887 C14.8213514,6.47431564 15.0042291,6.44425291 15.125,6.32499889 L15.95624,5.49374917 C16.27394,5.17606327 16.77604,5.17606327 17.09376,5.49374917 L18.50624,6.9062487 C18.82394,7.22393459 18.82394,7.71981243 18.50624,8.03749832 L17.675,8.86874804 C17.553617,8.98806261 17.5210221,9.17111813 17.59376,9.32499789 C17.6882,9.52255583 17.77768,9.72672176 17.85,9.93124769 C17.9055503,10.0911481 18.0557295,10.1987765 18.225,10.1999976 L19.4,10.1999976 C19.85012,10.1999976 20.2,10.5498835 20.2,11.0000013 L20.2,13.0000027 C20.2,13.4501225 19.85012,13.8000024 19.4,13.8000024 L18.225,13.8000024 C18.0573431,13.8002759 17.9076429,13.905066 17.85,14.0625023 C17.77768,14.2670222 17.6882,14.4712022 17.59376,14.6687421 C17.5210173,14.8226245 17.5536125,15.0056857 17.675,15.125002 L18.50624,15.9562417 C18.82394,16.2739416 18.82394,16.7698214 18.50624,17.0875013 L17.09376,18.5000008 C16.77606,18.8176807 16.27396,18.8176807 15.95624,18.5000008 L15.125,17.6687411 C15.0042291,17.5494871 14.8213514,17.5194244 14.66876,17.5937411 C14.47116,17.6882211 14.27326,17.7714411 14.06876,17.8437411 C13.9066817,17.9000413 13.7985548,18.0534288 13.8,18.2250009 L13.8,19.4000005 C13.8,19.8501204 13.45012,20.2000003 13,20.2000003 L11,20.2000003 C10.54988,20.2000003 10.2,19.8501204 10.2,19.4000005 L10.2,18.2250009 C10.2014452,18.0534288 10.0933183,17.9000413 9.93124,17.8437411 C9.72674,17.7714411 9.52884,17.6882211 9.33124,17.5937411 C9.17864855,17.5194244 8.99577088,17.5494871 8.875,17.6687411 L8.04376,18.5000008 C7.72606,18.8176807 7.22396,18.8176807 6.90624,18.5000008 L5.49376,17.0875013 C5.17606,16.7698214 5.17606,16.2739416 5.49376,15.9562417 L6.325,15.125002 C6.44638748,15.0056857 6.47898269,14.8226245 6.40624,14.6687421 C6.3118,14.4712022 6.22232,14.2670222 6.15,14.0625023 C6.09235708,13.905066 5.94265692,13.8002759 5.775,13.8000024 L4.6,13.8000024 C4.14988,13.8000024 3.8,13.4501225 3.8,13.0000027 L3.8,11.0000013 C3.8,10.5498835 4.14988,10.1999976 4.6,10.1999976 L5.775,10.1999976 C5.94427054,10.1987765 6.09444969,10.0911481 6.15,9.93124769 C6.22232,9.72672176 6.3118,9.52255583 6.40624,9.32499789 C6.47897789,9.17111813 6.44638296,8.98806261 6.325,8.86874804 L5.49376,8.03749832 C5.17606,7.71981243 5.17606,7.22393459 5.49376,6.9062487 L6.90624,5.49374917 C7.22394,5.17606327 7.72604,5.17606327 8.04376,5.49374917 L8.875,6.32499889 C8.99577088,6.44425291 9.17864855,6.47431564 9.33124,6.39999887 C9.52884,6.3055249 9.72674,6.22231493 9.93124,6.14999895 C10.0911444,6.09445204 10.1987774,5.94427216 10.2,5.77499908 L10.2,4.59999947 C10.2,4.14988562 10.54988,3.79999973 11,3.79999973 Z M12,7.59999847 C9.57468,7.59999847 7.6,9.57466181 7.6,12.000003 C7.6,14.4253022 9.57468,16.4000015 12,16.4000015 C14.42532,16.4000015 16.4,14.4253022 16.4,12.000003 C16.4,9.57466381 14.42532,7.59999847 12,7.59999847 Z M12,8.3999982 C13.99296,8.3999982 15.6,10.0070117 15.6,12.000003 C15.6,13.9929423 13.99296,15.6000018 12,15.6000018 C10.00704,15.6000018 8.4,13.9929423 8.4,12.000003 C8.4,10.0070097 10.00704,8.3999982 12,8.3999982 Z" id="path-1"></path>
    </defs>
    <g id="Icon-/-Line-/-Setting" stroke="none" stroke-width="1" fill="none" fill-rule="evenodd">
        <mask id="mask-2" fill="white">
            <use xlink:href="#path-1"></use>
        </mask>
        <use id="Setting" fill="#0A1F44" xlink:href="#path-1"></use>
        <g id="Color-/-Black-/-Black-800" mask="url(#mask-2)" fill="#182C4F">
            <polygon id="Black-/-Black-800" points="0 0 24 0 24 24 0 24"></polygon>
        </g>
    </g>
</svg>