<?xml version="1.0" encoding="UTF-8"?>
<svg width="24px" height="24px" viewBox="0 0 24 24" version="1.1" xmlns="http://www.w3.org/2000/svg" xmlns:xlink="http://www.w3.org/1999/xlink">
    <!-- Generator: Sketch 51.3 (57544) - http://www.bohemiancoding.com/sketch -->
    <title>Icon / Line / Sorting_Decending</title>
    <desc>Created with Sketch.</desc>
    <defs>
        <path d="M12.5879265,19.7237978 C12.5879265,19.7237978 12.5879265,19.7237978 12.5879265,19.7237978 L12.5249344,19.782984 C12.5249344,19.782984 12.5249344,19.782984 12.5249344,19.782984 C12.3989501,19.9210851 12.2099738,20 12,20 C11.7900262,20 11.6010499,19.9210851 11.4540682,19.782984 C11.4540682,19.782984 11.4540682,19.782984 11.4540682,19.782984 C11.4540682,19.782984 11.4540682,19.782984 11.4540682,19.782984 C11.4540682,19.782984 11.4540682,19.782984 11.4540682,19.782984 L8.22047244,16.5869297 C7.92650919,16.2909988 7.92650919,15.8175092 8.22047244,15.5215783 C8.5144357,15.2256473 8.99737533,15.2256473 9.29133858,15.5215783 L11.2440945,17.4352651 L11.2440945,4.71023428 C11.2440945,4.31565968 11.5800525,4 12,4 C12.4199475,4 12.7559055,4.31565968 12.7559055,4.71023428 L12.7559055,17.4352651 L14.7086614,15.5215783 C15.0026247,15.2256473 15.4855643,15.2256473 15.7795276,15.5215783 C16.0734908,15.8175092 16.0734908,16.2909988 15.7795276,16.5869297 L12.5879265,19.7237978 Z" id="path-1"></path>
    </defs>
    <g id="Icon-/-Line-/-Sorting_Decending" stroke="none" stroke-width="1" fill="none" fill-rule="evenodd">
        <mask id="mask-2" fill="white">
            <use xlink:href="#path-1"></use>
        </mask>
        <use id="Sorting-Decending" fill="#0A1F44" fill-rule="nonzero" xlink:href="#path-1"></use>
        <g id="Color-/-Black-/-Black-800" mask="url(#mask-2)" fill="#182C4F">
            <polygon id="Black-/-Black-800" points="0 0 24 0 24 24 0 24"></polygon>
        </g>
    </g>
</svg>