<?xml version="1.0" encoding="UTF-8"?>
<svg width="24px" height="24px" viewBox="0 0 24 24" version="1.1" xmlns="http://www.w3.org/2000/svg" xmlns:xlink="http://www.w3.org/1999/xlink">
    <!-- Generator: Sketch 51.3 (57544) - http://www.bohemiancoding.com/sketch -->
    <title>Icon / Line / Upload</title>
    <desc>Created with Sketch.</desc>
    <defs>
        <path d="M20.193729,11.173329 C20.6371781,11.173329 21,11.5217502 21,11.9475984 L21,17.812689 C21,19.0128065 19.9720045,20 18.7021277,20 L5.29787234,20 C4.02799552,20 3,19.0128065 3,17.812689 L3,11.9475984 C3,11.5217502 3.36282195,11.173329 3.806271,11.173329 C4.24972004,11.173329 4.61254199,11.5217502 4.61254199,11.9475984 L4.61254199,17.812689 C4.61254199,18.1611102 4.93505039,18.4514612 5.29787234,18.4514612 L18.7021277,18.4514612 C19.0851064,18.4514612 19.387458,18.1804669 19.387458,17.812689 L19.387458,11.9475984 C19.387458,11.5217502 19.75028,11.173329 20.193729,11.173329 Z M8.57406866,7.11313099 L11.5115692,3.64987906 C11.5893723,3.55820296 11.686194,3.48676441 11.7951184,3.44790832 C11.8175949,3.4398133 11.8400713,3.43353966 11.8625478,3.42746839 C11.9057718,3.41734962 11.9524536,3.41127835 12.0008645,3.41127835 C12.1167047,3.41127835 12.2256291,3.44386081 12.3207218,3.50518058 C12.3414693,3.51732311 12.3604879,3.53169177 12.3795064,3.54606043 C12.3985249,3.56022672 12.4175435,3.57661913 12.436562,3.5950353 C12.4555806,3.61142772 12.4728702,3.62964151 12.4884308,3.65008144 L15.4259313,7.11333337 C15.6956489,7.43146765 15.6956489,7.94954893 15.4259313,8.26768322 C15.1544848,8.58581751 14.7170583,8.58581751 14.4473408,8.26768322 L12.6924479,6.1953581 L12.6924479,14.7902456 C12.6924479,15.2409358 12.3812354,15.6060212 12.0008645,15.6060212 C11.6187646,15.6060212 11.3092811,15.2409358 11.3092811,14.7902456 L11.3092811,6.1953581 L9.55265919,8.26768322 C9.28294166,8.58581751 8.84551515,8.58581751 8.57406866,8.26768322 C8.30435113,7.94934656 8.30435113,7.43146765 8.57406866,7.11313099 Z" id="path-1"></path>
    </defs>
    <g id="Icon-/-Line-/-Upload" stroke="none" stroke-width="1" fill="none" fill-rule="evenodd">
        <mask id="mask-2" fill="white">
            <use xlink:href="#path-1"></use>
        </mask>
        <use id="Upload" fill="#0A1F44" xlink:href="#path-1"></use>
        <g id="Color-/-Black-/-Black-800" mask="url(#mask-2)" fill="#182C4F">
            <polygon id="Black-/-Black-800" points="0 0 24 0 24 24 0 24"></polygon>
        </g>
    </g>
</svg>