<?xml version="1.0" encoding="UTF-8"?>
<svg width="24px" height="24px" viewBox="0 0 24 24" version="1.1" xmlns="http://www.w3.org/2000/svg" xmlns:xlink="http://www.w3.org/1999/xlink">
    <!-- Generator: Sketch 51.3 (57544) - http://www.bohemiancoding.com/sketch -->
    <title>Icon / Line / View Version</title>
    <desc>Created with Sketch.</desc>
    <defs>
        <path d="M19.6474882,4 L13.4008158,4 C12.6538442,4 12.048304,4.67452392 12.048304,5.50659134 L12.048304,5.72181867 L7.9270073,5.72181867 C7.18003565,5.72181867 6.57449549,6.39634259 6.57449549,7.22841001 L6.57449549,7.44363734 L4.35251181,7.44363734 C3.60554016,7.44363734 3,8.11816126 3,8.95022868 L3,15.0497713 C3,15.8818387 3.60554016,16.5563627 4.35251181,16.5563627 L6.57449549,16.5563627 L6.57449549,16.77159 C6.57449549,17.6036574 7.18003565,18.2781813 7.9270073,18.2781813 L12.048304,18.2781813 L12.048304,18.4934087 C12.048304,19.3254761 12.6538442,20 13.4008158,20 L19.6474882,20 C20.3944598,20 21,19.3254761 21,18.4934087 L21,5.50659134 C21,4.67452392 20.3944598,4 19.6474882,4 Z M4.54572778,14.834544 L4.54572778,9.16545601 L6.57449549,9.16545601 L6.57449549,14.834544 L4.54572778,14.834544 Z M8.12022327,16.5563627 L8.12022327,7.44363734 L12.048304,7.44363734 L12.048304,16.5563627 L8.12022327,16.5563627 Z M19.4562044,18.2781813 L13.5940318,18.2781813 L13.5940318,5.72181867 L19.4542722,5.72181867 L19.4562044,18.2781813 Z" id="path-1"></path>
    </defs>
    <g id="Icon-/-Line-/-View-Version" stroke="none" stroke-width="1" fill="none" fill-rule="evenodd">
        <mask id="mask-2" fill="white">
            <use xlink:href="#path-1"></use>
        </mask>
        <use id="View-Version" fill="#0A1F44" fill-rule="nonzero" xlink:href="#path-1"></use>
        <g id="Color-/-Black-/-Black-800" mask="url(#mask-2)" fill="#182C4F">
            <polygon id="Black-/-Black-800" points="0 0 24 0 24 24 0 24"></polygon>
        </g>
    </g>
</svg>