<?xml version="1.0" encoding="UTF-8"?>
<svg width="24px" height="24px" viewBox="0 0 24 24" version="1.1" xmlns="http://www.w3.org/2000/svg" xmlns:xlink="http://www.w3.org/1999/xlink">
    <!-- Generator: Sketch 51.3 (57544) - http://www.bohemiancoding.com/sketch -->
    <title>Icon / Solid / What work Best</title>
    <desc>Created with Sketch.</desc>
    <defs>
        <path d="M20.4141559,7.41954723 C20.4368305,7.17012573 20.3688065,6.94337891 20.187409,6.76198145 L16.763532,3.54217659 C16.627484,3.4061285 16.4234118,3.33810445 16.2420144,3.33810445 C16.2420144,3.33810445 16.2420144,3.33810445 16.2420144,3.33810445 L9.43960972,3.33810445 L9.43960972,4.78928411 L10.5733438,4.78928411 L10.5733438,4.47183856 L15.4710752,4.47183856 L15.4710752,8.0997877 L19.3030964,8.0997877 L19.3030964,17.3283833 L12.9315108,17.3283833 L12.9315108,18.4621174 L20.4368305,18.4621174 L20.4141559,7.41954723 Z M16.6048093,6.96605359 L16.6048093,4.94800688 L18.7589041,6.96605359 L16.6048093,6.96605359 Z M14.76816,10.5259787 L15.6751473,10.5259787 L15.6751473,12.5667001 L14.76816,12.5667001 L14.76816,10.5259787 Z M16.1286409,10.9794723 L17.0356282,10.9794723 L17.0356282,12.5667001 L16.1286409,12.5667001 L16.1286409,10.9794723 Z M17.4891219,11.5463394 L18.3961092,11.5463394 L18.3961092,12.5440254 L17.4891219,12.5440254 L17.4891219,11.5463394 Z M5.41479469,4.37675681 L7.43296535,4.37675681 L7.43296535,5.51056056 L5.41479469,5.51056056 L5.41479469,4.37675681 Z M3,9.07479903 L5.01804671,9.07479903 L5.01804671,10.2085331 L3,10.2085331 L3,9.07479903 Z M7.99922095,3 L10.0172486,3 L10.0172486,4.13372341 L7.99922095,4.13372341 L7.99922095,3 Z M3.75038233,6.46202262 L5.76849225,6.46202262 L5.76849225,7.59579224 L3.75038233,7.59579224 L3.75038233,6.46202262 Z M16.4914359,13.0655431 C15.4257258,13.0655431 14.5640879,13.927181 14.5640879,14.9928911 C14.5640879,16.0586011 15.4257258,16.920239 16.4914359,16.920239 C17.5571459,16.920239 18.4187838,16.0586011 18.4187838,14.9928911 C18.4187838,13.927181 17.5571459,13.0655431 16.4914359,13.0655431 Z M16.4914359,16.2399986 C15.8111954,16.2399986 15.2443283,15.6731315 15.2443283,14.9928911 C15.2443283,14.3126506 15.8111954,13.7457835 16.4914359,13.7457835 L16.4914359,14.9928911 L17.4437725,14.1992772 C17.62517,14.4033493 17.7385434,14.6981202 17.7385434,14.9928911 C17.7385434,15.6958062 17.1716763,16.2399986 16.4914359,16.2399986 Z M11.5256805,20.1173692 C11.3896324,20.1173692 11.2309096,20.0720199 11.1175362,19.9586464 L8.07912879,16.8975644 C7.85238197,16.6708175 7.85238197,16.3080226 8.07912879,16.1039505 C8.30587562,15.8998783 8.66867053,15.8772037 8.87274267,16.1039505 L11.9338248,19.1423579 C12.1605716,19.3691047 12.1605716,19.7318996 11.9338248,19.9359718 C11.8204513,20.0720199 11.6844033,20.1173692 11.5256805,20.1173692 Z M11.5256805,17.8952504 C11.3896324,17.8952504 11.2309096,17.849901 11.1175362,17.7365276 L10.3012476,16.920239 C10.0745008,16.6934922 10.0745008,16.3306973 10.3012476,16.1266252 C10.5279945,15.922553 10.8907894,15.8998783 11.0948615,16.1266252 L11.9111501,16.9429137 C12.1378969,17.1696605 12.1378969,17.5324555 11.9111501,17.7365276 C11.8204513,17.8272263 11.6844033,17.8952504 11.5256805,17.8952504 Z M9.25821226,20.1627186 C9.12216417,20.1627186 8.9634414,20.1173692 8.85006799,20.0039958 L8.03377943,19.1877073 C7.80703261,18.9609604 7.80703261,18.5981655 8.03377943,18.3940934 C8.26052625,18.1900212 8.62332116,18.1673466 8.8273933,18.3940934 L9.64368186,19.2103819 C9.87042868,19.4371288 9.87042868,19.7999237 9.64368186,20.0039958 C9.55298313,20.0946945 9.41693504,20.1627186 9.25821226,20.1627186 Z M10.0064768,6.62593336 C10.0745008,6.62593336 10.1425249,6.62593336 10.2105489,6.62593336 C11.7524273,6.71663209 13.0222095,8.00908897 13.0675589,9.57364203 C13.0902335,10.3899306 12.8181374,11.1608698 12.273945,11.7730862 C11.5937045,12.5213507 11.1628856,13.428338 10.9814881,14.426024 L9.00879076,14.426024 C8.8273933,13.428338 8.39657434,12.498676 7.71633388,11.7504115 C7.21749087,11.1835445 6.92272001,10.4579546 6.92272001,9.68701544 C6.92272001,8.00908897 8.30587562,6.62593336 10.0064768,6.62593336 Z M10.0064768,5.49219925 C7.6936592,5.49219925 5.81166058,7.37419787 5.81166058,9.68701544 C5.81166058,10.7754002 6.21980486,11.7504115 6.90004532,12.498676 C7.60296047,13.2922899 7.98843007,14.3126506 7.98843007,15.3783607 L7.98843007,15.4010353 C7.98843007,15.4917341 8.05645411,15.5370834 8.12447816,15.5370834 L11.8884754,15.5370834 C11.9791741,15.5370834 12.0245235,15.4690594 12.0245235,15.4010353 L12.0245235,15.3783607 C12.0245235,14.3353253 12.3873184,13.2922899 13.1129082,12.5213507 C13.8384981,11.7277368 14.2466423,10.6847015 14.201293,9.52829267 C14.1105942,7.39687255 12.4099931,5.62824735 10.278573,5.51487394 C10.1878742,5.49219925 10.0971755,5.49219925 10.0064768,5.49219925 Z" id="path-1"></path>
    </defs>
    <g id="Icon-/-Solid-/-What-work-Best" stroke="none" stroke-width="1" fill="none" fill-rule="evenodd">
        <mask id="mask-2" fill="white">
            <use xlink:href="#path-1"></use>
        </mask>
        <path stroke="#0A1F44" d="M9.93960972,3.83810445 L9.93960972,4.28928411 L10.0733438,4.28928411 L10.0733438,3.97183856 L15.9710752,3.97183856 L15.9710752,7.5997877 L19.8030964,7.5997877 L19.8030964,17.8283833 L13.4315108,17.8283833 L13.4315108,17.9621174 L19.9358028,17.9621174 L19.9141569,7.42057393 L19.9162093,7.37427936 C19.9266593,7.25932886 19.9011641,7.18284332 19.8448772,7.12622305 L16.4099787,3.89572998 C16.3791464,3.86489776 16.3076976,3.83810445 16.2420144,3.83810445 L9.93960972,3.83810445 Z M16.1048093,7.46605359 L16.1048093,3.79444476 L20.0239423,7.46605359 L16.1048093,7.46605359 Z M15.26816,11.0259787 L15.6751473,11.0259787 L15.26816,10.6189914 L15.26816,10.5259787 L15.2216537,10.572485 L15.1751473,10.5259787 L15.1751473,10.6189914 L14.76816,11.0259787 L15.1751473,11.0259787 L15.1751473,12.0667001 L14.76816,12.0667001 L15.1751473,12.4736874 L15.1751473,12.5667001 L15.2216537,12.5201937 L15.26816,12.5667001 L15.26816,12.4736874 L15.6751473,12.0667001 L15.26816,12.0667001 L15.26816,11.0259787 Z M16.6286409,11.4794723 L17.0356282,11.4794723 L16.6286409,11.072485 L16.6286409,10.9794723 L16.5821346,11.0259787 L16.5356282,10.9794723 L16.5356282,11.072485 L16.1286409,11.4794723 L16.5356282,11.4794723 L16.5356282,12.0667001 L16.1286409,12.0667001 L16.5356282,12.4736874 L16.5356282,12.5667001 L16.5821346,12.5201937 L16.6286409,12.5667001 L16.6286409,12.4736874 L17.0356282,12.0667001 L16.6286409,12.0667001 L16.6286409,11.4794723 Z M18.3937952,12.0463394 L18.3961092,12.0463394 L18.3949522,12.0451824 L18.3961092,12.0440254 L18.3937952,12.0440254 L17.9891219,11.6393521 L17.9891219,11.5463394 L17.9426155,11.5928457 L17.8961092,11.5463394 L17.8961092,11.6393521 L17.4914359,12.0440254 L17.4891219,12.0440254 L17.4902789,12.0451824 L17.4891219,12.0463394 L17.4914359,12.0463394 L17.8961092,12.4510127 L17.8961092,12.5440254 L17.9426155,12.497519 L17.9891219,12.5440254 L17.9891219,12.4510127 L18.3937952,12.0463394 Z M6.93296535,4.87675681 L7.43296535,4.87675681 L6.93296535,4.37675681 L6.93296535,4.87675681 Z M6.93296535,5.01056056 L6.93296535,5.51056056 L7.43296535,5.01056056 L6.93296535,5.01056056 Z M5.91479469,5.01056056 L5.41479469,5.01056056 L5.91479469,5.51056056 L5.91479469,5.01056056 Z M5.91479469,4.87675681 L5.91479469,4.37675681 L5.41479469,4.87675681 L5.91479469,4.87675681 Z M4.51804671,9.57479903 L5.01804671,9.57479903 L4.51804671,9.07479903 L4.51804671,9.57479903 Z M4.51804671,9.70853313 L4.51804671,10.2085331 L5.01804671,9.70853313 L4.51804671,9.70853313 Z M3.5,9.70853313 L3,9.70853313 L3.5,10.2085331 L3.5,9.70853313 Z M3.5,9.57479903 L3.5,9.07479903 L3,9.57479903 L3.5,9.57479903 Z M9.51724862,3.5 L10.0172486,3.5 L9.51724862,3 L9.51724862,3.5 Z M9.51724862,3.63372341 L9.51724862,4.13372341 L10.0172486,3.63372341 L9.51724862,3.63372341 Z M8.49922095,3.63372341 L7.99922095,3.63372341 L8.49922095,4.13372341 L8.49922095,3.63372341 Z M8.49922095,3.5 L8.49922095,3 L7.99922095,3.5 L8.49922095,3.5 Z M5.26849225,6.96202262 L5.76849225,6.96202262 L5.26849225,6.46202262 L5.26849225,6.96202262 Z M5.26849225,7.09579224 L5.26849225,7.59579224 L5.76849225,7.09579224 L5.26849225,7.09579224 Z M4.25038233,7.09579224 L3.75038233,7.09579224 L4.25038233,7.59579224 L4.25038233,7.09579224 Z M4.25038233,6.96202262 L4.25038233,6.46202262 L3.75038233,6.96202262 L4.25038233,6.96202262 Z M16.4914359,13.5655431 C15.7018682,13.5655431 15.0640879,14.2033234 15.0640879,14.9928911 C15.0640879,15.7824587 15.7018682,16.420239 16.4914359,16.420239 C17.2810035,16.420239 17.9187838,15.7824587 17.9187838,14.9928911 C17.9187838,14.2033234 17.2810035,13.5655431 16.4914359,13.5655431 Z M16.9914359,13.9253703 L17.4957277,13.5051271 L17.8174772,13.8670953 C18.0832263,14.166063 18.2385434,14.580242 18.2385434,14.9928911 C18.2385434,15.9655718 17.4543137,16.7399986 16.4914359,16.7399986 C15.535053,16.7399986 14.7443283,15.9492739 14.7443283,14.9928911 C14.7443283,14.0365082 15.535053,13.2457835 16.4914359,13.2457835 L16.9914359,13.2457835 L16.9914359,13.9253703 Z M11.5256805,19.6173692 C11.55673,19.6173692 11.5440805,19.6226398 11.5993424,19.5643247 C11.6085775,19.5560131 11.6085775,19.5242174 11.5815881,19.4972232 L8.50109559,16.4384328 C8.50026882,16.4375142 8.4549384,16.438403 8.41361116,16.4755976 C8.40437601,16.4839092 8.40437601,16.5157048 8.43399406,16.5453277 L11.4710896,19.6050931 C11.4748667,19.6088701 11.4984752,19.6173692 11.5256805,19.6173692 Z M11.5256805,17.3952504 C11.5383292,17.3952504 11.5506985,17.3898724 11.5766677,17.3648805 C11.5859029,17.3565689 11.5859029,17.3247733 11.5575967,17.2964671 L10.7232144,16.4611075 C10.7223877,16.4601889 10.6770572,16.4610777 10.63573,16.4982722 C10.6264949,16.5065839 10.6264949,16.5383795 10.654801,16.5666856 L11.4710896,17.3829742 C11.4748667,17.3867513 11.4984752,17.3952504 11.5256805,17.3952504 Z M9.25821226,19.6627186 C9.27086097,19.6627186 9.28323025,19.6573406 9.30919949,19.6323487 C9.31843464,19.6240371 9.31843464,19.5922415 9.29012847,19.5639353 L8.45574623,18.7285757 C8.45491945,18.7276571 8.40958904,18.7285459 8.3682618,18.7657405 C8.35902665,18.7740521 8.35902665,18.8058477 8.38733282,18.8341539 L9.20362138,19.6504424 C9.20739846,19.6542195 9.23100703,19.6627186 9.25821226,19.6627186 Z M10.0064768,6.12593336 C10.1085128,6.12593336 10.1085128,6.12593336 10.2399099,6.12679617 C12.0465165,6.23306715 13.5146647,7.74154912 13.5673661,9.5597585 C13.5937114,10.5081913 13.2732046,11.4015188 12.643915,12.1094226 C12.0364004,12.7776887 11.6407935,13.5949292 11.4734231,14.5154667 L11.3987763,14.926024 L8.59150258,14.926024 L8.51685581,14.5154667 C8.34766146,13.5848978 7.94778198,12.7483079 7.34097712,12.0807255 C6.75264844,11.4121701 6.42272001,10.5667285 6.42272001,9.68701544 C6.42272001,7.72886484 8.0338297,6.12593336 10.0064768,6.12593336 Z M8.47655352,15.0370834 L11.536131,15.0370834 C11.6095326,13.960701 12.0292535,12.9432026 12.7438938,12.1839661 C13.3991738,11.4672536 13.7408133,10.5458622 13.701745,9.54955003 C13.621476,7.6632264 12.1140094,6.11321037 10.1573051,5.99994519 C10.1430231,5.99637467 10.1205926,5.9938824 10.083292,5.99284627 C10.0495105,5.99221531 10.0495105,5.99221531 10.0064768,5.99219925 C7.96980157,5.99219925 6.31166058,7.65034024 6.31166058,9.68701544 C6.31166058,10.6208028 6.65239016,11.4829519 7.27433941,12.1671584 C7.98284335,12.9670822 8.40238558,13.973844 8.47655352,15.0370834 Z"></path>
        <g id="Color-/-Black-/-Black-800" mask="url(#mask-2)" fill="#182C4F">
            <polygon id="Black-/-Black-800" points="0 0 24 0 24 24 0 24"></polygon>
        </g>
    </g>
</svg>