<?xml version="1.0" encoding="UTF-8"?>
<svg width="24px" height="24px" viewBox="0 0 24 24" version="1.1" xmlns="http://www.w3.org/2000/svg" xmlns:xlink="http://www.w3.org/1999/xlink">
    <!-- Generator: Sketch 51.3 (57544) - http://www.bohemiancoding.com/sketch -->
    <title>Icon / Solid / What to Pitch</title>
    <desc>Created with Sketch.</desc>
    <defs>
        <path d="M10.6362922,16.1573756 L10.6362922,19.7146549 C10.6362922,19.8801097 10.7242734,20.0248827 10.8562451,20.128292 L11.8680283,20.852157 C11.9340141,20.8935207 12.0219953,20.852157 12.0219953,20.7901114 L12.0219953,15.7644204 C12.4179104,16.0332845 12.8798115,16.1780575 13.3417125,16.1780575 C13.6276512,16.1780575 13.8915947,16.1160119 14.1555381,16.0332845 L14.1555381,20.3764743 C14.1555381,20.5212473 14.0895522,20.6660203 13.9575805,20.7487477 L12.307934,21.9069316 C12.1319717,22.0310228 11.8900236,22.0310228 11.7360566,21.9069316 L10.0864101,20.7280658 C9.95443833,20.6453384 9.88845247,20.5005654 9.88845247,20.3557924 L9.88845247,16.0126026 C10.1084053,16.1160119 10.3723488,16.1573756 10.6362922,16.1573756 Z M18.6865672,7.80190574 C19.1044776,8.15349729 19.1044776,8.75327112 18.6865672,9.08418082 L18.4226237,9.31168124 C18.136685,9.55986351 18.0267086,9.95281878 18.1806756,10.2837285 L18.3126473,10.5939563 C18.5326002,11.069639 18.2466614,11.6073673 17.7187745,11.7521403 L17.36685,11.8348677 C16.9929301,11.938277 16.7289866,12.2485048 16.7069914,12.6207782 L16.6849961,12.9516879 C16.6630008,13.4687343 16.1571092,13.8410077 15.607227,13.7582803 L15.2553024,13.6962347 C14.8813826,13.6341892 14.4854674,13.799644 14.2875098,14.1305537 L14.1115475,14.4200997 C13.8476041,14.8751005 13.2317361,14.9991917 12.769835,14.7096457 L12.4838963,14.5028271 C12.1759623,14.2960086 11.7360566,14.2960086 11.4281225,14.5028271 L11.1641791,14.6889638 C10.7242734,14.9785098 10.0864101,14.8544187 9.8444619,14.3994179 L9.66849961,14.1098719 C9.49253731,13.7789622 9.09662215,13.6135073 8.72270228,13.6755529 L8.37077769,13.7375985 C7.82089552,13.8203259 7.33699921,13.4480525 7.31500393,12.9310061 L7.29300864,12.6000964 C7.27101335,12.227823 7.00706991,11.9175951 6.63315004,11.8141858 L6.28122545,11.7314584 C5.75333857,11.5866854 5.48939513,11.0489572 5.68735271,10.5732745 L5.81932443,10.2630466 C5.97329144,9.93213692 5.88531029,9.53918166 5.57737628,9.29099938 L5.31343284,9.06349896 C4.89552239,8.71190741 4.89552239,8.11213358 5.31343284,7.78122388 L5.57737628,7.55372346 C5.863315,7.30554119 5.97329144,6.91258592 5.81932443,6.58167622 L5.68735271,6.27144838 C5.46739984,5.79576569 5.75333857,5.25803743 6.28122545,5.11326443 L6.63315004,5.03053701 C7.00706991,4.92712773 7.27101335,4.61689989 7.29300864,4.24462647 L7.31500393,3.91371678 C7.33699921,3.39667037 7.84289081,3.02439696 8.39277298,3.10712439 L8.74469756,3.16916995 C9.11861744,3.23121552 9.5145326,3.06576067 9.71249018,2.73485097 L9.88845247,2.44530499 C10.1523959,1.99030415 10.7682639,1.86621301 11.230165,2.155759 L11.5161037,2.36257756 C11.8240377,2.56939612 12.2639434,2.56939612 12.5718775,2.36257756 L12.8578162,2.17644086 C13.2977219,1.88689487 13.9355852,2.01098601 14.1775334,2.46598684 L14.3534957,2.75553283 C14.529458,3.08644253 14.9253731,3.25189738 15.299293,3.18985181 L15.6512176,3.12780624 C16.2010998,3.04507882 16.6849961,3.41735223 16.7069914,3.93439863 L16.7289866,4.26530833 C16.7509819,4.63758174 17.0149254,4.94780958 17.3888452,5.05121887 L17.7407698,5.13394629 C18.2686567,5.27871928 18.5326002,5.81644754 18.3346426,6.29213024 L18.2026709,6.60235808 C18.0487038,6.93326778 18.136685,7.32622304 18.444619,7.57440532 L18.6865672,7.80190574 Z M16.4650432,8.42236142 C16.4650432,6.10599353 14.4634721,4.22394462 12,4.22394462 C9.53652789,4.22394462 7.53495679,6.10599353 7.53495679,8.42236142 C7.53495679,10.7594112 9.53652789,12.6207782 12,12.6207782 C14.4634721,12.6207782 16.4650432,10.7594112 16.4650432,8.42236142 Z M14.5954438,8.17417915 C14.5954438,8.17417915 14.837392,7.80190574 14.529458,7.53304161 C14.1335428,7.18145005 13.0337785,7.40895047 13.0337785,7.40895047 C12.9677926,7.42963233 12.8798115,7.42963233 12.7918303,7.45031418 C12.7918303,7.45031418 12.4179104,7.61576903 12.7918303,6.54031251 C13.1657502,5.46485599 12.5498822,5.29940114 12.2859387,5.29940114 C12.0219953,5.29940114 12.1099764,5.8371294 12.1099764,5.8371294 C12.1099764,5.8371294 11.538099,7.30554119 11.0102121,7.6778146 C10.8562451,7.82258759 10.7902592,7.98804244 10.7462687,8.09145172 C10.6582875,8.02940615 10.5483111,7.98804244 10.4383346,7.98804244 L9.71249018,7.98804244 C9.44854674,7.98804244 9.22859387,8.194861 9.22859387,8.44304328 L9.22859387,10.2630466 C9.22859387,10.5112289 9.44854674,10.7180475 9.71249018,10.7180475 L10.4383346,10.7180475 C10.5263158,10.7180475 10.6362922,10.6973656 10.7022781,10.63532 C10.7242734,10.6146382 10.8122545,10.5319108 10.8122545,10.2837285 L10.8122545,9.14622639 C10.8122545,9.14622639 10.8122545,10.5319108 11.6480754,10.63532 C11.9340141,10.6560019 12.307934,10.6766837 12.6818539,10.6560019 C13.0117832,10.6766837 13.3637078,10.6766837 13.6496465,10.63532 C14.6174391,10.4491833 14.375491,9.80804579 14.375491,9.80804579 C14.9033778,9.43577237 14.5954438,8.98077154 14.5954438,8.98077154 C15.0353496,8.54645256 14.5954438,8.17417915 14.5954438,8.17417915 Z" id="path-1"></path>
    </defs>
    <g id="Icon-/-Solid-/-What-to-Pitch" stroke="none" stroke-width="1" fill="none" fill-rule="evenodd">
        <mask id="mask-2" fill="white">
            <use xlink:href="#path-1"></use>
        </mask>
        <use id="What-to-pitch" fill="#0A1F44" xlink:href="#path-1"></use>
        <g id="Color-/-Black-/-Black-800" mask="url(#mask-2)" fill="#182C4F">
            <polygon id="Black-/-Black-800" points="0 0 24 0 24 24 0 24"></polygon>
        </g>
    </g>
</svg>