<?xml version="1.0"?>
<svg xmlns="http://www.w3.org/2000/svg" viewBox="0 0 64 64" width="512" height="512"><g id="App_development" data-name="App development"><path d="M60,35a3,3,0,0,0-3-3H47a3,3,0,0,0-3,3v1H60Zm-7,0H51a1,1,0,0,1,0-2h2a1,1,0,0,1,0,2Z"/><path d="M60,56H44v1a3,3,0,0,0,3,3H57a3,3,0,0,0,3-3Zm-7,3H51a1,1,0,0,1,0-2h2a1,1,0,0,1,0,2Z"/><path d="M60,38H44V54H60ZM48,50H47a1,1,0,0,1,0-2h1a1,1,0,0,1,0,2Zm0-4H47a1,1,0,0,1,0-2h1a1,1,0,0,1,0,2Zm0-4H47a1,1,0,0,1,0-2h1a1,1,0,0,1,0,2Zm9,8H51a1,1,0,0,1,0-2h6a1,1,0,0,1,0,2Zm0-4H51a1,1,0,0,1,0-2h6a1,1,0,0,1,0,2Zm0-4H51a1,1,0,0,1,0-2h6a1,1,0,0,1,0,2Z"/><path d="M10,50H32V36H10Zm9-12h7a1,1,0,0,1,0,2H19a1,1,0,0,1,0-2Zm0,4h7a1,1,0,0,1,0,2H19a1,1,0,0,1,0-2Zm0,4h7a1,1,0,0,1,0,2H19a1,1,0,0,1,0-2Zm-4-8h1a1,1,0,0,1,0,2H15a1,1,0,0,1,0-2Zm0,4h1a1,1,0,0,1,0,2H15a1,1,0,0,1,0-2Zm0,4h1a1,1,0,0,1,0,2H15a1,1,0,0,1,0-2Z"/><path d="M38,56H26a3,3,0,0,1-3,3H19a3,3,0,0,1-3-3H4v1a3,3,0,0,0,3,3H35a3,3,0,0,0,3-3Z"/><path d="M19,57h4a1,1,0,0,0,1-1H18A1,1,0,0,0,19,57Z"/><path d="M36,33a1,1,0,0,0-1-1H7a1,1,0,0,0-1,1V54H36ZM34,51a1,1,0,0,1-1,1H9a1,1,0,0,1-1-1V35a1,1,0,0,1,1-1H33a1,1,0,0,1,1,1Z"/><path d="M50,14H45v2h5a1,1,0,0,1,1,1V30h2V17A3,3,0,0,0,50,14Z"/><path d="M19,14H13a3,3,0,0,0-3,3V30h2V17a1,1,0,0,1,1-1h6Z"/><path d="M35.906,13.383a1,1,0,0,1,.217-1.09l1.533-1.533L36.24,9.344l-1.533,1.533A1,1,0,0,1,33,10.17V8H31v2.17a1,1,0,0,1-1.707.707L27.76,9.344,26.344,10.76l1.533,1.533A1,1,0,0,1,27.17,14H25v2h2.17a1,1,0,0,1,.707,1.707L26.344,19.24l1.416,1.416,1.533-1.533A1,1,0,0,1,31,19.83V22h2V19.83a1,1,0,0,1,1.707-.707l1.533,1.533,1.416-1.416-1.533-1.533A1,1,0,0,1,36.83,16H39V14H36.83A1,1,0,0,1,35.906,13.383ZM32,18a3,3,0,1,1,3-3A3,3,0,0,1,32,18Z"/><circle cx="32" cy="15" r="1"/><path d="M32,4A11,11,0,1,0,43,15,11.013,11.013,0,0,0,32,4Zm8,14h-.756l.533.533a1,1,0,0,1,0,1.414l-2.83,2.83a1,1,0,0,1-1.414,0L35,22.244V23a1,1,0,0,1-1,1H30a1,1,0,0,1-1-1v-.756l-.533.533a1,1,0,0,1-1.414,0l-2.83-2.83a1,1,0,0,1,0-1.414L24.756,18H24a1,1,0,0,1-1-1V13a1,1,0,0,1,1-1h.756l-.533-.533a1,1,0,0,1,0-1.414l2.83-2.83a1,1,0,0,1,1.414,0L29,7.756V7a1,1,0,0,1,1-1h4a1,1,0,0,1,1,1v.756l.533-.533a1,1,0,0,1,1.414,0l2.83,2.83a1,1,0,0,1,0,1.414L39.244,12H40a1,1,0,0,1,1,1v4A1,1,0,0,1,40,18Z"/></g></svg>
