<?xml version="1.0" encoding="utf-8"?>
<!-- Generator: Adobe Illustrator 22.1.0, SVG Export Plug-In . SVG Version: 6.00 Build 0)  -->
<svg version="1.1" id="Layer_1" xmlns="http://www.w3.org/2000/svg" xmlns:xlink="http://www.w3.org/1999/xlink" x="0px" y="0px"
	 width="59.3px" height="59.3px" viewBox="0 0 59.3 59.3" style="enable-background:new 0 0 59.3 59.3;" xml:space="preserve">
<style type="text/css">
	.st0{fill:#2F90BC;}
</style>
<g>
	<g id="XMLID_1_">
		<g>
			<path class="st0" d="M54.5,31.7c0.7,0,1.4,0.7,1.3,1.4c0,2.2-1.1,9.6-2.9,12.5c-1.9,2.8-10.2,6.7-11.6,8
				c-0.7,0.6-1.4,1.6-1.6,3.7h-8.5c0.9-7.4,3.3-10.4,5.3-12.7c1.8-2,4.1-3.9,6.6-4.9c1.5-0.6,2.9-1.2,3.8-1.2c0.5,0,1,0.2,1.2,0.8
				c0.5,1.3-5.2,4-4,4c0.1,0,0.3,0,0.5-0.1c3.1-0.6,6.9-4.1,7.8-8.5C52.8,32.5,53.7,31.7,54.5,31.7z"/>
			<path class="st0" d="M43.2,35.1c0.5,0,1,0.4,0.9,1c0,0.5-0.4,1-1,1H17c-0.5,0-1-0.4-1-1c0-0.5,0.4-1,1-1h1v-8.9h-1
				c-0.5,0-1-0.4-1-1c0-0.5,0.4-1,1-1h26.2c0.5,0,1,0.4,1,1c0,0.5-0.4,1-1,1h-1v8.9H43.2z M39.5,35.1v-8.9h-1.6v8.9H39.5z
				 M35.2,35.1v-8.9h-1.6v8.9H35.2z M30.9,35.1v-8.9h-1.6v8.9H30.9z M26.6,35.1v-8.9H25v8.9H26.6z M22.3,35.1v-8.9h-1.6v8.9H22.3z"
				/>
			<path class="st0" d="M40.6,17.2c0.5,0,1,0.4,1,1c0,0.5-0.4,1-1,1h-1c0,0,0,0,0,0v4.1h-1.9v-4.1c0,0,0,0,0,0h-0.9c0,0,0,0,0,0v4.1
				h-1.9v-4.1c0,0,0,0,0,0H34c0,0,0,0,0,0v4.1H32v-4.1c0,0,0,0,0,0h-0.9c0,0,0,0,0,0v4.1h-1.9v-4.1c0,0,0,0,0,0h-0.9c0,0,0,0,0,0
				v4.1h-1.9v-4.1c0,0,0,0,0,0h-0.9c0,0,0,0,0,0v4.1h-1.9v-4.1c0,0,0,0,0,0h-0.9c0,0,0,0,0,0v4.1h-1.9v-4.1c0,0,0,0,0,0h-1
				c-0.5,0-1-0.4-0.8-1c0-0.5,0.4-1,1-1H40.6z"/>
			<path class="st0" d="M30.3,4.8h1.4v1.1c4.1,0.7,7.3,4.1,7.6,8.3h0c0.4,0,0.8,0.4,0.8,0.8s-0.4,0.8-0.8,0.8H20.9
				c-0.4,0-0.8-0.4-0.8-0.8c0-0.4,0.4-0.8,0.8-0.8h0c0.4-4.2,3.5-7.6,7.7-8.3V4.8h1.4V2.1c0-0.1,0.1-0.2,0.2-0.2
				c0.1,0,0.2,0.1,0.2,0.2V4.8z"/>
			<path class="st0" d="M28.2,57.4h-8.5c-0.2-2-0.9-3.1-1.6-3.7c-1.4-1.3-9.8-5.2-11.6-8c-1.9-2.9-2.9-10.2-2.9-12.5
				c0-0.8,0.6-1.4,1.3-1.4c0.8,0,1.7,0.8,2.2,3c1,4.3,4.8,7.8,7.8,8.5c0.2,0,0.4,0.1,0.5,0.1c1.1,0-4.6-2.7-4-4
				c0.2-0.6,0.7-0.8,1.2-0.8c1,0,2.3,0.7,3.8,1.3c2.4,0.9,4.8,2.9,6.6,4.9C24.9,46.9,27.3,50,28.2,57.4z"/>
		</g>
		<g>
		</g>
	</g>
</g>
</svg>
