<?xml version="1.0" encoding="utf-8"?>
<!-- Generator: Adobe Illustrator 22.1.0, SVG Export Plug-In . SVG Version: 6.00 Build 0)  -->
<svg version="1.1" xmlns="http://www.w3.org/2000/svg" xmlns:xlink="http://www.w3.org/1999/xlink" x="0px" y="0px"
	 width="4968.7px" height="3534.9px" viewBox="0 0 4968.7 3534.9" style="enable-background:new 0 0 4968.7 3534.9;"
	 xml:space="preserve">
<style type="text/css">
	.st0{opacity:0.2;fill:url(#SVGID_1_);}
	.st1{opacity:0.2;fill:url(#SVGID_2_);}
	.st2{opacity:0.1;}
	.st3{clip-path:url(#SVGID_6_);fill:none;stroke:#000000;stroke-width:4;stroke-miterlimit:10;}
	.st4{clip-path:url(#SVGID_12_);fill:none;stroke:#808080;stroke-width:4;stroke-miterlimit:10;}
	.st5{opacity:0.36;}
	.st6{fill:none;stroke:#000000;stroke-width:2;stroke-miterlimit:10;}
	.st7{fill:#FFFFFF;}
	.st8{fill:none;stroke:#28BCCA;stroke-width:2;stroke-miterlimit:10;}
	.st9{fill:#28BCCA;}
	.st10{fill:none;stroke:#FFFFFF;stroke-width:2;stroke-miterlimit:10;}
	.st11{fill:none;stroke:#C9D93B;stroke-width:2;stroke-miterlimit:10;}
	.st12{fill:#C9D93B;}
	.st13{fill:none;stroke:#FF5E90;stroke-width:2;stroke-miterlimit:10;}
	.st14{fill:#FF5E90;}
	.st15{fill:none;stroke:#5097FF;stroke-width:2;stroke-miterlimit:10;}
	.st16{fill:#5097FF;stroke:#FFFFFF;stroke-width:2;stroke-miterlimit:10;}
	.st17{fill:none;stroke:#D08AC0;stroke-width:2;stroke-miterlimit:10;}
	.st18{fill:#D08AC0;}
	.st19{fill:none;stroke:#FFA72B;stroke-width:2;stroke-miterlimit:10;}
	.st20{fill:#FFA72B;}
	.st21{fill:none;stroke:#6459B5;stroke-width:2;stroke-miterlimit:10;}
	.st22{fill:#6459B5;}
	.st23{font-family:'MyriadPro-Regular';}
	.st24{font-size:80px;}
	.st25{opacity:0;}
	.st26{fill:#5097FF;}
	.st27{fill-rule:evenodd;clip-rule:evenodd;fill:#FFFFFF;}
	.st28{font-size:78px;}
	.st29{fill:#223851;}
	.st30{font-family:'Raleway';}
	.st31{font-size:90px;glyph-orientation-vertical:1;writing-mode:tb;}
	.st32{font-size:90px;}
</style>
<g id="BACKGROUND">
	<linearGradient id="SVGID_1_" gradientUnits="userSpaceOnUse" x1="-1397" y1="2197.0815" x2="-1397" y2="2106.939">
		<stop  offset="0" style="stop-color:#FFFFFF"/>
		<stop  offset="1" style="stop-color:#000000"/>
	</linearGradient>
	<rect x="-1647" y="2106.9" class="st0" width="500" height="90.1"/>
	<linearGradient id="SVGID_2_" gradientUnits="userSpaceOnUse" x1="-1397" y1="1659.7482" x2="-1397" y2="2132.322">
		<stop  offset="0" style="stop-color:#E8E8E8"/>
		<stop  offset="0.3798" style="stop-color:#E6E6E6"/>
		<stop  offset="0.5166" style="stop-color:#DFDFDF"/>
		<stop  offset="0.6141" style="stop-color:#D4D4D4"/>
		<stop  offset="0.693" style="stop-color:#C3C3C3"/>
		<stop  offset="0.7605" style="stop-color:#ADADAD"/>
		<stop  offset="0.8204" style="stop-color:#919191"/>
		<stop  offset="0.8745" style="stop-color:#717171"/>
		<stop  offset="0.9242" style="stop-color:#4B4B4B"/>
		<stop  offset="0.9684" style="stop-color:#222222"/>
		<stop  offset="1" style="stop-color:#000000"/>
	</linearGradient>
	<rect x="-1647" y="1697.1" class="st1" width="500" height="409.9"/>
</g>
<g id="OBJECTS">
	<g>
		<g class="st2">
			<g>
				<defs>
					<polygon id="SVGID_3_" points="236.3,3370.4 3257.4,3370.4 4357.2,47.3 236.3,315.4 					"/>
				</defs>
				<clipPath id="SVGID_4_">
					<use xlink:href="#SVGID_3_"  style="overflow:visible;"/>
				</clipPath>
			</g>
			<g>
				<defs>
					<polygon id="SVGID_5_" points="236.3,3370.4 3257.4,3370.4 4357.2,47.3 236.3,315.4 					"/>
				</defs>
				<clipPath id="SVGID_6_">
					<use xlink:href="#SVGID_5_"  style="overflow:visible;"/>
				</clipPath>
				<path class="st3" d="M1355.4,2873.9c631.2,106.8,985.3-544.3,797.9-886.2c-189.8-346.5,53.4-634.3,352.1-708
					c285.3-70.4,425.5-219.6,495.8-521.8c35.9-154.6,0-480.2,645.8-542"/>
			</g>
			<g>
				<defs>
					<polygon id="SVGID_7_" points="236.3,3370.4 3257.4,3370.4 4357.2,47.3 236.3,315.4 					"/>
				</defs>
				<clipPath id="SVGID_8_">
					<use xlink:href="#SVGID_7_"  style="overflow:visible;"/>
				</clipPath>
			</g>
		</g>
		<g>
			<g>
				<defs>
					<polygon id="SVGID_9_" points="241.3,3367.4 3262.4,3367.4 4362.2,44.3 241.3,312.4 					"/>
				</defs>
				<clipPath id="SVGID_10_">
					<use xlink:href="#SVGID_9_"  style="overflow:visible;"/>
				</clipPath>
			</g>
			<g>
				<defs>
					<polygon id="SVGID_11_" points="241.3,3367.4 3262.4,3367.4 4362.2,44.3 241.3,312.4 					"/>
				</defs>
				<clipPath id="SVGID_12_">
					<use xlink:href="#SVGID_11_"  style="overflow:visible;"/>
				</clipPath>
				<path class="st4" d="M1360.4,2870.9c631.2,106.8,985.3-544.3,797.9-886.2c-189.8-346.5,53.4-634.3,352.1-708
					c285.3-70.4,425.5-219.6,495.8-521.8c35.9-154.6,0-480.2,645.8-542"/>
			</g>
			<g>
				<defs>
					<polygon id="SVGID_13_" points="241.3,3367.4 3262.4,3367.4 4362.2,44.3 241.3,312.4 					"/>
				</defs>
				<clipPath id="SVGID_14_">
					<use xlink:href="#SVGID_13_"  style="overflow:visible;"/>
				</clipPath>
			</g>
		</g>
	</g>
	<g>
		<g class="st5">
			<path d="M3534,242.1c0,28.4-23,51.4-51.4,51.4c-28.4,0-51.5-23-51.5-51.4c0-28.4,23-51.5,51.5-51.5
				C3511,190.7,3534,213.7,3534,242.1z"/>
			<path class="st6" d="M3534,242.1c0,28.4-23,51.4-51.4,51.4c-28.4,0-51.5-23-51.5-51.4c0-28.4,23-51.5,51.5-51.5
				C3511,190.7,3534,213.7,3534,242.1z"/>
		</g>
		<g>
			<path class="st7" d="M3537,236.1c0,28.4-23,51.4-51.4,51.4c-28.4,0-51.5-23-51.5-51.4c0-28.4,23-51.5,51.5-51.5
				C3514,184.7,3537,207.7,3537,236.1z"/>
			<path class="st8" d="M3537,236.1c0,28.4-23,51.4-51.4,51.4c-28.4,0-51.5-23-51.5-51.4c0-28.4,23-51.5,51.5-51.5
				C3514,184.7,3537,207.7,3537,236.1z"/>
		</g>
	</g>
	<g>
		<g class="st5">
			<path d="M4555.8,117.4h-882.2c-14.8,0-26.8,12-26.8,26.8v20.5c-48.6,46.8-110.3,79.1-167.6,79.1c57.2,0,119,32.3,167.6,79.1v15.7
				c0,14.8,12,26.8,26.8,26.8h10.7h86.3h785.2c14.8,0,26.8-12,26.8-26.8V144.1C4582.6,129.3,4570.6,117.4,4555.8,117.4z"/>
			<path class="st6" d="M4555.8,117.4h-882.2c-14.8,0-26.8,12-26.8,26.8v20.5c-48.6,46.8-110.3,79.1-167.6,79.1
				c57.2,0,119,32.3,167.6,79.1v15.7c0,14.8,12,26.8,26.8,26.8h10.7h86.3h785.2c14.8,0,26.8-12,26.8-26.8V144.1
				C4582.6,129.3,4570.6,117.4,4555.8,117.4z"/>
		</g>
		<g>
			<path class="st9" d="M4558.8,111.4h-882.2c-14.8,0-26.8,12-26.8,26.8v20.5c-48.6,46.8-110.3,79.1-167.6,79.1
				c57.2,0,119,32.3,167.6,79.1v15.7c0,14.8,12,26.8,26.8,26.8h10.7h86.3h785.2c14.8,0,26.8-12,26.8-26.8V138.1
				C4585.6,123.3,4573.6,111.4,4558.8,111.4z"/>
			<path class="st10" d="M4558.8,111.4h-882.2c-14.8,0-26.8,12-26.8,26.8v20.5c-48.6,46.8-110.3,79.1-167.6,79.1
				c57.2,0,119,32.3,167.6,79.1v15.7c0,14.8,12,26.8,26.8,26.8h10.7h86.3h785.2c14.8,0,26.8-12,26.8-26.8V138.1
				C4585.6,123.3,4573.6,111.4,4558.8,111.4z"/>
		</g>
	</g>
	<path class="st9" d="M3485.6,266.2c-16.6,0-30-13.5-30-30c0-16.6,13.5-30,30-30c16.6,0,30,13.5,30,30
		C3515.6,252.7,3502.1,266.2,3485.6,266.2z"/>
	<g>
		<g class="st5">
			<path d="M2970.5,530.3c0,28.4,23,51.4,51.4,51.4c28.4,0,51.5-23,51.5-51.4c0-28.4-23-51.5-51.5-51.5
				C2993.5,478.8,2970.5,501.8,2970.5,530.3z"/>
			<path class="st6" d="M2970.5,530.3c0,28.4,23,51.4,51.4,51.4c28.4,0,51.5-23,51.5-51.4c0-28.4-23-51.5-51.5-51.5
				C2993.5,478.8,2970.5,501.8,2970.5,530.3z"/>
		</g>
		<g>
			<path class="st7" d="M2973.5,524.3c0,28.4,23,51.4,51.4,51.4c28.4,0,51.5-23,51.5-51.4c0-28.4-23-51.5-51.5-51.5
				C2996.5,472.8,2973.5,495.8,2973.5,524.3z"/>
			<path class="st11" d="M2973.5,524.3c0,28.4,23,51.4,51.4,51.4c28.4,0,51.5-23,51.5-51.4c0-28.4-23-51.5-51.5-51.5
				C2996.5,472.8,2973.5,495.8,2973.5,524.3z"/>
		</g>
	</g>
	<g>
		<g class="st5">
			<path d="M1948.7,405.5h882.2c14.8,0,26.8,12,26.8,26.8v20.5c48.6,46.8,110.3,79.1,167.6,79.1c-57.2,0-119,32.3-167.6,79.1v15.7
				c0,14.8-12,26.8-26.8,26.8h-10.7h-86.3h-785.2c-14.8,0-26.8-12-26.8-26.8V432.2C1921.9,417.5,1933.9,405.5,1948.7,405.5z"/>
			<path class="st6" d="M1948.7,405.5h882.2c14.8,0,26.8,12,26.8,26.8v20.5c48.6,46.8,110.3,79.1,167.6,79.1
				c-57.2,0-119,32.3-167.6,79.1v15.7c0,14.8-12,26.8-26.8,26.8h-10.7h-86.3h-785.2c-14.8,0-26.8-12-26.8-26.8V432.2
				C1921.9,417.5,1933.9,405.5,1948.7,405.5z"/>
		</g>
		<g>
			<path class="st12" d="M1951.7,399.5h882.2c14.8,0,26.8,12,26.8,26.8v20.5c48.6,46.8,110.3,79.1,167.6,79.1
				c-57.2,0-119,32.3-167.6,79.1v15.7c0,14.8-12,26.8-26.8,26.8h-10.7h-86.3h-785.2c-14.8,0-26.8-12-26.8-26.8V426.2
				C1924.9,411.5,1936.9,399.5,1951.7,399.5z"/>
			<path class="st10" d="M1951.7,399.5h882.2c14.8,0,26.8,12,26.8,26.8v20.5c48.6,46.8,110.3,79.1,167.6,79.1
				c-57.2,0-119,32.3-167.6,79.1v15.7c0,14.8-12,26.8-26.8,26.8h-10.7h-86.3h-785.2c-14.8,0-26.8-12-26.8-26.8V426.2
				C1924.9,411.5,1936.9,399.5,1951.7,399.5z"/>
		</g>
	</g>
	<path class="st12" d="M3024.9,554.3c16.6,0,30-13.5,30-30c0-16.6-13.5-30-30-30c-16.6,0-30,13.5-30,30
		C2994.9,540.8,3008.4,554.3,3024.9,554.3z"/>
	<g>
		
			<image style="overflow:visible;opacity:0.57;" width="118" height="118" xlink:href="234BF4DC.png"  transform="matrix(1 0 0 1 2140.5886 2043.0817)">
		</image>
		<g>
			<path class="st7" d="M2144.9,2097.1c0,28.4,23,51.4,51.4,51.4c28.4,0,51.5-23,51.5-51.4c0-28.4-23-51.5-51.5-51.5
				C2167.9,2045.6,2144.9,2068.6,2144.9,2097.1z"/>
			<path class="st13" d="M2144.9,2097.1c0,28.4,23,51.4,51.4,51.4c28.4,0,51.5-23,51.5-51.4c0-28.4-23-51.5-51.5-51.5
				C2167.9,2045.6,2144.9,2068.6,2144.9,2097.1z"/>
		</g>
	</g>
	<path class="st14" d="M2196.3,2127.1c16.6,0,30-13.5,30-30c0-16.6-13.5-30-30-30c-16.6,0-30,13.5-30,30
		C2166.3,2113.6,2179.8,2127.1,2196.3,2127.1z"/>
	<g>
		
			<image style="overflow:visible;opacity:0.57;" width="118" height="118" xlink:href="234BF4DD.png"  transform="matrix(1 0 0 1 1542.5887 2820.0815)">
		</image>
		<g>
			<path class="st7" d="M1546.7,2874c0,28.4,23,51.4,51.4,51.4c28.4,0,51.5-23,51.5-51.4c0-28.4-23-51.5-51.5-51.5
				C1569.7,2822.6,1546.7,2845.6,1546.7,2874z"/>
			<path class="st15" d="M1546.7,2874c0,28.4,23,51.4,51.4,51.4c28.4,0,51.5-23,51.5-51.4c0-28.4-23-51.5-51.5-51.5
				C1569.7,2822.6,1546.7,2845.6,1546.7,2874z"/>
		</g>
	</g>
	<path class="st16" d="M1598.2,2904.1c16.6,0,30-13.5,30-30c0-16.6-13.5-30-30-30c-16.6,0-30,13.5-30,30
		C1568.1,2890.6,1581.6,2904.1,1598.2,2904.1z"/>
	<g>
		
			<image style="overflow:visible;opacity:0.57;" width="118" height="118" xlink:href="234BF4DB.png"  transform="matrix(1 0 0 1 2350.5886 1237.0817)">
		</image>
		<g>
			<path class="st7" d="M2355.6,1290.8c0,28.4,23,51.4,51.4,51.4c28.4,0,51.5-23,51.5-51.4c0-28.4-23-51.5-51.5-51.5
				C2378.6,1239.4,2355.6,1262.4,2355.6,1290.8z"/>
			<path class="st17" d="M2355.6,1290.8c0,28.4,23,51.4,51.4,51.4c28.4,0,51.5-23,51.5-51.4c0-28.4-23-51.5-51.5-51.5
				C2378.6,1239.4,2355.6,1262.4,2355.6,1290.8z"/>
		</g>
	</g>
	<g>
		
			<image style="overflow:visible;opacity:0.57;" width="1117" height="263" xlink:href="234BF4E4.png"  transform="matrix(1 0 0 1 1302.5887 1163.0817)">
		</image>
		<g>
			<path class="st18" d="M1333.7,1166.1h882.2c14.8,0,26.8,12,26.8,26.8v20.5c48.6,46.8,110.3,79.1,167.6,79.1
				c-57.2,0-119,32.3-167.6,79.1v15.7c0,14.8-12,26.8-26.8,26.8h-10.7H2119h-785.2c-14.8,0-26.8-12-26.8-26.8v-194.4
				C1307,1178.1,1319,1166.1,1333.7,1166.1z"/>
			<path class="st10" d="M1333.7,1166.1h882.2c14.8,0,26.8,12,26.8,26.8v20.5c48.6,46.8,110.3,79.1,167.6,79.1
				c-57.2,0-119,32.3-167.6,79.1v15.7c0,14.8-12,26.8-26.8,26.8h-10.7H2119h-785.2c-14.8,0-26.8-12-26.8-26.8v-194.4
				C1307,1178.1,1319,1166.1,1333.7,1166.1z"/>
		</g>
	</g>
	<path class="st18" d="M2407,1320.9c16.6,0,30-13.5,30-30s-13.5-30.1-30-30.1c-16.6,0-30,13.5-30,30.1S2390.4,1320.9,2407,1320.9z"
		/>
	<g>
		<g class="st5">
			<path d="M2993,945c0,28.4-23,51.4-51.4,51.4c-28.4,0-51.5-23-51.5-51.4c0-28.4,23-51.5,51.5-51.5C2970,893.6,2993,916.6,2993,945
				z"/>
			<path class="st6" d="M2993,945c0,28.4-23,51.4-51.4,51.4c-28.4,0-51.5-23-51.5-51.4c0-28.4,23-51.5,51.5-51.5
				C2970,893.6,2993,916.6,2993,945z"/>
		</g>
		<g>
			<path class="st7" d="M2996,939c0,28.4-23,51.4-51.4,51.4c-28.4,0-51.5-23-51.5-51.4c0-28.4,23-51.5,51.5-51.5
				C2973,887.6,2996,910.6,2996,939z"/>
			<path class="st19" d="M2996,939c0,28.4-23,51.4-51.4,51.4c-28.4,0-51.5-23-51.5-51.4c0-28.4,23-51.5,51.5-51.5
				C2973,887.6,2996,910.6,2996,939z"/>
		</g>
	</g>
	<g>
		<g class="st5">
			<path d="M4014.8,820.3h-882.2c-14.8,0-26.8,12-26.8,26.8v20.5c-48.6,46.8-110.3,79.1-167.6,79.1c57.2,0,119,32.3,167.6,79.1v15.7
				c0,14.8,12,26.8,26.8,26.8h10.7h86.3h785.2c14.8,0,26.8-12,26.8-26.8V847C4041.6,832.2,4029.6,820.3,4014.8,820.3z"/>
			<path class="st6" d="M4014.8,820.3h-882.2c-14.8,0-26.8,12-26.8,26.8v20.5c-48.6,46.8-110.3,79.1-167.6,79.1
				c57.2,0,119,32.3,167.6,79.1v15.7c0,14.8,12,26.8,26.8,26.8h10.7h86.3h785.2c14.8,0,26.8-12,26.8-26.8V847
				C4041.6,832.2,4029.6,820.3,4014.8,820.3z"/>
		</g>
		<g>
			<path class="st20" d="M4017.8,814.3h-882.2c-14.8,0-26.8,12-26.8,26.8v20.5c-48.6,46.8-110.3,79.1-167.6,79.1
				c57.2,0,119,32.3,167.6,79.1v15.7c0,14.8,12,26.8,26.8,26.8h10.7h86.3h785.2c14.8,0,26.8-12,26.8-26.8V841
				C4044.6,826.2,4032.6,814.3,4017.8,814.3z"/>
			<path class="st10" d="M4017.8,814.3h-882.2c-14.8,0-26.8,12-26.8,26.8v20.5c-48.6,46.8-110.3,79.1-167.6,79.1
				c57.2,0,119,32.3,167.6,79.1v15.7c0,14.8,12,26.8,26.8,26.8h10.7h86.3h785.2c14.8,0,26.8-12,26.8-26.8V841
				C4044.6,826.2,4032.6,814.3,4017.8,814.3z"/>
		</g>
	</g>
	<path class="st20" d="M2944.6,969.1c-16.6,0-30-13.5-30-30c0-16.6,13.5-30,30-30c16.6,0,30,13.5,30,30
		C2974.6,955.6,2961.1,969.1,2944.6,969.1z"/>
	<g>
		
			<image style="overflow:visible;opacity:0.57;" width="118" height="118" xlink:href="234BF4E7.png"  transform="matrix(1 0 0 1 2055.5886 1625.0817)">
		</image>
		<g>
			<path class="st7" d="M2163.2,1679.5c0,28.4-23,51.4-51.4,51.4c-28.4,0-51.5-23-51.5-51.4c0-28.4,23-51.5,51.5-51.5
				C2140.2,1628,2163.2,1651.1,2163.2,1679.5z"/>
			<path class="st21" d="M2163.2,1679.5c0,28.4-23,51.4-51.4,51.4c-28.4,0-51.5-23-51.5-51.4c0-28.4,23-51.5,51.5-51.5
				C2140.2,1628,2163.2,1651.1,2163.2,1679.5z"/>
		</g>
	</g>
	<g>
		
			<image style="overflow:visible;opacity:0.57;" width="1118" height="263" xlink:href="234BF4E5.png"  transform="matrix(1 0 0 1 2104.5886 1552.0817)">
		</image>
		<g>
			<path class="st22" d="M3185,1554.7h-882.2c-14.8,0-26.8,12-26.8,26.8v20.5c-48.6,46.8-110.3,79.1-167.6,79.1
				c57.2,0,119,32.3,167.6,79.1v15.7c0,14.8,12,26.8,26.8,26.8h10.7h86.3H3185c14.8,0,26.8-12,26.8-26.8v-194.4
				C3211.8,1566.7,3199.8,1554.7,3185,1554.7z"/>
			<path class="st10" d="M3185,1554.7h-882.2c-14.8,0-26.8,12-26.8,26.8v20.5c-48.6,46.8-110.3,79.1-167.6,79.1
				c57.2,0,119,32.3,167.6,79.1v15.7c0,14.8,12,26.8,26.8,26.8h10.7h86.3H3185c14.8,0,26.8-12,26.8-26.8v-194.4
				C3211.8,1566.7,3199.8,1554.7,3185,1554.7z"/>
		</g>
	</g>
	<path class="st22" d="M2111.7,1709.5c-16.6,0-30-13.5-30-30c0-16.6,13.5-30.1,30-30.1c16.6,0,30,13.5,30,30.1
		C2141.8,1696,2128.3,1709.5,2111.7,1709.5z"/>
	<g>
		
			<image style="overflow:visible;opacity:0.57;" width="118" height="118" xlink:href="234BF4EB.png"  transform="matrix(1 0 0 1 2047.5887 2497.0815)">
		</image>
		<g>
			<path class="st7" d="M2155,2550.7c0,28.4-23,51.4-51.4,51.4c-28.4,0-51.5-23-51.5-51.4c0-28.4,23-51.5,51.5-51.5
				C2132,2499.3,2155,2522.3,2155,2550.7z"/>
			<path class="st21" d="M2155,2550.7c0,28.4-23,51.4-51.4,51.4c-28.4,0-51.5-23-51.5-51.4c0-28.4,23-51.5,51.5-51.5
				C2132,2499.3,2155,2522.3,2155,2550.7z"/>
		</g>
	</g>
	<path class="st22" d="M2103.6,2580.8c-16.6,0-30-13.5-30-30s13.5-30.1,30-30.1c16.6,0,30,13.5,30,30.1S2120.2,2580.8,2103.6,2580.8
		z"/>
	<g>
		
			<image style="overflow:visible;opacity:0.57;" width="414" height="100" xlink:href="234BF4EC.png"  transform="matrix(1 0 0 1 1740 2836.0815)">
		</image>
		<g>
			<text transform="matrix(1 0 0 1 1743.3807 2904.0894)" class="st23 st24">Std. Reports</text>
		</g>
	</g>
	<g>
		
			<image style="overflow:visible;opacity:0.57;" width="530" height="100" xlink:href="234BF4EF.png"  transform="matrix(1 0 0 1 1489 2502.0815)">
		</image>
		<g>
			<text transform="matrix(1 0 0 1 1492.8544 2570.3892)" class="st23 st24">Ad Hoc Reports</text>
		</g>
	</g>
	<g>
		
			<image style="overflow:visible;opacity:0.57;" width="562" height="100" xlink:href="19FA642B.png"  transform="matrix(1 0 0 1 2289 2042.0817)">
		</image>
		<g>
			<text transform="matrix(1 0 0 1 2292.8279 2110.8237)" class="st23 st24">Query Drilldown</text>
		</g>
	</g>
	<g>
		
			<image style="overflow:visible;opacity:0.57;" width="205" height="99" xlink:href="19FA6429.png"  transform="matrix(1 0 0 1 1804 1625.0817)">
		</image>
		<g>
			<text transform="matrix(1 0 0 1 1807.6239 1693.0607)" class="st23 st24">Alerts</text>
		</g>
	</g>
	<g>
		<g class="st25">
			<path d="M2829,1269.1c0-0.3,0-0.7,0-1c0-1.7,0-3.3,0-5c0-4.7,0-9.3,0-14h-1c0-0.3,0-0.7,0-1c0-0.7,0-1.3,0-2
				c-1.1-1.2-1-2.7-1.5-4c-0.6-1.4-1.7-2.6-2.5-4h-1c-2.1-1.4-3.7-2.9-6-4h-4c0-0.3,0-0.7,0-1h-8c0,0.3,0,0.7,0,1h-5c-2,1-5,1.8-6,4
				h-2c-1-1.7-2.4-2.9-4-4h-5c0-0.3,0-0.7,0-1h-8c0,0.3,0,0.7,0,1h-5c-2.4,1.2-5,2.2-7,4h-1c-3,2-4.4,4.9-6,8h-1c0,0.7,0,1.3,0,2
				c0,0.3,0,0.7,0,1h-1c0-0.3,0-0.7,0-1c0-0.3,0-0.7,0-1c0-0.3,0-0.7,0-1c0-1.6,0.2-3.4,0-5c-0.2-1.9-1.2-3.2-1-5
				c0.3-3,2.5-5.2,2-8.5c-0.5-3.6-2.7-6.3-6-8.5h-6c-3.5,1.8-6.5,4.2-7,8c-0.5,3.6,2.1,5.8,2,9h-1c0-0.3,0-0.7,0-1h-2
				c0-0.3,0-0.7,0-1h-6c0-3.9,0.2-6.8-2-10h-9c-4.8,2.4-6,4.8-6,10h-2c0,0.3,0,0.7,0,1h-6c-1.3-0.7-2.7-1.3-4-2h-8
				c-1.3,0.7-2.7,1.3-4,2h-3c0,0.3,0,0.7,0,1h-1c-3,2.1-6.6,6.2-6,10h-1c0-1.7,0-3.3,0-5c0.5-2.2-1.2-2.9-1-5c0.3-3,2.5-5.2,2-8.5
				c-0.5-3.6-2.7-6.3-6-8.5h-6c-3.5,1.8-6.5,4.2-7,8c-0.5,3.6,2.1,5.8,2,9h-1c-0.7-0.7-1.3-1.3-2-2h-6c0-3.9,0.2-6.8-2-10h-9
				c-4.8,2.4-6,4.8-6,10h-2c-0.7,0.7-1.3,1.3-2,2h-1c-0.3,1.8-1.3,3-1,5h-1c0.2-1.8-1.2-2.5-2-4h-2c-0.9-1.7-2.4-2.2-4-3h-4
				c0-0.3,0-0.7,0-1h-8c0,0.3,0,0.7,0,1h-5c-1.8,0.9-3.4,1.7-5,3h-2c-0.6-1.3-1.8-2.3-3-3h-6c0-3.9,0.2-6.8-2-10h-9
				c-4.8,2.4-6,4.8-6,10h-2c-1.2,0.7-2.4,1.7-3,3c-1,1.1-1.2,2.6-1,4c0,1.8-0.4,3.6,1,5c0,0.3,0,0.7,0,1h1c0.7,0.7,1.3,1.3,2,2h2
				c0,6.7,0,13.3,0,20c-1,4,2.9,7.4,3,11h2c1,2.2,4.9,2.9,7,4h8c2-1,5-1.8,6-4h2c0.3,0.7,0.7,1.3,1,2h3c1,0.7,2,1.3,3,2h7
				c1.3-0.7,2.7-1.3,4-2h4c0,0.3,0,0.7,0,1h9c0-0.3,0-0.7,0-1h2c0.3-0.7,0.7-1.3,1-2c0-3.7,0-7.3,0-11c0-0.3,0-0.7,0-1
				c0-1.7,0-3.3,0-5c0-4.7,0-9.3,0-14c0-0.3,0-0.7,0-1h1c0,0.3,0,0.7,0,1h2c0,6.7,0,13.3,0,20c0,0.7,0,1.3,0,2
				c1.4,1.5,0.6,2.8,1,4.5c0.5,1.8,2,2.4,2,4.5h2c0,0.3,0,0.7,0,1h1c2,1,4,2,6,3h8c1.8-0.9,3.4-1.7,5-3h2c0.7,0.7,1.3,1.3,2,2h9
				c0.7-0.7,1.3-1.3,2-2h1c0-0.3,0-0.7,0-1h2c2.4,2.2,6,2.9,9,4h10c2.4-0.9,6.9-1.5,8-4h2c1.6-2.8,4.6-5.6,4-9h1
				c2.6,2.8,0.6,8.2,5,10h1c2,1,4,2,6,3h8c1.8-0.9,3.4-1.7,5-3h2c0.7,0.7,1.3,1.3,2,2h9c0.7-0.7,1.3-1.3,2-2h1c0.5-3.3,1-6.3,1-10
				c0-0.7,0-1.3,0-2h1c-0.6,2.5,3.8,9.1,6,10h1c2.1,1.4,3.7,2.9,6,4h5c0,0.3,0,0.7,0,1h9c0-0.3,0-0.7,0-1h5c2.1-1.1,3.8-1.9,5-4h1
				c1.2,0.7,2.4,1.7,3,3h3c1,0.7,2,1.3,3,2h7c1.3-0.7,2.7-1.3,4-2h4c0,0.3,0,0.7,0,1h9c0-0.3,0-0.7,0-1h2c0.8-0.8,1.2-1.8,1-3
				C2829,1275.7,2829,1272.4,2829,1269.1z M2596.5,1255.1c-1.7,2-4,5.1-3.5,8h-1c0,1.7,0,3.3,0,5c0,0.3,0,0.7,0,1h-4
				c-3.1-3.2-1-15.6-1-20h6c0.7-0.7,1.3-1.3,2-2h1c0,0.3,0,0.7,0,1h1c0,0.3,0,0.7,0,1h1C2603.3,1251.7,2599.1,1252.1,2596.5,1255.1z
				 M2610,1248.1h1c0,0.3,0,0.7,0,1h-1C2610,1248.7,2610,1248.4,2610,1248.1z M2613,1268.1h-4c-0.4-2.7,3-4,5-5h1
				C2615.6,1265.4,2614,1266.3,2613,1268.1z M2660,1253.1c0,5.3,0,10.7,0,16h-7c-3.1-3.2-1-15.6-1-20h6c0-0.3,0-0.7,0-1h2
				C2660,1249.7,2660,1251.4,2660,1253.1z M2693,1269.1h-2c-1-0.7-2-1.3-3-2h-8c-0.3,0.7-0.7,1.3-1,2h-1c0,0.7,0,1.3,0,2h-1
				c0-0.7,0-1.3,0-2c0-5.3,0-10.7,0-16h1c-1,3.9,4,8,7,10h1C2687.5,1264.5,2696,1266.5,2693,1269.1z M2712,1263.1h-1
				c1.2-4.8-4.4-6.6-6-10h-2c-2.1-1.8-5.7-2.4-7-5h1c1.3,0.7,2.7,1.3,4,2h4c0.7-0.7,1.3-1.3,2-2h3c0,0.3,0,0.7,0,1h2
				C2712,1253.7,2712,1258.4,2712,1263.1z M2737,1249.1c0,6.7,0,13.3,0,20h-7c-1.5-1.5-1-4-1-6c0-4.7,0-9.3,0-14h6c0-0.3,0-0.7,0-1
				h2C2737,1248.4,2737,1248.7,2737,1249.1z M2793.5,1255.1c-1.7,2-4,5.1-3.5,8h-1c0,1.7,0,3.3,0,5h-8c0,0.3,0,0.7,0,1h-5
				c-2.3-4.1-5.6-5.2-6-10c-0.4-5,2.8-6,5-10h1c0-0.3,0-0.7,0-1h5c0,0.3,0,0.7,0,1h9c0-0.3,0-0.7,0-1h1c0.3-0.7,0.7-1.3,1-2h1
				c0,0.7,0,1.3,0,2h1c0,0.3,0,0.7,0,1h1C2800.3,1251.7,2796.1,1252.1,2793.5,1255.1z M2807,1248.1h1c0,0.3,0,0.7,0,1h-1
				C2807,1248.7,2807,1248.4,2807,1248.1z M2810,1268.1h-4c-0.4-2.7,3-4,5-5h1C2812.6,1265.4,2811,1266.3,2810,1268.1z M2996,1268.1
				c0-1.7,0-3.3,0-5c0-1.7,0-3.3,0-5c0-3,0-6,0-9h-1c0-0.3,0-0.7,0-1c0.5-2.7-1.5-6.1-3-8c-2.1-2.6-4.8-4.4-8-6h-4c0-0.3,0-0.7,0-1
				h-8c0,0.3,0,0.7,0,1h-5c-3.1,1.6-6.3,2.7-7.5,6c-1.2,3.2,1,4.9,0.5,8h1c0,0.3,0,0.7,0,1h1c7.3,3.7-3.6,3.9-3,9h-1
				c0-3.3,0-6.7,0-10h-1c0.6-2.6-1.3-5-2.5-7c-1.4-2.3-4.3-3.6-5.5-6h-3c-1-0.7-2-1.3-3-2h-7c-1.3,0.7-2.7,1.3-4,2h-5
				c0-0.3,0-0.7,0-1h-8c0,0.3,0,0.7,0,1h-2c-2,4.4-2,7.8-2,13c0,7.3,0,14.7,0,22h-1c0.2-1.4,0-2.9-1-4c-0.3-2.4-1.2-5.2-2-7.5
				c-0.4-1.3-1.6-2.7-2-4c-0.4-1.5,0.3-2.2-1-3.5c0-0.7,0-1.3,0-2h-1c0.6-2.4-1.3-5.4-2-7.5c-0.8-2.5-1.5-5.1-2.5-7.5
				c-2.1-4.9-2.5-11.7-7.5-15h-11c-5.5,3.6-5.3,9.8-7.5,15c-1,2.4-1.7,5-2.5,7.5c-0.7,2.1-2.6,5-2,7.5h-1c0,0.7,0,1.3,0,2
				c-1.2,1.3-0.6,2.1-1,3.5c-0.4,1.2-1.6,2.8-2,4c-0.8,2.3-1.8,5.1-2,7.5c-1.6,1.7-2.7,6.4-3,8.5c-0.5,3.7-0.1,6.4,3,8.5h9
				c3.3-2.2,4.9-5.2,6-8.5c0.8-2.3,2.4-6,2-8.5h12c1,1.1,1.2,2.6,1,4h1c-0.9,3.8,2.9,7.3,3,11h1c0.7,0.7,1.3,1.3,2,2h10
				c0.7-0.7,1.3-1.3,2-2h2c0.7,0.7,1.3,1.3,2,2h9c0.7-0.7,1.3-1.3,2-2h1c0.5-3.5,1-7,1-11c0-3.7,0-7.3,0-11c0-1.6-0.4-3.9,0-5.5
				c0.6-2.2,2.8-3.4,4-5.5h2c1.1,2,2.5,2.8,3,5c0.3,1.5,0,3.4,0,5c0,1.7,0,3.3,0,5c0,1.7,0,3.3,0,5c0,3,0,6,0,9
				c-0.1,2.5,1.9,4.6,4,6h9c2-1.4,4.2-3.5,4-6h1c0.6,1,1,2.1,1.5,2.8c0.8,1,1.8,0.8,2.5,2.3h3c1,0.7,2,1.3,3,2h7
				c1.3-0.7,2.7-1.3,4-2h4c0,0.3,0,0.7,0,1h9c0-0.3,0-0.7,0-1h2c1.3-1.5,1-3.2,1-5C2996,1274.1,2996,1271.1,2996,1268.1z
				 M2890,1251.1h-2c0.3-0.7,0.7-1.3,1-2h1C2890,1249.7,2890,1250.4,2890,1251.1z M2974,1248.1h1c0,0.3,0,0.7,0,1h-1
				C2974,1248.7,2974,1248.4,2974,1248.1z M2977,1268.1h-4c-0.4-2.7,3-4,5-5h1C2979.6,1265.4,2978,1266.3,2977,1268.1z M3137,1260.6
				c-0.6-1.3-2-3.5-3-4.5c-0.8-0.8-2.4-1.6-3-3h-2c-2.1-1.8-5.7-2.4-7-5h1c1.3,0.7,2.7,1.3,4,2h4c0.7-0.7,1.3-1.3,2-2h1
				c0.3-0.7,0.7-1.3,1-2c1.5-1.5,1.7-7.4,0.5-9c-1.6-2.2-7-3.1-9.5-4h-8c-3.2,1.2-6.8,2.1-9.5,4.3c-2.3,1.9-5.1,5.6-4.5,8.8h-1
				c0-0.3,0-0.7,0-1c0-2.3,0-4.7,0-7h-1c0-0.3,0-0.7,0-1c-0.6-3.3,2.2-5.6,2-9c-0.2-3.8-2.7-6.7-6-9h-6c-4,2-6.4,4.4-7,8.5
				c-0.5,3.7,2.7,6,2,9.5h-2c-2.4-2.2-6-2.9-9-4h-8c-2.4,0.9-6.9,1.5-8,4h-2c0,0.3,0,0.7,0,1h-1c0.2-2.1-1.4-2.9-3-4h-10
				c-1.5,1-3.3,2-3,4h-1c0.4,1.8-0.7,5.6-2,7c0.2,1.2-0.2,2.2-1,3c0,1.7-1,2.3-1,4h-1c-0.8-0.8-1.2-1.8-1-3c-2.2-4.9-3.4-9.3-6-14
				h-2c0-0.3,0-0.7,0-1h-10c0,0.3,0,0.7,0,1h-1c0-6.6,1.9-15-4-19h-9c-5.9,4-4,12.4-4,19c0,4.7,0,9.3,0,14c0,5.7,0,11.3,0,17
				c0,6.2-1.6,13.2,4,17h9c5.6-3.8,4-10.7,4-17c0-5.7,0-11.3,0-17h1c0,1,0,2,0,3h1c0,0.7,0,1.3,0,2h1c-0.5,2.4,1.2,4.1,2,6
				c0.8,1.9,1.2,4.1,2,6c1.5,3.6,4.8,8.4,3,12c-2.2,4.5-9.8,6-11,10.5c-0.4,1.5,0.4,4.8,1,6c1.1,2.2,2.8,4,5,5.5h5
				c4.7-2.3,9.4-5.3,12-9.5c1.3-2,3-3.9,4-6c0.9-1.9,1.2-4.1,2-6c3.6-8.1,6.1-16.4,10-24.5h1c0,1.7,1,2.3,1,4h1
				c1.6,2.8,4.7,4.8,7.5,6.3c1.6,0.8,8.6,2.1,5.5,4.8h-2c-1-0.7-2-1.3-3-2h-8c-0.3,0.7-0.7,1.3-1,2h-1c0,0.7,0,1.3,0,2h-1
				c0.5,2.2-1.2,2.9-1,5c0.7,5.5,6.2,6.2,11,8h10c3.3-1.2,12.4-3.4,12-8h1c-0.2,1.4,0,2.9,1,4c0.6,1.3,1.8,2.3,3,3h9
				c1.2-0.7,2.4-1.7,3-3h2c2.4,2.2,6,2.9,9,4h10c2.4-0.9,6.9-1.5,8-4h2c0.8-1.5,2.2-2.2,2-4h1c0.3-1.8,1.3-3,1-5h1c0-0.7,0-1.3,0-2
				C3138,1266.1,3138.1,1263.1,3137,1260.6z M3086,1246.1c0,0.7,0,1.3,0,2c0,1.7,0,3.3,0,5c0,1.7,0,3.3,0,5h-1c-0.7-1.6-1.3-3.1-3-4
				h-1c-0.7-0.7-1.3-1.3-2-2h-2c-1.6-1.4-4.1-2-5-4h1c1.3,0.7,2.7,1.3,4,2h4c0.7-0.7,1.3-1.3,2-2h1c0.8-0.8,1.2-1.8,1-3h1
				C3086,1245.4,3086,1245.7,3086,1246.1z M3119,1269.1h-2c-1-0.7-2-1.3-3-2h-8c-0.3,0.7-0.7,1.3-1,2h-1c0,0.7,0,1.3,0,2h-1
				c0-0.7,0-1.3,0-2c0-3.7,0-7.3,0-11c0-1.7,0-3.3,0-5h1c-1,4.2,4,7.5,7,9.5C3112.8,1263.8,3121.8,1266.8,3119,1269.1z M2562,1247.6
				c-3.1-2.6-7.4-4.2-11-6c-1.6-0.8-4.8-1.7-5.5-3.5c-0.9-2.2,1.4-3,2.5-5h5c0.7,0.7,1.3,1.3,2,2h8c0.3-0.7,0.7-1.3,1-2h1
				c0.3-2.5,1.4-4.5,1-7.5c-0.5-3.5-2.8-4.9-6-6.5h-5c0-0.3,0-0.7,0-1h-10c0,0.3,0,0.7,0,1h-4c-5.4,2.7-13,7.3-12,14h-1
				c0,8.3,1,15.8,8,20.5c5.3,3.6,22.8,8.3,12,15.5h-5c-1.8-0.9-3.4-1.7-5-3h-8c-0.8,0.8-1.2,1.8-1,3h-1c0,3.1-1.5,5.2-0.5,8
				c1.2,3.3,4.4,4.4,7.5,6h5c0,0.3,0,0.7,0,1h10c0-0.3,0-0.7,0-1h5c3-1.5,6.7-3,9-5.5c1.7-1.8,4.3-5.8,4-8.5
				C2572.9,1263.7,2566.1,1251,2562,1247.6z M2847,1249.6c0-5.7,0-11.3,0-17c0-6.2,1.5-12.7-4-16.5h-9c-5.6,3.8-4,10.8-4,17
				c0,5.5,0,11,0,16.5c0,5.7,0,11.3,0,17c0,6.2-1.5,12.7,4,16.5h9c5.6-3.8,4-10.8,4-17C2847,1260.6,2847,1255.1,2847,1249.6z"/>
			<text transform="matrix(1 0 0 1 2525.2468 1273.2942)" class="st23 st24">Statistical Analysis</text>
		</g>
		<g>
			
				<image style="overflow:visible;opacity:0.57;" width="620" height="100" xlink:href="19FA642F.png"  transform="matrix(1 0 0 1 2526 1274.0817)">
			</image>
			<g>
				<text transform="matrix(1 0 0 1 2529.2468 1342.2942)" class="st23 st24">Statistical Analysis</text>
			</g>
		</g>
	</g>
	<g>
		<g class="st25">
			<path d="M2829,931.1c0-6.7,0-13.3,0-20c0-0.3,0-0.7,0-1c0-4.8,0-7.9-2-12h-2c0-0.3,0-0.7,0-1h-8c0,0.3,0,0.7,0,1h-4
				c-1.3-0.7-2.7-1.3-4-2h-7c-1.3,0.7-2.7,1.3-4,2h-3c-1.2,2.4-4.3,3.3-6,5.5c-1.5,2-2.8,4.2-4,6.5h-1c-0.4-2.9-1.4-4.1-3-6.5
				c-1.2-1.9-4-3.4-5-5.5h-3c-1-0.7-2-1.3-3-2h-7c-1.3,0.7-2.7,1.3-4,2h-5c0-0.3,0-0.7,0-1h-8c0,0.3,0,0.7,0,1h-2
				c-2.3,3.8-2,7.4-2,12c0,0.3,0,0.7,0,1c0,5.8,0,11.7,0,17.5c0,6.3-1.7,13.7,4,17.5h9c5.7-3.8,4-11.1,4-17.5c0-3,0-6,0-9
				c0-1.6-0.2-3.2,0.5-4.5c0.8-1.5,2.6-2.5,3.5-4h2c1.2,2.1,2.5,2.7,3,5c0.3,1.5,0,3.5,0,5c0,3.3,0,6.7,0,10c0,1,0,2,0,3
				c0,5.1-0.6,8.9,4,12h9c4.6-3,4-6.9,4-12h1c-0.3,2.6,3.5,6.2,5.5,7.8c2.5,2,5.6,2.8,8.5,4.3h9c-0.7,0.7-1.3,1.3-2,2h-6
				c-1-0.7-2-1.3-3-2h-8c-0.3,0.7-0.7,1.3-1,2h-1c0.1,2.6-1.6,4.9-1,8c0.7,3.5,3.9,4.5,7,6h5c0,0.3,0,0.7,0,1h10c0-0.3,0-0.7,0-1h5
				c5.3-2.6,14-7.2,13-14h1c0-0.7,0-1.3,0-2c-0.4-2.1,0.8-3.9,1-6c0.2-2,0-4,0-6C2829,933.1,2829,932.1,2829,931.1z M2812,926.6
				c-0.6,1.6-3.1,2.9-4,4.5h-3c-7.6-5.2-6.2-15.2,1-20h1c4.4,2.9,5,5,5,10C2812,922.6,2812.5,925.2,2812,926.6z M2721,913.1
				c0-0.7,0-1.3,0-2c0-5.3,0-10.7,0-16c0-6.1,1.4-12.3-4-16h-9c-5.4,3.7-4,9.9-4,16c0,5.3,0,10.7,0,16h-1c0.8-3.2-3-8.2-5-10
				c-2.9-2.7-7.3-3.6-11-5h-6c-3.9,1.4-7.7,2.5-11,5c-3.8,2.8-4.5,6.4-7,10c0,0.7,0,1.3,0,2h-1c0-0.7,0-1.3,0-2s0-1.3,0-2
				c0-4,0-8,0-12c0-6.5,1.7-14.1-4-18h-9c-5.8,3.8-4,11.6-4,18h-3c0-0.3,0-0.7,0-1h-7c0,0.3,0,0.7,0,1h-4c-5.2,2.6-11.5,5.9-12,12
				h-1c-3.1-5.6-7-9-13-12h-5c0-0.3,0-0.7,0-1h-8c0,0.3,0,0.7,0,1h-4c-2.7,1.3-5.7,2.6-8,4.5c-1.9,1.5-5.2,5-5,7.5h-1
				c0,0.7,0,1.3,0,2c0,0.3,0,0.7,0,1h-1c0-2.5,0-5,0-7.5c0-2.9-1-4.6-1-7.5c0-5.8,1.3-11.5-4-15h-11c-6,3.9-5.7,9.6-8.5,15
				c-1.2,2.2-1.7,5.1-2.5,7.5c-0.4,1.3-1.6,2.7-2,4c-0.4,1.5,0.3,2.2-1,3.5c0,0.3,0,0.7,0,1h-1c-0.6-5.2-3.4-10.6-5-15.5
				c-0.9-2.7-2.1-5.3-3-8c-1.1-3.2-1.7-5.3-5-7.5h-11c-5,3.3-5,9.9-5,15.5c0,5.6-1,9.9-1,15.5c0,1.5,0.2,3.1,0,4.5
				c-0.2,1.6-1.4,2.5-1,4.5c0,1,0,2,0,3c0,3.8-0.5,7.2-1,10.5c-0.7,4.5,0.3,8,4,10.5h9c4.2-2.8,4-5.8,4-10.5c0-4,1-6.8,1-10.5h1
				c0,3.1,2.1,7.1,3,10c1.3,3.9,2.1,7.4,6,10h8c3.6-2.4,4.9-6.3,6-10c0.6-1.9,1.4-3.7,2-5.5c0.5-1.5,1.3-2.7,1-4.5h1c0-1,0-2,0-3h1
				c0,1.6-0.2,3.4,0,5c0.2,1.9,1.2,3.2,1,5c0,0.7,0,1.3,0,2s0,1.3,0,2c0,4.5,0,7.3,4,10h9c4-2.7,4-5.5,4-10h1c3.3,6.7,9.2,8.5,16,11
				h8c7.2-2.7,11.7-4.8,16-11h1c0-0.7,0-1.3,0-2h1c1.2,2,2.1,4.2,3.5,6c1.6,2,4.4,2.7,5.5,5h3c1.3,0.7,2.7,1.3,4,2h7
				c1.3-0.7,2.7-1.3,4-2h5c0,0.3,0,0.7,0,1h8c0-0.3,0-0.7,0-1h2c0.9-2.1,1.7-3.2,2-5.5c0.3-1.8,0-3.7,0-5.5c0-0.7,0-1.3,0-2h1
				c-0.5,2.3,2.6,7,4,8.5c2.3,2.5,6,4,9,5.5h5c0,0.3,0,0.7,0,1h10c0-0.3,0-0.7,0-1h5c3.4-1.7,5.7-2.1,6-6c0.1-1.4,0.2-3.1,0-4.5
				c-0.2-1.4-1.1-1.9-1-3.5h-1c-0.7-0.7-1.3-1.3-2-2h-4c-1.3,0.7-2.7,1.3-4,2h-6c-1.6-1.1-3-2.3-4-4h21c0.7-0.7,1.3-1.3,2-2h1
				c0,6.7-2,16,4,20h9c6.1-4.1,4-13.2,4-20C2721,921.7,2721,917.4,2721,913.1z M2597,932.1h-2c-3-2.1-6.6-6.2-6-10c0-3.6,1.2-6,3-9
				h1c0-0.3,0-0.7,0-1h2c0-0.3,0-0.7,0-1h2C2604.9,916.4,2604.9,926.8,2597,932.1z M2644,928.1c-1,1.7-2.4,2.9-4,4h-1
				c-8.1-5.4-8.1-15.6,0-21h1c0.7,0.7,1.3,1.3,2,2h1c2,4.4,2,7.8,2,13C2644.7,926.7,2644.3,927.4,2644,928.1z M2681,913.1
				c0.7-0.7,1.3-1.3,2-2h1c0.7,0.7,1.3,1.3,2,2H2681z M2735,882.1h-6c-3.4,1.7-5.7,3.5-6.5,7c-0.3,1.4-0.8,2.8-0.5,4.5
				c0.2,1.1,1.8,2.9,2,4c0.4,2.8-1,5-1,8c0,2.7,0,5.3,0,8c0,5.5,0,11,0,16.5c0,6.1-1.4,12.3,4,16h9c5.4-3.7,4-9.9,4-16
				c0-5.3,0-10.7,0-16c0-2.8,0-5.7,0-8.5c0-3-1.4-5.2-1-8c0.2-1.1,1.8-2.9,2-4c0.2-1.1,0.2-2.9,0-4
				C2740.5,886.6,2737.6,883.9,2735,882.1z M2843,817.1c0-0.7,0-1.3,0-2h-1c0.6-3.4-2.4-6.2-4-9c-4-2.7-7.4-4.3-12-6h-6
				c-4.6,1.7-8,3.3-12,6h-2c0.6-2.5-1.1-3.7-3-5h-10c-2.4,1.6-2.5,2.9-4,5c0.1,1.4-0.6,3.2-1,4.5c-0.3,1-1.1,3.6-2,4.5
				c-0.3,0.7-0.7,1.3-1,2c0,1.7-1,2.3-1,4h-1c-0.3-1.8-1.3-3-1-5h-1c0-0.7,0-1.3,0-2c-1.1-1.2-1.6-3.7-2-5c-0.5-1.6-1.3-3.2-1-5h-1
				c-0.3-0.7-0.7-1.3-1-2h-2c0-0.3,0-0.7,0-1h-10c0,0.3,0,0.7,0,1h-2c1.6-1.6,2.3-5.7,2-8c-0.5-3.3-3-6-6-8h-6
				c-3.2,1.6-6.4,4.1-7,7.5c-0.4,2.5,0.3,6.8,2,8.5c0,0.7,0,1.3,0,2h-1c-0.6-1.3-1.8-2.3-3-3h-6c0-3.9,0.2-6.8-2-10h-9
				c-4.8,2.4-6,4.8-6,10h-9c0-0.3,0-0.7,0-1h-8c0,0.3,0,0.7,0,1h-5c-1.8,0.9-3.4,1.7-5,3h-2c-0.9,1.7-3,3.2-4,4.5
				c-1.5,2-2.8,3.3-4,5.5c0,0.3,0,0.7,0,1s0,0.7,0,1h-1c0-2.5,0-5,0-7.5c0-3-1.3-4.7-0.5-7.5c0.7-2.5,2-4.5,1.5-7.5
				c-0.5-2.9-3.3-5.7-6-7.5h-6c-6.4,3.2-8.1,8.2-6,14.5c1.1,3.3,0,4.4,0,8c0,2.5,0,5,0,7.5c0,6.7,0,13.3,0,20c0,5.6-1.1,10.6,4,14h9
				c5.1-3.4,4-8.4,4-14h1c0,0.3,0,0.7,0,1c-0.2,1.5,2.1,4.6,3,6h1c-0.4,2.6,6.8,5.9,9,7h5c0,0.3,0,0.7,0,1h9c0-0.3,0-0.7,0-1h5
				c3.2-1.6,5.8-3.4,6-7h1c0,1.7,1,2.3,1,4h2c1,2.2,4.9,2.9,7,4h8c2-1,5-1.8,6-4h1c0.6,1.3,1.8,2.3,3,3h9c1.2-0.7,2.4-1.7,3-3
				c1-1.1,1.2-2.6,1-4c0-2,0-4,0-6c0-7,0-14,0-21h1c-0.5,2.2,1.2,2.9,1,5c0.8,1.7,2.2,3,2,5c4.6,7.6,3.9,18.6,12,24h9
				c4.2-2.8,5.7-7.7,7-12c0.4-1.3,0.6-2.3,1-3.5c0.2-0.7,0.7-2.4,1-3c0.9-1.8,2.6-3.1,2-5.5h1c0,2,0,4,0,6h1c0,1.3,0,2.7,0,4h1
				c-0.5,2.3,2.6,7,4,8.5c2.3,2.5,6,4,9,5.5h5c0,0.3,0,0.7,0,1h10c0-0.3,0-0.7,0-1h5c3.4-1.7,5.7-2.1,6-6c0.1-1.4,0.2-3.1,0-4.5
				c-0.2-1.4-1.1-1.9-1-3.5h-1c-0.7-0.7-1.3-1.3-2-2h-4c-1.3,0.7-2.7,1.3-4,2h-6c-1.6-1.1-3-2.3-4-4h21c2-1.4,4.2-3.5,4-6
				c0-1.7,0-3.3,0-5C2844,819.4,2843,818.8,2843,817.1z M2720,836.1c0,0.3,0,0.7,0,1h-1c0-0.3,0-0.7,0-1h-1c0-0.3,0-0.7,0-1h-9
				c0,0.3,0,0.7,0,1h-5c-2.3-4.1-5.6-5.2-6-10c-0.4-5,2.8-6,5-10h1c0-0.3,0-0.7,0-1h5c0,0.3,0,0.7,0,1h11
				C2720,822.7,2720,829.4,2720,836.1z M2746,816.1c0,7,0,14,0,21h-1c0-0.3,0-0.7,0-1h-7c-3.1-3.2-1-15.6-1-20h6c0-0.3,0-0.7,0-1h2
				c0-0.3,0-0.7,0-1h1C2746,814.7,2746,815.4,2746,816.1z M2820,817.1c0.7-0.7,1.3-1.3,2-2h1c0.7,0.7,1.3,1.3,2,2H2820z M2511,829.1
				c0,6.9-2.2,16.9,4,21h9c6.2-4.2,4-14.1,4-21h7c3.9-1.5,8-2.6,11.5-5c1.8-1.2,3.4-2.5,4.5-4.5c0.9-1.7,0.5-3.9,2-5.5
				c0-0.7,0-1.3,0-2h1c0,0.3,0,0.7,0,1c0,0.7,0,1.3,0,2s0,1.3,0,2c0,5.5,0,11,0,16.5c0,6.1-1.5,12.8,4,16.5h9c5.5-3.7,4-10.4,4-16.5
				c0-2.8,0-5.7,0-8.5c0-3.7,1.3-5,3-8h4c0,2.9-1,4.6-1,7.5c0,2.5,0,5,0,7.5h1c0,1.3,0,2.7,0,4h1c-0.5,2.3,2.6,7,4,8.5
				c2.3,2.5,6,4,9,5.5h5c0,0.3,0,0.7,0,1h10c0-0.3,0-0.7,0-1h5c3.4-1.7,5.7-2.1,6-6c0.1-1.4,0.2-3.1,0-4.5c-0.2-1.4-1.1-1.9-1-3.5
				h-1c-0.7-0.7-1.3-1.3-2-2h-4c-1.3,0.7-2.7,1.3-4,2h-6c-1.6-1.1-3-2.3-4-4h22c0,1.3,0,2.7,0,4h1c-1.5,6.1,6.9,8.7,9,13h3
				c1.3,0.7,2.7,1.3,4,2h7c1.3-0.7,2.7-1.3,4-2h5c0,0.3,0,0.7,0,1h8c0-0.3,0-0.7,0-1h2c2-4.4,2-7.8,2-13c0-7,0-14,0-21
				c0-0.7,0-1.3,0-2c0-4,0-8,0-12c0-6.5,1.7-14.1-4-18h-9c-5.8,3.8-4,11.6-4,18h-3c0-0.3,0-0.7,0-1h-7c0,0.3,0,0.7,0,1h-4
				c-5.2,2.6-11.5,5.9-12,12h-1c0-0.3,0-0.7,0-1h-1c-0.3-1.9-0.9-3.4-2-5h-1c0.6-3.6-9.2-6-12-7h-6c-3.9,1.5-11,2.9-13,7h-1
				c0-0.7,0-1.3,0-2c-0.8-0.8-1.2-1.8-1-3h-1c-0.7-0.7-1.3-1.3-2-2h-7c-1,0.7-2,1.3-3,2h-3c0-0.3,0-0.7,0-1h-8c0,0.3,0,0.7,0,1h-2
				c-0.8,0.8-1.2,1.8-1,3h-1c0.2-1.4,0-2.9-1-4c-0.8-7.3-6.5-10.8-13-14h-5c0-0.3,0-0.7,0-1h-14c0,0.3,0,0.7,0,1h-6
				c-5.1,3.4-4,8.4-4,14c0,4.3,0,8.7,0,13C2511,819.1,2511,824.1,2511,829.1z M2634,824.6c0.4-3.1,1.4-4.7,3-7.5h1
				c0.7-0.7,1.3-1.3,2-2h1c7.1,4.8,7.1,16.2,0,21h-1c-1.6-1.1-3-2.3-4-4h-1C2634.7,829.5,2633.6,827.5,2634,824.6z M2599,815.1h1
				c0.7,0.7,1.3,1.3,2,2h-5C2597.7,816.4,2598.3,815.7,2599,815.1z M2528,801.1h4c1.6,1.1,3,2.3,4,4h1c0,0.7,0,1.3,0,2
				c-0.3,1.9-0.9,3.4-2,5h-1c-0.7,0.7-1.3,1.3-2,2h-4C2528,809.7,2528,805.4,2528,801.1z"/>
			<text transform="matrix(1 0 0 1 2507.0154 839.9825)"><tspan x="0" y="0" class="st23 st24">Predictive</tspan><tspan x="0" y="96" class="st23 st24">Modeling</tspan></text>
		</g>
		<g>
			
				<image style="overflow:visible;opacity:0.57;" width="345" height="196" xlink:href="19FA642A.png"  transform="matrix(1 0 0 1 2508 840.0817)">
			</image>
			<g>
				<text transform="matrix(1 0 0 1 2511.0154 908.9825)"><tspan x="0" y="0" class="st23 st24">Predictive</tspan><tspan x="0" y="96" class="st23 st24">Modeling</tspan></text>
			</g>
		</g>
	</g>
	<g>
		
			<image style="overflow:visible;opacity:0.57;" width="451" height="100" xlink:href="19FA6435.png"  transform="matrix(1 0 0 1 2911 167.0817)">
		</image>
		<g>
			<text transform="matrix(1 0 0 1 2914.5164 235.3118)" class="st23 st24">Optimization</text>
		</g>
	</g>
	<g>
		
			<image style="overflow:visible;opacity:0.57;" width="402" height="100" xlink:href="19FA6436.png"  transform="matrix(1 0 0 1 3128 471.0817)">
		</image>
		<g>
			<text transform="matrix(1 0 0 1 3131.449 539.9049)" class="st23 st24">Forecasting</text>
		</g>
	</g>
	<g>
		
			<image style="overflow:visible;opacity:0.57;" width="1117" height="263" xlink:href="19FA6437.png"  transform="matrix(1 0 0 1 493.5887 2742.0815)">
		</image>
		<g>
			<path class="st26" d="M524.9,2744.8h882.2c14.8,0,26.8,12,26.8,26.8v20.5c48.6,46.8,110.3,79.1,167.6,79.1
				c-57.2,0-119,32.3-167.6,79.1v15.7c0,14.8-12,26.8-26.8,26.8h-10.7h-86.3H524.9c-14.8,0-26.8-12-26.8-26.8v-194.4
				C498.1,2756.7,510.1,2744.8,524.9,2744.8z"/>
			<path class="st10" d="M524.9,2744.8h882.2c14.8,0,26.8,12,26.8,26.8v20.5c48.6,46.8,110.3,79.1,167.6,79.1
				c-57.2,0-119,32.3-167.6,79.1v15.7c0,14.8-12,26.8-26.8,26.8h-10.7h-86.3H524.9c-14.8,0-26.8-12-26.8-26.8v-194.4
				C498.1,2756.7,510.1,2744.8,524.9,2744.8z"/>
		</g>
	</g>
	<g>
		
			<image style="overflow:visible;opacity:0.57;" width="146" height="145" xlink:href="19FA6439.png"  transform="matrix(1 0 0 1 1241.5887 2799.0815)">
		</image>
		<g>
			<g>
				<path class="st27" d="M1365.4,2800.7h-90.9c-6.9,0-12.4,5.5-12.4,12.4v8.3h-4.1c-6.8,0-12.4,5.5-12.4,12.4v82.6
					c0,9.1,7.4,16.5,16.5,16.5h99.2c9.1,0,16.5-7.4,16.5-16.5v-103.3C1377.8,2806.2,1372.2,2800.7,1365.4,2800.7L1365.4,2800.7z
					 M1369.5,2916.4c0,4.6-3.7,8.3-8.3,8.3h-99.2c-4.6,0-8.2-3.7-8.2-8.3v-82.6c0-2.3,1.8-4.1,4.1-4.1h4.1v82.6
					c0,2.3,1.9,4.1,4.1,4.1c2.3,0,4.1-1.8,4.1-4.1v-99.2c0-2.3,1.9-4.1,4.1-4.1h90.9c2.3,0,4.1,1.8,4.1,4.1V2916.4z M1369.5,2916.4"
					/>
				<path class="st27" d="M1326.1,2854.4h33.1c1.1,0,2.1-0.9,2.1-2.1c0-1.2-0.9-2.1-2.1-2.1h-33.1c-1.1,0-2.1,0.9-2.1,2.1
					C1324.1,2853.5,1325,2854.4,1326.1,2854.4L1326.1,2854.4z M1326.1,2854.4"/>
				<path class="st27" d="M1326.1,2842h33.1c1.1,0,2.1-0.9,2.1-2.1c0-1.1-0.9-2.1-2.1-2.1h-33.1c-1.1,0-2.1,0.9-2.1,2.1
					C1324.1,2841.1,1325,2842,1326.1,2842L1326.1,2842z M1326.1,2842"/>
				<path class="st27" d="M1326.1,2829.6h33.1c1.1,0,2.1-0.9,2.1-2.1c0-1.1-0.9-2.1-2.1-2.1h-33.1c-1.1,0-2.1,0.9-2.1,2.1
					C1324.1,2828.7,1325,2829.6,1326.1,2829.6L1326.1,2829.6z M1326.1,2829.6"/>
				<path class="st27" d="M1313.7,2912.2h-33c-1.2,0-2.1,0.9-2.1,2.1c0,1.2,0.9,2.1,2.1,2.1h33c1.2,0,2.1-0.9,2.1-2.1
					C1315.8,2913.2,1314.9,2912.2,1313.7,2912.2L1313.7,2912.2z M1313.7,2912.2"/>
				<path class="st27" d="M1313.7,2899.9h-33c-1.2,0-2.1,0.9-2.1,2.1c0,1.1,0.9,2.1,2.1,2.1h33c1.2,0,2.1-0.9,2.1-2.1
					C1315.8,2900.8,1314.9,2899.9,1313.7,2899.9L1313.7,2899.9z M1313.7,2899.9"/>
				<path class="st27" d="M1313.7,2887.5h-33c-1.2,0-2.1,0.9-2.1,2.1c0,1.2,0.9,2.1,2.1,2.1h33c1.2,0,2.1-0.9,2.1-2.1
					C1315.8,2888.4,1314.9,2887.5,1313.7,2887.5L1313.7,2887.5z M1313.7,2887.5"/>
				<path class="st27" d="M1359.2,2912.2h-33c-1.2,0-2.1,0.9-2.1,2.1c0,1.2,0.9,2.1,2.1,2.1h33c1.1,0,2.1-0.9,2.1-2.1
					C1361.2,2913.2,1360.3,2912.2,1359.2,2912.2L1359.2,2912.2z M1359.2,2912.2"/>
				<path class="st27" d="M1359.2,2899.9h-33c-1.2,0-2.1,0.9-2.1,2.1c0,1.1,0.9,2.1,2.1,2.1h33c1.1,0,2.1-0.9,2.1-2.1
					C1361.2,2900.8,1360.3,2899.9,1359.2,2899.9L1359.2,2899.9z M1359.2,2899.9"/>
				<path class="st27" d="M1359.2,2887.5h-33c-1.2,0-2.1,0.9-2.1,2.1c0,1.2,0.9,2.1,2.1,2.1h33c1.1,0,2.1-0.9,2.1-2.1
					C1361.2,2888.4,1360.3,2887.5,1359.2,2887.5L1359.2,2887.5z M1359.2,2887.5"/>
				<path class="st27" d="M1359.2,2862.7h-78.5c-1.2,0-2.1,0.9-2.1,2.1c0,1.2,0.9,2.1,2.1,2.1h78.5c1.1,0,2.1-0.9,2.1-2.1
					C1361.2,2863.6,1360.3,2862.7,1359.2,2862.7L1359.2,2862.7z M1359.2,2862.7"/>
				<path class="st27" d="M1359.2,2875.1h-78.5c-1.2,0-2.1,0.9-2.1,2.1c0,1.1,0.9,2.1,2.1,2.1h78.5c1.1,0,2.1-0.9,2.1-2.1
					C1361.2,2876,1360.3,2875.1,1359.2,2875.1L1359.2,2875.1z M1359.2,2875.1"/>
				<path class="st27" d="M1282.7,2854.4h28.9c2.3,0,4.1-1.8,4.1-4.1v-28.9c0-2.3-1.9-4.1-4.1-4.1h-28.9c-2.3,0-4.1,1.9-4.1,4.1
					v28.9C1278.6,2852.5,1280.5,2854.4,1282.7,2854.4L1282.7,2854.4z M1286.9,2825.5h20.7v20.7h-20.7V2825.5z M1286.9,2825.5"/>
			</g>
		</g>
	</g>
	<g>
		
			<image style="overflow:visible;opacity:0.57;" width="583" height="100" xlink:href="19FA643B.png"  transform="matrix(1 0 0 1 587 2824.0815)">
		</image>
		<g>
			<text transform="matrix(1 0 0 1 590.4217 2892.605)" class="st7 st23 st24">What happened?</text>
		</g>
	</g>
	<g>
		
			<image style="overflow:visible;opacity:0.57;" width="1118" height="263" xlink:href="19FA643E.png"  transform="matrix(1 0 0 1 2096.5886 2425.0815)">
		</image>
		<g>
			<path class="st22" d="M3176.9,2427.4h-882.2c-14.8,0-26.8,12-26.8,26.8v20.5c-48.6,46.8-110.3,79.1-167.6,79.1
				c57.2,0,119,32.3,167.6,79.1v15.7c0,14.8,12,26.8,26.8,26.8h10.7h86.3h785.2c14.8,0,26.8-12,26.8-26.8v-194.4
				C3203.6,2439.3,3191.6,2427.4,3176.9,2427.4z"/>
			<path class="st10" d="M3176.9,2427.4h-882.2c-14.8,0-26.8,12-26.8,26.8v20.5c-48.6,46.8-110.3,79.1-167.6,79.1
				c57.2,0,119,32.3,167.6,79.1v15.7c0,14.8,12,26.8,26.8,26.8h10.7h86.3h785.2c14.8,0,26.8-12,26.8-26.8v-194.4
				C3203.6,2439.3,3191.6,2427.4,3176.9,2427.4z"/>
		</g>
	</g>
	<g>
		
			<image style="overflow:visible;opacity:0.57;" width="779" height="191" xlink:href="19FA6452.png"  transform="matrix(1 0 0 1 2433 2465.0815)">
		</image>
		<g>
			<text transform="matrix(1 0 0 1 2436.8132 2531.5737)"><tspan x="0" y="0" class="st7 st23 st28"> How many, how often, </tspan><tspan x="265" y="93.6" class="st7 st23 st28">where?</tspan></text>
		</g>
	</g>
	<g>
		
			<image style="overflow:visible;opacity:0.57;" width="596" height="196" xlink:href="19FA6451.png"  transform="matrix(1 0 0 1 2515 1591.0817)">
		</image>
		<g>
			<text transform="matrix(1 0 0 1 2518.4304 1659.3219)"><tspan x="0" y="0" class="st7 st23 st24">What Actions are </tspan><tspan x="147.7" y="96" class="st7 st23 st24">needed?</tspan></text>
		</g>
	</g>
	<g>
		
			<image style="overflow:visible;opacity:0.57;" width="680" height="196" xlink:href="19FA645E.png"  transform="matrix(1 0 0 1 3308 853.0817)">
		</image>
		<g>
			<text transform="matrix(1 0 0 1 3311.6296 921.8551)"><tspan x="0" y="0" class="st7 st23 st24">What if these trends</tspan><tspan x="168.2" y="96" class="st7 st23 st24">continue?</tspan></text>
		</g>
	</g>
	<g>
		
			<image style="overflow:visible;opacity:0.57;" width="592" height="196" xlink:href="19FA6450.png"  transform="matrix(1 0 0 1 3894 141.0817)">
		</image>
		<g>
			<text transform="matrix(1 0 0 1 3929.9421 209.5656)"><tspan x="0" y="0" class="st7 st23 st24">What’s the best</tspan><tspan x="-32.8" y="96" class="st7 st23 st24">that can happen?</tspan></text>
		</g>
	</g>
	<g>
		
			<image style="overflow:visible;opacity:0.57;" width="469" height="196" xlink:href="19FA6453.png"  transform="matrix(1 0 0 1 2084 428.0817)">
		</image>
		<g>
			<text transform="matrix(1 0 0 1 2152.2771 496.6145)"><tspan x="0" y="0" class="st7 st23 st24">What will </tspan><tspan x="-64.8" y="96" class="st7 st23 st24">happen next?</tspan></text>
		</g>
	</g>
	<g>
		
			<image style="overflow:visible;opacity:0.57;" width="412" height="196" xlink:href="19FA6457.png"  transform="matrix(1 0 0 1 1511 1202.0817)">
		</image>
		<g>
			<text transform="matrix(1 0 0 1 1533.3834 1270.795)"><tspan x="0" y="0" class="st7 st23 st24">Why is the </tspan><tspan x="-18.4" y="96" class="st7 st23 st24">happening?</tspan></text>
		</g>
	</g>
	<g>
		<g class="st5">
			<path d="M2366.8,2589.6c-1.1,0-2,0.9-2,2c0,1.1,0.9,2,2,2h12.3c1.1,0,2-0.9,2-2c0-1.1-0.9-2-2-2H2366.8z M2366.8,2589.6"/>
			<path d="M2342.2,2565h-8.2c-1.1,0-2,0.9-2,2v12.3c0,1.1,0.9,2,2,2c1.1,0,2-0.9,2-2v-10.2h4.1v10.2c0,1.1,0.9,2,2,2h8.2
				c1.1,0,2-0.9,2-2v-26.6h4.1v26.6c0,1.1,0.9,2,2,2h8.2c1.1,0,2-0.9,2-2v-18.4h4.1v18.4c0,1.1,0.9,2,2,2h8.2c1.1,0,2-0.9,2-2v-43h2
				c1.1,0,2-0.9,2-2c0-1.1-0.9-2-2-2h-4.1c-1.1,0-2,0.9-2,2v43h-4.1v-18.4c0-1.1-0.9-2-2-2h-8.2c-1.1,0-2,0.9-2,2v18.4h-4.1v-26.6
				c0-1.1-0.9-2-2-2h-8.2c-1.1,0-2,0.9-2,2v26.6h-4.1v-10.2C2344.3,2565.9,2343.3,2565,2342.2,2565L2342.2,2565z M2342.2,2565"/>
			<path d="M2395.4,2515.9h-71.6c-1.1,0-2,0.9-2,2c0,1.1,0.9,2,2,2h71.6c3.4,0,6.1,2.8,6.1,6.1v92.1h-81.9v-92.1
				c0-5.6-4.6-10.2-10.2-10.2s-10.2,4.6-10.2,10.2v69.6c0,3.4-2.8,6.1-6.1,6.1s-6.1-2.8-6.1-6.1v-92.1h81.9v6.1c0,1.1,0.9,2,2,2
				c1.1,0,2-0.9,2-2v-8.2c0-1.1-0.9-2-2-2h-86c-1.1,0-2,0.9-2,2v94.2c0,5.6,4.6,10.2,10.2,10.2c5.6,0,10.2-4.6,10.2-10.2v-69.6
				c0-3.4,2.8-6.1,6.1-6.1c3.4,0,6.1,2.8,6.1,6.1v75.7h-10.2c-1.1,0-2,0.9-2,2c0,1.1,0.9,2,2,2h10.2v14.3c0,1.1,0.9,2,2,2h86
				c1.1,0,2-0.9,2-2v-94.2C2405.7,2520.5,2401.1,2515.9,2395.4,2515.9L2395.4,2515.9z M2395.4,2515.9"/>
			<path d="M2334,2593.7h24.6c1.1,0,2-0.9,2-2c0-1.1-0.9-2-2-2H2334c-1.1,0-2,0.9-2,2C2332,2592.8,2332.9,2593.7,2334,2593.7
				L2334,2593.7z M2334,2593.7"/>
			<path d="M2334,2606h53.2c1.1,0,2-0.9,2-2c0-1.1-0.9-2-2-2H2334c-1.1,0-2,0.9-2,2C2332,2605,2332.9,2606,2334,2606L2334,2606z
				 M2334,2606"/>
		</g>
		<g>
			<g>
				<path class="st7" d="M2369.8,2583.6c-1.1,0-2,0.9-2,2c0,1.1,0.9,2,2,2h12.3c1.1,0,2-0.9,2-2c0-1.1-0.9-2-2-2H2369.8z
					 M2369.8,2583.6"/>
				<path class="st7" d="M2345.2,2559h-8.2c-1.1,0-2,0.9-2,2v12.3c0,1.1,0.9,2,2,2c1.1,0,2-0.9,2-2v-10.2h4.1v10.2c0,1.1,0.9,2,2,2
					h8.2c1.1,0,2-0.9,2-2v-26.6h4.1v26.6c0,1.1,0.9,2,2,2h8.2c1.1,0,2-0.9,2-2v-18.4h4.1v18.4c0,1.1,0.9,2,2,2h8.2c1.1,0,2-0.9,2-2
					v-43h2c1.1,0,2-0.9,2-2c0-1.1-0.9-2-2-2h-4.1c-1.1,0-2,0.9-2,2v43h-4.1v-18.4c0-1.1-0.9-2-2-2h-8.2c-1.1,0-2,0.9-2,2v18.4h-4.1
					v-26.6c0-1.1-0.9-2-2-2h-8.2c-1.1,0-2,0.9-2,2v26.6h-4.1v-10.2C2347.3,2559.9,2346.3,2559,2345.2,2559L2345.2,2559z
					 M2345.2,2559"/>
				<path class="st7" d="M2398.4,2509.9h-71.6c-1.1,0-2,0.9-2,2c0,1.1,0.9,2,2,2h71.6c3.4,0,6.1,2.8,6.1,6.1v92.1h-81.9v-92.1
					c0-5.6-4.6-10.2-10.2-10.2s-10.2,4.6-10.2,10.2v69.6c0,3.4-2.8,6.1-6.1,6.1s-6.1-2.8-6.1-6.1v-92.1h81.9v6.1c0,1.1,0.9,2,2,2
					c1.1,0,2-0.9,2-2v-8.2c0-1.1-0.9-2-2-2h-86c-1.1,0-2,0.9-2,2v94.2c0,5.6,4.6,10.2,10.2,10.2c5.6,0,10.2-4.6,10.2-10.2v-69.6
					c0-3.4,2.8-6.1,6.1-6.1c3.4,0,6.1,2.8,6.1,6.1v75.7h-10.2c-1.1,0-2,0.9-2,2c0,1.1,0.9,2,2,2h10.2v14.3c0,1.1,0.9,2,2,2h86
					c1.1,0,2-0.9,2-2v-94.2C2408.7,2514.5,2404.1,2509.9,2398.4,2509.9L2398.4,2509.9z M2398.4,2509.9"/>
				<path class="st7" d="M2337,2587.7h24.6c1.1,0,2-0.9,2-2c0-1.1-0.9-2-2-2H2337c-1.1,0-2,0.9-2,2
					C2335,2586.8,2335.9,2587.7,2337,2587.7L2337,2587.7z M2337,2587.7"/>
				<path class="st7" d="M2337,2600h53.2c1.1,0,2-0.9,2-2c0-1.1-0.9-2-2-2H2337c-1.1,0-2,0.9-2,2C2335,2599,2335.9,2600,2337,2600
					L2337,2600z M2337,2600"/>
			</g>
		</g>
	</g>
	<g>
		
			<image style="overflow:visible;opacity:0.57;" width="1117" height="263" xlink:href="19FA6456.png"  transform="matrix(1 0 0 1 1091.5887 1965.0817)">
		</image>
		<g>
			<path class="st14" d="M1123.1,1967.5h882.2c14.8,0,26.8,12,26.8,26.8v20.5c48.6,46.8,110.3,79.1,167.6,79.1
				c-57.2,0-119,32.3-167.6,79.1v15.7c0,14.8-12,26.8-26.8,26.8h-10.7h-86.3h-785.2c-14.8,0-26.8-12-26.8-26.8v-194.4
				C1096.3,1979.5,1108.3,1967.5,1123.1,1967.5z"/>
			<path class="st10" d="M1123.1,1967.5h882.2c14.8,0,26.8,12,26.8,26.8v20.5c48.6,46.8,110.3,79.1,167.6,79.1
				c-57.2,0-119,32.3-167.6,79.1v15.7c0,14.8-12,26.8-26.8,26.8h-10.7h-86.3h-785.2c-14.8,0-26.8-12-26.8-26.8v-194.4
				C1096.3,1979.5,1108.3,1967.5,1123.1,1967.5z"/>
		</g>
	</g>
	<g>
		
			<image style="overflow:visible;opacity:0.57;" width="695" height="196" xlink:href="19FA646D.png"  transform="matrix(1 0 0 1 1172 2006.0817)">
		</image>
		<g>
			<text transform="matrix(1 0 0 1 1175.6395 2074.8882)"><tspan x="0" y="0" class="st7 st23 st24">Where exactly is the </tspan><tspan x="181.4" y="96" class="st7 st23 st24">problem?</tspan></text>
		</g>
	</g>
	<g>
		<g class="st5">
			<path d="M1969,2098.5h59.8c-2.2-32-27.8-57.6-59.8-59.8V2098.5z M1969,2098.5"/>
			<path d="M2012.1,2146.6c9.6-10.5,15.9-24.1,16.9-39.2h-56.1L2012.1,2146.6z M2012.1,2146.6"/>
			<path d="M1960.2,2101.1v-62.4c-33.5,2.3-60,30.2-60,64.2c0,16.2,6,31,15.8,42.3L1960.2,2101.1z M1960.2,2101.1"/>
			<path d="M1963.3,2110.6l-41,41c11.3,9.9,26.1,15.8,42.3,15.8c15.5,0,29.8-5.5,40.9-14.7L1963.3,2110.6z M1963.3,2110.6"/>
		</g>
		<g>
			<g>
				<path class="st7" d="M1972,2092.5h59.8c-2.2-32-27.8-57.6-59.8-59.8V2092.5z M1972,2092.5"/>
				<path class="st7" d="M2015.1,2140.6c9.6-10.5,15.9-24.1,16.9-39.2h-56.1L2015.1,2140.6z M2015.1,2140.6"/>
				<path class="st7" d="M1963.2,2095.1v-62.4c-33.5,2.3-60,30.2-60,64.2c0,16.2,6,31,15.8,42.3L1963.2,2095.1z M1963.2,2095.1"/>
				<path class="st7" d="M1966.3,2104.6l-41,41c11.3,9.9,26.1,15.8,42.3,15.8c15.5,0,29.8-5.5,40.9-14.7L1966.3,2104.6z
					 M1966.3,2104.6"/>
			</g>
		</g>
	</g>
	<g>
		<g class="st5">
			<path d="M2439.4,1720.7l-60.8-100.9c-1.5-2.5-4.3-4.1-7.3-4.1s-5.7,1.6-7.3,4.1l-60.8,100.9c-1.6,2.6-1.6,5.9-0.1,8.6
				c1.5,2.7,4.3,4.3,7.4,4.3h121.7c3.1,0,5.9-1.7,7.4-4.3C2441,1726.6,2441,1723.3,2439.4,1720.7z M2371.4,1650.6
				c3.5,0,6.5,2,6.5,5.5c0,10.7-1.3,26-1.3,36.6c0,2.8-3,3.9-5.2,3.9c-2.9,0-5.3-1.2-5.3-3.9c0-10.7-1.3-26-1.3-36.6
				C2364.8,1652.6,2367.7,1650.6,2371.4,1650.6z M2371.4,1716.6c-3.9,0-6.9-3.2-6.9-6.9c0-3.8,3-6.9,6.9-6.9c3.7,0,6.8,3.1,6.8,6.9
				C2378.3,1713.4,2375.1,1716.6,2371.4,1716.6z"/>
		</g>
		<g>
			<path class="st7" d="M2442.4,1714.7l-60.8-100.9c-1.5-2.5-4.3-4.1-7.3-4.1s-5.7,1.6-7.3,4.1l-60.8,100.9
				c-1.6,2.6-1.6,5.9-0.1,8.6c1.5,2.7,4.3,4.3,7.4,4.3h121.7c3.1,0,5.9-1.7,7.4-4.3C2444,1720.6,2444,1717.3,2442.4,1714.7z
				 M2374.4,1644.6c3.5,0,6.5,2,6.5,5.5c0,10.7-1.3,26-1.3,36.6c0,2.8-3,3.9-5.2,3.9c-2.9,0-5.3-1.2-5.3-3.9c0-10.7-1.3-26-1.3-36.6
				C2367.8,1646.6,2370.7,1644.6,2374.4,1644.6z M2374.4,1710.6c-3.9,0-6.9-3.2-6.9-6.9c0-3.8,3-6.9,6.9-6.9c3.7,0,6.8,3.1,6.8,6.9
				C2381.3,1707.4,2378.1,1710.6,2374.4,1710.6z"/>
		</g>
	</g>
	<g>
		<g class="st5">
			<path d="M2068,1332.4c-1.3,1.3-2.4,4-2.4,5.8v24.6h14.3V1324c0-1.9-1.1-2.3-2.4-1L2068,1332.4z M2068,1332.4"/>
			<path d="M2130.7,1309.1c-1.3,1.3-2.4,4-2.4,5.8v47.9h14.3v-62.2c0-1.9-1.1-2.3-2.4-1L2130.7,1309.1z M2130.7,1309.1"/>
			<path d="M2151.6,1288.2c-1.3,1.3-2.4,3.9-2.4,5.8v68.8h13.3v-82.1c0-1.9-1.1-2.3-2.4-1L2151.6,1288.2z M2151.6,1288.2"/>
			<path d="M2110.2,1329.6c0,0-0.6,0.6-1.4,1.4c-0.8,0.8-1.4,3-1.4,4.8v27h14.3v-41.2c0-1.9-1.1-2.3-2.4-1L2110.2,1329.6z
				 M2110.2,1329.6"/>
			<path d="M2088.9,1322.3c-1.3-1.3-2.4-0.9-2.4,1v39.5h14.3v-25.2c0-1.9-1-4.4-2.3-5.7l-2.3-2.3L2088.9,1322.3z M2088.9,1322.3"/>
			<path d="M2050,1350.4l-4.6,4.6c-1.3,1.3-2.4,3.6-2.4,5.1v2.7h15.9v-17.9c0-1.9-1.1-2.3-2.4-1L2050,1350.4z M2050,1350.4"/>
			<path d="M2179.7,1280.1c1.3,1.3,2.4,0.9,2.4-1v-48.9c0-3.5-3.4-6.6-6.8-6.6h-48.6c-1.9,0-2.3,1.1-1,2.4l17.3,17.3l-7,7
				l-32.7,32.7l-17.3-17.3c-1.3-1.3-3.5-1.3-4.8,0L2033,1314c-5.3,5.3-5.3,14,0,19.3l0.3,0.4c5.3,5.3,14,5.3,19.3,0l30.8-30.8
				l17.3,17.3c1.3,1.3,3.5,1.3,4.8,0l57-57L2179.7,1280.1z M2179.7,1280.1"/>
		</g>
		<g>
			<g>
				<path class="st7" d="M2071,1326.4c-1.3,1.3-2.4,4-2.4,5.8v24.6h14.3V1318c0-1.9-1.1-2.3-2.4-1L2071,1326.4z M2071,1326.4"/>
				<path class="st7" d="M2133.7,1303.1c-1.3,1.3-2.4,4-2.4,5.8v47.9h14.3v-62.2c0-1.9-1.1-2.3-2.4-1L2133.7,1303.1z M2133.7,1303.1
					"/>
				<path class="st7" d="M2154.6,1282.2c-1.3,1.3-2.4,3.9-2.4,5.8v68.8h13.3v-82.1c0-1.9-1.1-2.3-2.4-1L2154.6,1282.2z
					 M2154.6,1282.2"/>
				<path class="st7" d="M2113.2,1323.6c0,0-0.6,0.6-1.4,1.4c-0.8,0.8-1.4,3-1.4,4.8v27h14.3v-41.2c0-1.9-1.1-2.3-2.4-1
					L2113.2,1323.6z M2113.2,1323.6"/>
				<path class="st7" d="M2091.9,1316.3c-1.3-1.3-2.4-0.9-2.4,1v39.5h14.3v-25.2c0-1.9-1-4.4-2.3-5.7l-2.3-2.3L2091.9,1316.3z
					 M2091.9,1316.3"/>
				<g>
					<path class="st7" d="M2053,1344.4l-4.6,4.6c-1.3,1.3-2.4,3.6-2.4,5.1v2.7h15.9v-17.9c0-1.9-1.1-2.3-2.4-1L2053,1344.4z
						 M2053,1344.4"/>
					<path class="st7" d="M2182.7,1274.1c1.3,1.3,2.4,0.9,2.4-1v-48.9c0-3.5-3.4-6.6-6.8-6.6h-48.6c-1.9,0-2.3,1.1-1,2.4l17.3,17.3
						l-7,7l-32.7,32.7l-17.3-17.3c-1.3-1.3-3.5-1.3-4.8,0L2036,1308c-5.3,5.3-5.3,14,0,19.3l0.3,0.4c5.3,5.3,14,5.3,19.3,0
						l30.8-30.8l17.3,17.3c1.3,1.3,3.5,1.3,4.8,0l57-57L2182.7,1274.1z M2182.7,1274.1"/>
				</g>
			</g>
		</g>
	</g>
	<g>
		<g class="st5">
			<path d="M3261.9,1022.2c2.2,0,4.5-0.8,6.2-2.6c3.4-3.4,3.4-9,0-12.4l-30.2-30.3c-3.4-3.4-9-3.4-12.4,0c-3.4,3.4-3.4,9,0,12.4
				l30.2,30.3C3257.4,1021.4,3259.6,1022.2,3261.9,1022.2z"/>
			<path d="M3264.2,1011.1l-30.2-30.3c-2.7-2.8-6.9-3.3-10.2-1.7c0.4-0.8,1-1.6,1.6-2.3c3.4-3.4,9-3.4,12.4,0l30.2,30.3
				c3.4,3.4,3.4,9,0,12.4c-0.7,0.7-1.4,1.2-2.3,1.6C3267.5,1018,3267,1013.9,3264.2,1011.1z"/>
			<path d="M3130.6,931.5c-0.1,27.5,22.2,49.8,49.7,49.9c27.5,0.1,49.8-22.2,49.9-49.7s-22.2-49.8-49.7-49.9
				C3152.9,881.7,3130.6,904,3130.6,931.5z M3139.4,931.5c0-22.6,18.4-41,41.1-40.9c22.6,0,41,18.4,40.9,41.1
				c0,22.6-18.4,41-41.1,40.9C3157.6,972.5,3139.3,954.1,3139.4,931.5z"/>
			<circle cx="3207.5" cy="949.7" r="4.5"/>
			<path d="M3224.6,978c-0.3,0.4-0.5,0.8-0.7,1.2c3.3-1.7,7.4-1.1,10.2,1.7l3.2,3.2l-8.5,8.5l-3.2-3.2
				C3222.4,986.3,3222.1,981.5,3224.6,978z"/>
			<path d="M3241.1,980.1l-3.9,3.9l-3.2-3.2c-2.7-2.8-6.9-3.3-10.2-1.7c0.2-0.4,0.4-0.8,0.7-1.2c0,0,0,0,0,0
				c0.1-0.2,0.3-0.3,0.4-0.5c0,0,0.1-0.1,0.1-0.1c0.1-0.2,0.3-0.3,0.4-0.5c0.3-0.3,0.6-0.6,0.9-0.8c0.6-0.4,1.2-0.8,1.8-1.1
				c0.1,0,0.2-0.1,0.3-0.1c0.9-0.3,1.8-0.5,2.7-0.6c0.3,0,0.6,0,0.8,0c0.7,0,1.4,0.2,2.1,0.4c0.3,0.1,0.5,0.2,0.8,0.3
				c1.1,0.4,2,1.1,2.9,1.9L3241.1,980.1z"/>
			<path d="M3128.4,931.5c0,13.9,5.3,26.9,15.1,36.7c9.8,9.8,22.8,15.2,36.7,15.3h0.1c13.2,0,25.6-4.9,35.3-13.8l7.2,7.2
				c-1.3,1.8-2,4-2,6.2c0,2.9,1.1,5.7,3.2,7.7l30.2,30.3c2.1,2.1,4.8,3.2,7.7,3.2c0,0,0,0,0,0c2.9,0,5.6-1.1,7.7-3.2
				c2.1-2.1,3.2-4.8,3.2-7.7c0-2.9-1.1-5.7-3.2-7.7l-30.2-30.3c-2.1-2.1-4.8-3.2-7.7-3.2c-2.1,0-4.1,0.6-5.9,1.7l-7.3-7.3
				c8.8-9.6,13.6-21.9,13.6-35c0.1-28.6-23.2-51.9-51.8-52h-0.1c-13.8,0-26.9,5.4-36.7,15.2C3133.9,904.6,3128.5,917.6,3128.4,931.5
				z M3225.1,983.1c0-1.8,0.7-3.5,2-4.7c1.3-1.3,2.9-1.9,4.7-1.9c1.8,0,3.5,0.7,4.7,2l30.2,30.3c1.3,1.3,1.9,2.9,1.9,4.7
				c0,1.8-0.7,3.5-2,4.7c-1.3,1.3-2.9,1.9-4.7,1.9v2.1l0-2.1c-1.8,0-3.5-0.7-4.7-2l-30.2-30.3
				C3225.8,986.6,3225.1,984.9,3225.1,983.1z M3132.7,931.5c0-26.2,21.4-47.6,47.7-47.6h0.1c26.3,0,47.6,21.5,47.6,47.7
				c0,26.2-21.4,47.6-47.7,47.6h-0.1c-12.7,0-24.7-5-33.7-14C3137.6,956.2,3132.7,944.2,3132.7,931.5z"/>
			<path d="M3144.3,913.4c0,1.8,0.7,3.4,1.9,4.7c1.3,1.3,2.9,2,4.7,2c0,0,0,0,0,0c0.4,0,0.7,0,1-0.1l16.7,31.9
				c-1.1,1.2-1.8,2.8-1.8,4.6c0,3.7,3,6.7,6.6,6.7c0,0,0,0,0,0c3.7,0,6.6-3,6.6-6.6c0-1.3-0.4-2.6-1.1-3.6l10.3-12.8
				c0.7,0.3,1.5,0.4,2.3,0.4c0,0,0,0,0,0c1.1,0,2.1-0.2,2.9-0.7c0,0,0,0.1,0.1,0.1l6.8,6.8c0,0,0.1,0,0.1,0.1
				c-0.4,0.9-0.7,1.9-0.7,3c0,3.7,3,6.7,6.6,6.7c0,0,0,0,0,0c3.7,0,6.6-3,6.6-6.6c0-3.7-3-6.7-6.6-6.7c-1.1,0-2.1,0.3-3,0.7
				c0,0,0-0.1-0.1-0.1l-6.8-6.8c0,0-0.1,0-0.1-0.1c0.4-0.9,0.7-1.9,0.7-3c0-1.8-0.7-3.4-1.9-4.7c-1.3-1.3-2.9-2-4.7-2
				c-3.7,0-6.7,3-6.7,6.6c0,1.3,0.4,2.5,1,3.6l-10.3,12.8c-0.7-0.3-1.5-0.4-2.3-0.4c-0.4,0-0.7,0-1.1,0.1l-16.7-31.9
				c1.1-1.2,1.8-2.8,1.8-4.6c0-1.8-0.7-3.4-1.9-4.7c-1.3-1.3-2.9-2-4.7-2C3147.3,906.8,3144.3,909.7,3144.3,913.4z M3205.1,949.7
				c0-1.3,1.1-2.4,2.4-2.4c1.3,0,2.4,1.1,2.4,2.4c0,1.3-1.1,2.4-2.4,2.4v2.1l0-2.1C3206.1,952.1,3205.1,951,3205.1,949.7z
				 M3190,935.5c-0.5-0.5-0.7-1.1-0.7-1.7c0-1.3,1.1-2.4,2.4-2.4c0.6,0,1.2,0.3,1.7,0.7c0.5,0.5,0.7,1.1,0.7,1.7
				c0,1.3-1.1,2.4-2.4,2.4v2.1l0-2.1C3191,936.3,3190.4,936,3190,935.5z M3171.1,956.4c0-1.3,1.1-2.4,2.4-2.4c1.3,0,2.4,1.1,2.4,2.4
				c0,1.3-1.1,2.4-2.4,2.4v2.1l0-2.1C3172.2,958.8,3171.1,957.8,3171.1,956.4z M3148.6,913.4c0-1.3,1.1-2.4,2.4-2.4
				c0.6,0,1.2,0.3,1.7,0.7c0.5,0.5,0.7,1.1,0.7,1.7c0,1.3-1.1,2.4-2.4,2.4v2.1l0-2.1c-0.6,0-1.2-0.3-1.7-0.7
				C3148.8,914.7,3148.6,914,3148.6,913.4z"/>
		</g>
		<g>
			<g>
				<path class="st7" d="M3264.9,1016.2c2.2,0,4.5-0.8,6.2-2.6c3.4-3.4,3.4-9,0-12.4l-30.2-30.3c-3.4-3.4-9-3.4-12.4,0
					c-3.4,3.4-3.4,9,0,12.4l30.2,30.3C3260.4,1015.4,3262.6,1016.2,3264.9,1016.2z"/>
				<path class="st7" d="M3267.2,1005.1l-30.2-30.3c-2.7-2.8-6.9-3.3-10.2-1.7c0.4-0.8,1-1.6,1.6-2.3c3.4-3.4,9-3.4,12.4,0
					l30.2,30.3c3.4,3.4,3.4,9,0,12.4c-0.7,0.7-1.4,1.2-2.3,1.6C3270.5,1012,3270,1007.9,3267.2,1005.1z"/>
				<path class="st7" d="M3133.6,925.5c-0.1,27.5,22.2,49.8,49.7,49.9c27.5,0.1,49.8-22.2,49.9-49.7s-22.2-49.8-49.7-49.9
					C3155.9,875.7,3133.6,898,3133.6,925.5z M3142.4,925.5c0-22.6,18.4-41,41.1-40.9c22.6,0,41,18.4,40.9,41.1
					c0,22.6-18.4,41-41.1,40.9C3160.6,966.5,3142.3,948.1,3142.4,925.5z"/>
				<circle class="st7" cx="3210.5" cy="943.7" r="4.5"/>
				<path class="st7" d="M3227.6,972c-0.3,0.4-0.5,0.8-0.7,1.2c3.3-1.7,7.4-1.1,10.2,1.7l3.2,3.2l-8.5,8.5l-3.2-3.2
					C3225.4,980.3,3225.1,975.5,3227.6,972z"/>
				<path class="st7" d="M3244.1,974.1l-3.9,3.9l-3.2-3.2c-2.7-2.8-6.9-3.3-10.2-1.7c0.2-0.4,0.4-0.8,0.7-1.2c0,0,0,0,0,0
					c0.1-0.2,0.3-0.3,0.4-0.5c0,0,0.1-0.1,0.1-0.1c0.1-0.2,0.3-0.3,0.4-0.5c0.3-0.3,0.6-0.6,0.9-0.8c0.6-0.4,1.2-0.8,1.8-1.1
					c0.1,0,0.2-0.1,0.3-0.1c0.9-0.3,1.8-0.5,2.7-0.6c0.3,0,0.6,0,0.8,0c0.7,0,1.4,0.2,2.1,0.4c0.3,0.1,0.5,0.2,0.8,0.3
					c1.1,0.4,2,1.1,2.9,1.9L3244.1,974.1z"/>
				<g>
					<path class="st7" d="M3131.4,925.5c0,13.9,5.3,26.9,15.1,36.7c9.8,9.8,22.8,15.2,36.7,15.3h0.1c13.2,0,25.6-4.9,35.3-13.8
						l7.2,7.2c-1.3,1.8-2,4-2,6.2c0,2.9,1.1,5.7,3.2,7.7l30.2,30.3c2.1,2.1,4.8,3.2,7.7,3.2c0,0,0,0,0,0c2.9,0,5.6-1.1,7.7-3.2
						c2.1-2.1,3.2-4.8,3.2-7.7c0-2.9-1.1-5.7-3.2-7.7l-30.2-30.3c-2.1-2.1-4.8-3.2-7.7-3.2c-2.1,0-4.1,0.6-5.9,1.7l-7.3-7.3
						c8.8-9.6,13.6-21.9,13.6-35c0.1-28.6-23.2-51.9-51.8-52h-0.1c-13.8,0-26.9,5.4-36.7,15.2
						C3136.9,898.6,3131.5,911.6,3131.4,925.5z M3228.1,977.1c0-1.8,0.7-3.5,2-4.7c1.3-1.3,2.9-1.9,4.7-1.9c1.8,0,3.5,0.7,4.7,2
						l30.2,30.3c1.3,1.3,1.9,2.9,1.9,4.7c0,1.8-0.7,3.5-2,4.7c-1.3,1.3-2.9,1.9-4.7,1.9v2.1l0-2.1c-1.8,0-3.5-0.7-4.7-2l-30.2-30.3
						C3228.8,980.6,3228.1,978.9,3228.1,977.1z M3135.7,925.5c0-26.2,21.4-47.6,47.7-47.6h0.1c26.3,0,47.6,21.5,47.6,47.7
						c0,26.2-21.4,47.6-47.7,47.6h-0.1c-12.7,0-24.7-5-33.7-14C3140.6,950.2,3135.7,938.2,3135.7,925.5z"/>
				</g>
				<path class="st7" d="M3147.3,907.4c0,1.8,0.7,3.4,1.9,4.7c1.3,1.3,2.9,2,4.7,2c0,0,0,0,0,0c0.4,0,0.7,0,1-0.1l16.7,31.9
					c-1.1,1.2-1.8,2.8-1.8,4.6c0,3.7,3,6.7,6.6,6.7c0,0,0,0,0,0c3.7,0,6.6-3,6.6-6.6c0-1.3-0.4-2.6-1.1-3.6l10.3-12.8
					c0.7,0.3,1.5,0.4,2.3,0.4c0,0,0,0,0,0c1.1,0,2.1-0.2,2.9-0.7c0,0,0,0.1,0.1,0.1l6.8,6.8c0,0,0.1,0,0.1,0.1
					c-0.4,0.9-0.7,1.9-0.7,3c0,3.7,3,6.7,6.6,6.7c0,0,0,0,0,0c3.7,0,6.6-3,6.6-6.6c0-3.7-3-6.7-6.6-6.7c-1.1,0-2.1,0.3-3,0.7
					c0,0,0-0.1-0.1-0.1l-6.8-6.8c0,0-0.1,0-0.1-0.1c0.4-0.9,0.7-1.9,0.7-3c0-1.8-0.7-3.4-1.9-4.7c-1.3-1.3-2.9-2-4.7-2
					c-3.7,0-6.7,3-6.7,6.6c0,1.3,0.4,2.5,1,3.6l-10.3,12.8c-0.7-0.3-1.5-0.4-2.3-0.4c-0.4,0-0.7,0-1.1,0.1l-16.7-31.9
					c1.1-1.2,1.8-2.8,1.8-4.6c0-1.8-0.7-3.4-1.9-4.7c-1.3-1.3-2.9-2-4.7-2C3150.3,900.8,3147.3,903.7,3147.3,907.4z M3208.1,943.7
					c0-1.3,1.1-2.4,2.4-2.4c1.3,0,2.4,1.1,2.4,2.4c0,1.3-1.1,2.4-2.4,2.4v2.1l0-2.1C3209.1,946.1,3208.1,945,3208.1,943.7z
					 M3193,929.5c-0.5-0.5-0.7-1.1-0.7-1.7c0-1.3,1.1-2.4,2.4-2.4c0.6,0,1.2,0.3,1.7,0.7c0.5,0.5,0.7,1.1,0.7,1.7
					c0,1.3-1.1,2.4-2.4,2.4v2.1l0-2.1C3194,930.3,3193.4,930,3193,929.5z M3174.1,950.4c0-1.3,1.1-2.4,2.4-2.4
					c1.3,0,2.4,1.1,2.4,2.4c0,1.3-1.1,2.4-2.4,2.4v2.1l0-2.1C3175.2,952.8,3174.1,951.8,3174.1,950.4z M3151.6,907.4
					c0-1.3,1.1-2.4,2.4-2.4c0.6,0,1.2,0.3,1.7,0.7c0.5,0.5,0.7,1.1,0.7,1.7c0,1.3-1.1,2.4-2.4,2.4v2.1l0-2.1c-0.6,0-1.2-0.3-1.7-0.7
					C3151.8,908.7,3151.6,908,3151.6,907.4z"/>
			</g>
		</g>
	</g>
	<g>
		<g class="st5">
			<path d="M2840.9,575.9c-0.6-0.5-78.6-43.2-79.3-43.5l43.5,79.3c0.1-11.9,0-23.9,0-35.8C2817.1,575.9,2829,575.9,2840.9,575.9
				L2840.9,575.9z M2840.9,575.9"/>
			<path d="M2766.1,553.7c-2.8,1-5.9,1.6-9,1.6c-14.9,0-27-12.1-27-27c0-14.9,12.1-27,27-27c14.9,0,27,12.1,27,27
				c0,2.9-0.5,5.7-1.3,8.4c2.7,1.5,5.5,3,8.5,4.6c1.5-4,2.4-8.4,2.4-13c0-20.1-16.4-36.5-36.5-36.5c-20.1,0-36.5,16.4-36.5,36.5
				c0,20.1,16.4,36.5,36.5,36.5c4.8,0,9.4-1,13.7-2.7L2766.1,553.7z M2766.1,553.7"/>
			<path d="M2781.4,581.7c-7.4,3.4-15.7,5.3-24.4,5.3c-32.4,0-58.7-26.3-58.7-58.7c0-32.4,26.3-58.7,58.7-58.7
				c32.4,0,58.7,26.3,58.7,58.7c0,8.4-1.8,16.5-5,23.7c2.8,1.6,5.7,3.1,8.4,4.6c4-8.6,6.2-18.2,6.2-28.3c0-37.6-30.6-68.2-68.2-68.2
				c-37.6,0-68.2,30.6-68.2,68.2c0,37.6,30.6,68.2,68.2,68.2c10.3,0,20.2-2.3,29-6.5L2781.4,581.7z M2781.4,581.7"/>
		</g>
		<g>
			<g>
				<path class="st7" d="M2843.9,569.9c-0.6-0.5-78.6-43.2-79.3-43.5l43.5,79.3c0.1-11.9,0-23.9,0-35.8
					C2820.1,569.9,2832,569.9,2843.9,569.9L2843.9,569.9z M2843.9,569.9"/>
				<path class="st7" d="M2769.1,547.7c-2.8,1-5.9,1.6-9,1.6c-14.9,0-27-12.1-27-27c0-14.9,12.1-27,27-27c14.9,0,27,12.1,27,27
					c0,2.9-0.5,5.7-1.3,8.4c2.7,1.5,5.5,3,8.5,4.6c1.5-4,2.4-8.4,2.4-13c0-20.1-16.4-36.5-36.5-36.5c-20.1,0-36.5,16.4-36.5,36.5
					c0,20.1,16.4,36.5,36.5,36.5c4.8,0,9.4-1,13.7-2.7L2769.1,547.7z M2769.1,547.7"/>
				<path class="st7" d="M2784.4,575.7c-7.4,3.4-15.7,5.3-24.4,5.3c-32.4,0-58.7-26.3-58.7-58.7c0-32.4,26.3-58.7,58.7-58.7
					c32.4,0,58.7,26.3,58.7,58.7c0,8.4-1.8,16.5-5,23.7c2.8,1.6,5.7,3.1,8.4,4.6c4-8.6,6.2-18.2,6.2-28.3
					c0-37.6-30.6-68.2-68.2-68.2c-37.6,0-68.2,30.6-68.2,68.2c0,37.6,30.6,68.2,68.2,68.2c10.3,0,20.2-2.3,29-6.5L2784.4,575.7z
					 M2784.4,575.7"/>
			</g>
		</g>
	</g>
	<g>
		<g class="st5">
			<path d="M3813.1,182.6h-117.5c-4.4,0-8,3.6-8,8v101.5c0,4.4,3.6,8,8,8h117.5c4.4,0,8-3.6,8-8V190.6
				C3821.1,186.2,3817.5,182.6,3813.1,182.6L3813.1,182.6z M3793.1,188c2.9,0,5.3,2.4,5.3,5.3c0,2.9-2.4,5.3-5.3,5.3
				c-2.9,0-5.3-2.4-5.3-5.3C3787.7,190.4,3790.1,188,3793.1,188L3793.1,188z M3778.4,188c2.9,0,5.3,2.4,5.3,5.3
				c0,2.9-2.4,5.3-5.3,5.3c-2.9,0-5.3-2.4-5.3-5.3C3773.1,190.4,3775.5,188,3778.4,188L3778.4,188z M3731.2,292.1
				c1.9-11.1,11.5-19.5,23.1-19.5s21.2,8.4,23.1,19.5H3731.2z M3813.1,289.1c0-2.6-2.1-4.6-4.7-4.6h-8.5c-1.1-4.3-2.8-8.4-5-12.1
				l6.1-6.1c1.8-1.8,1.8-4.8,0-6.6l-10-10c-1.8-1.8-4.8-1.8-6.6,0l-6.1,6.1c-3.7-2.2-7.9-3.9-12.1-5v-8.5c0-2.6-2-4.7-4.6-4.7h-14.1
				c-2.6,0-4.6,2.1-4.6,4.7v8.5c-4.3,1.1-8.4,2.8-12.1,5l-6.1-6.1c-1.8-1.8-4.8-1.8-6.7,0l-10,10c-1.8,1.8-1.8,4.8,0,6.6l6.1,6.1
				c-2.2,3.7-3.9,7.9-5,12.1h-8.5c-2.6,0-4.7,2-4.7,4.6V204h117.5V289.1z M3807.8,198.7c-2.9,0-5.3-2.4-5.3-5.3
				c0-2.9,2.4-5.3,5.3-5.3s5.3,2.4,5.3,5.3C3813.1,196.2,3810.7,198.7,3807.8,198.7L3807.8,198.7z M3807.8,198.7"/>
		</g>
		<g>
			<g>
				<g>
					<path class="st7" d="M3816.1,176.6h-117.5c-4.4,0-8,3.6-8,8v101.5c0,4.4,3.6,8,8,8h117.5c4.4,0,8-3.6,8-8V184.6
						C3824.1,180.2,3820.5,176.6,3816.1,176.6L3816.1,176.6z M3796.1,182c2.9,0,5.3,2.4,5.3,5.3c0,2.9-2.4,5.3-5.3,5.3
						c-2.9,0-5.3-2.4-5.3-5.3C3790.7,184.4,3793.1,182,3796.1,182L3796.1,182z M3781.4,182c2.9,0,5.3,2.4,5.3,5.3
						c0,2.9-2.4,5.3-5.3,5.3c-2.9,0-5.3-2.4-5.3-5.3C3776.1,184.4,3778.5,182,3781.4,182L3781.4,182z M3734.2,286.1
						c1.9-11.1,11.5-19.5,23.1-19.5s21.2,8.4,23.1,19.5H3734.2z M3816.1,283.1c0-2.6-2.1-4.6-4.7-4.6h-8.5c-1.1-4.3-2.8-8.4-5-12.1
						l6.1-6.1c1.8-1.8,1.8-4.8,0-6.6l-10-10c-1.8-1.8-4.8-1.8-6.6,0l-6.1,6.1c-3.7-2.2-7.9-3.9-12.1-5v-8.5c0-2.6-2-4.7-4.6-4.7
						h-14.1c-2.6,0-4.6,2.1-4.6,4.7v8.5c-4.3,1.1-8.4,2.8-12.1,5l-6.1-6.1c-1.8-1.8-4.8-1.8-6.7,0l-10,10c-1.8,1.8-1.8,4.8,0,6.6
						l6.1,6.1c-2.2,3.7-3.9,7.9-5,12.1h-8.5c-2.6,0-4.7,2-4.7,4.6V198h117.5V283.1z M3810.8,192.7c-2.9,0-5.3-2.4-5.3-5.3
						c0-2.9,2.4-5.3,5.3-5.3s5.3,2.4,5.3,5.3C3816.1,190.2,3813.7,192.7,3810.8,192.7L3810.8,192.7z M3810.8,192.7"/>
				</g>
			</g>
		</g>
	</g>
</g>
<g id="DESIGNED_BY_FREEPIK">
	<polygon class="st29" points="264.1,388.2 311.5,279.9 363.4,388.2 313.7,364.2 	"/>
	<rect x="303.7" y="351.1" class="st29" width="20" height="2961"/>
	<g>
		
			<image style="overflow:visible;opacity:0.75;" width="196" height="1156" xlink:href="19FA646E.png"  transform="matrix(1 0 0 1 223 912.0817)">
		</image>
		<g>
			<path class="st29" d="M384.2,2045.3H243.3c-6.6,0-12-5.4-12-12V932.6c0-6.6,5.4-12,12-12h140.9c6.6,0,12,5.4,12,12v1100.8
				C396.2,2039.9,390.8,2045.3,384.2,2045.3z"/>
		</g>
	</g>
	<g>
		
			<image style="overflow:visible;opacity:0.75;" width="1155" height="196" xlink:href="19FA646F.png"  transform="matrix(1 0 0 1 1921 3212.0815)">
		</image>
		<g>
			<path class="st29" d="M3053.9,3232.2v140.9c0,6.6-5.4,12-12,12H1941.1c-6.6,0-12-5.4-12-12v-140.9c0-6.6,5.4-12,12-12h1100.8
				C3048.5,3220.2,3053.9,3225.6,3053.9,3232.2z"/>
		</g>
	</g>
	
		<rect x="2288.8" y="1311.4" transform="matrix(5.702112e-11 -1 1 5.702112e-11 -1002.7161 5601.4473)" class="st29" width="21.2" height="3981.3"/>
	<polygon class="st29" points="4235.8,3351.7 4344.2,3304.3 4235.8,3252.4 4259.9,3302.1 	"/>
	<text transform="matrix(-1 0 0 -1 303.7281 1891.8483)" class="st7 st30 st31">Competitive Analsis</text>
	<text transform="matrix(1 0 0 1 2028.8864 3331.103)" class="st7 st30 st32">Degree of Intelligence</text>
</g>
</svg>
