<?xml version="1.0" encoding="iso-8859-1"?>
<!-- Generator: Adobe Illustrator 22.1.0, SVG Export Plug-In . SVG Version: 6.00 Build 0)  -->
<svg version="1.1" id="Layer_1" xmlns="http://www.w3.org/2000/svg" xmlns:xlink="http://www.w3.org/1999/xlink" x="0px" y="0px"
	 width="91.248px" height="133.8px" viewBox="0 0 91.248 133.8" style="enable-background:new 0 0 91.248 133.8;"
	 xml:space="preserve">
<g>
	<path style="fill:#FFFFFF;" d="M53.01,29.206c5.33,0,9.666-4.337,9.666-9.669c0-5.331-4.336-9.668-9.666-9.668
		c-5.332,0-9.669,4.337-9.669,9.668C43.341,24.869,47.679,29.206,53.01,29.206L53.01,29.206z M53.01,29.206"/>
	<path style="fill:#FFFFFF;" d="M25.316,69.062c0.565,0,1.096-0.219,1.493-0.617l6.971-6.971c0.399-0.399,0.618-0.93,0.618-1.494
		c0-0.566-0.219-1.097-0.618-1.494l-2.039-2.039c0.098-0.084,0.194-0.17,0.285-0.262c0.961-0.96,1.473-2.25,1.449-3.64
		c0.397-0.262,0.749-0.595,1.035-0.986l3.321-4.528c0.48-0.654,1.589-1.77,2.241-2.253l0.264-0.196l-2.878,11.472
		c-0.035,0.141-0.056,0.282-0.067,0.419l-2.379,10.11c-0.205,0.873-0.76,2.4-1.163,3.203l-5.772,11.493
		c-0.516,1.029-0.602,2.2-0.24,3.294c0.362,1.094,1.13,1.982,2.159,2.499c0.576,0.289,1.193,0.443,1.833,0.458
		c0.034,0.001,0.067,0.001,0.101,0.001c1.643,0,3.122-0.912,3.859-2.379l5.773-11.493c0.699-1.393,1.494-3.587,1.851-5.102
		l2.311-9.822h4.004c0.001,0.002,0.003,0.004,0.005,0.005l5.528,4.801L52.528,74.48c-0.577,2.308,0.831,4.656,3.14,5.234
		c0.345,0.086,0.698,0.129,1.049,0.129c1.983,0,3.703-1.345,4.184-3.269l2.837-11.348c0.684-2.739-0.366-6.07-2.497-7.922
		l-5.371-4.666l1.841-7.343c1.097,2.148,3.408,3.997,5.73,4.549l7.804,1.856c0.312,0.074,0.632,0.113,0.95,0.113
		c1.902,0,3.538-1.294,3.979-3.147c0.522-2.196-0.839-4.407-3.034-4.93l-7.731-1.838c-0.115-0.059-0.34-0.244-0.419-0.346
		l-3.792-8.295c-0.665-1.454-2.126-2.393-3.725-2.393H46.228c-0.851,0-1.729,0.429-2.238,0.806l-8.8,6.532
		c-1.3,0.966-3.004,2.68-3.962,3.986l-3.32,4.527c-0.089,0.121-0.168,0.246-0.243,0.374c-1.256,0.062-2.415,0.569-3.29,1.443
		c-0.092,0.092-0.179,0.188-0.262,0.285l-2.039-2.039c-0.398-0.398-0.928-0.617-1.494-0.617c-0.565,0-1.096,0.219-1.493,0.617
		l-6.971,6.971c-0.399,0.399-0.618,0.929-0.618,1.494c0,0.565,0.219,1.097,0.618,1.494l11.704,11.704
		C24.219,68.843,24.75,69.062,25.316,69.062L25.316,69.062z M26.151,50.309c0.281-0.281,0.626-0.484,1.008-0.6
		c0.002,0.016,0.002,0.034,0.005,0.052c0.166,1.08,0.743,2.031,1.624,2.678c0.625,0.457,1.349,0.724,2.111,0.781
		c-0.102,0.453-0.321,0.863-0.647,1.191c-0.093,0.092-0.193,0.173-0.298,0.249l-4.051-4.051
		C25.978,50.503,26.058,50.402,26.151,50.309L26.151,50.309z M26.151,50.309"/>
	<path style="fill:#FFFFFF;" d="M83.015,95.067c0-1.007-0.756-1.855-1.759-1.971l-2.227-0.26c-0.33-1.092-0.784-2.14-1.352-3.119
		l1.388-1.746c0.626-0.792,0.561-1.926-0.15-2.636l-2.789-2.789c-0.374-0.375-0.872-0.58-1.401-0.58
		c-0.446,0-0.885,0.153-1.236,0.43l-1.86,1.474c-0.921-0.489-1.888-0.883-2.878-1.172l-0.275-2.379
		c-0.116-0.997-0.964-1.754-1.972-1.76h-3.943c-1.008,0-1.855,0.756-1.971,1.76l-0.275,2.359c-1.044,0.297-2.054,0.706-3.01,1.221
		l-1.896-1.501c-0.351-0.277-0.79-0.43-1.235-0.43c-0.531,0-1.029,0.206-1.402,0.58l-2.789,2.789
		c-0.711,0.71-0.775,1.844-0.15,2.637l1.442,1.818c-0.573,1.009-1.029,2.086-1.36,3.205l-2.277,0.265
		c-0.997,0.116-1.754,0.963-1.76,1.971v3.943c0,1.008,0.757,1.855,1.76,1.97l2.237,0.265c0.317,1.123,0.754,2.191,1.303,3.181
		l-1.34,1.689c-0.626,0.792-0.561,1.926,0.151,2.637l2.789,2.789c0.374,0.375,0.872,0.58,1.401,0.58c0.446,0,0.884-0.153,1.235-0.43
		l1.664-1.317c0.971,0.549,2.016,0.99,3.113,1.314l0.242,2.077c0.116,0.997,0.962,1.753,1.971,1.76h3.934
		c1.007,0,1.855-0.757,1.97-1.76l0.232-2.007c1.153-0.317,2.27-0.775,3.322-1.361l1.623,1.285c0.35,0.277,0.789,0.43,1.234,0.43
		c0.531,0,1.028-0.206,1.402-0.581l2.789-2.789c0.712-0.712,0.777-1.846,0.151-2.637l-1.284-1.623
		c0.602-1.078,1.069-2.228,1.389-3.424l2.089-0.242c0.997-0.116,1.754-0.962,1.76-1.971V95.067z M68.879,101.67
		c-1.169,1.169-2.727,1.813-4.388,1.813c-1.66,0-3.219-0.644-4.388-1.813c-1.169-1.17-1.814-2.729-1.814-4.388
		c0-1.661,0.643-3.219,1.814-4.389c1.169-1.169,2.728-1.813,4.388-1.813c1.661,0,3.219,0.645,4.388,1.813
		c1.17,1.17,1.814,2.729,1.814,4.389C70.693,98.941,70.049,100.5,68.879,101.67L68.879,101.67z M68.879,101.67"/>
	<path style="fill:#FFFFFF;" d="M47.192,104.045c-0.089-1.055-0.953-1.874-2.01-1.903l-1.641-0.053
		c-0.36-0.892-0.817-1.744-1.36-2.538l0.899-1.359c0.582-0.878,0.416-2.058-0.39-2.745l-2.207-1.861
		c-0.376-0.316-0.854-0.491-1.346-0.491c-0.531,0-1.036,0.2-1.422,0.562l-1.274,1.196c-0.798-0.342-1.642-0.605-2.514-0.786
		l-0.352-1.732c-0.209-1.024-1.154-1.75-2.215-1.66l-2.874,0.242c-1.055,0.089-1.874,0.953-1.903,2.009l-0.058,1.75
		c-0.87,0.332-1.692,0.751-2.449,1.244l-1.492-0.991c-0.341-0.226-0.738-0.346-1.149-0.346c-0.615,0-1.197,0.268-1.597,0.735
		l-1.86,2.207c-0.68,0.811-0.65,2,0.071,2.769l1.167,1.245c-0.41,0.896-0.719,1.837-0.921,2.805l-1.648,0.338
		c-1.035,0.212-1.749,1.163-1.661,2.214l0.243,2.875c0.089,1.055,0.953,1.873,2.01,1.903l1.64,0.047
		c0.349,0.923,0.794,1.794,1.328,2.595l-0.861,1.301c-0.583,0.879-0.416,2.058,0.389,2.746l2.207,1.86
		c0.377,0.317,0.855,0.491,1.347,0.491c0.531,0,1.036-0.199,1.422-0.562l1.117-1.048c0.873,0.397,1.788,0.695,2.724,0.891
		l0.297,1.476c0.187,0.977,1.043,1.687,2.035,1.687h0.001c0.058,0,0.116-0.003,0.174-0.007l2.874-0.243
		c1.055-0.089,1.874-0.953,1.903-2.009l0.048-1.441c0.948-0.35,1.859-0.817,2.714-1.389l1.242,0.821
		c0.341,0.226,0.738,0.346,1.149,0.346c0.615,0,1.197-0.268,1.595-0.735l1.861-2.207c0.679-0.811,0.65-2-0.071-2.768l-1.014-1.083
		c0.433-0.967,0.746-1.972,0.933-2.999l1.488-0.301c1.035-0.212,1.749-1.164,1.66-2.216L47.192,104.045z M35.324,110.478
		c-1.01,1.199-2.493,1.887-4.068,1.887c-1.254,0-2.471-0.445-3.427-1.255c-1.084-0.914-1.749-2.199-1.868-3.617
		c-0.12-1.418,0.319-2.795,1.235-3.879c1.011-1.199,2.493-1.887,4.068-1.887c1.255,0,2.471,0.445,3.428,1.254
		c1.085,0.915,1.748,2.2,1.868,3.617C36.679,108.017,36.241,109.393,35.324,110.478L35.324,110.478z M35.324,110.478"/>
</g>
</svg>
