<?xml version="1.0" encoding="utf-8"?>
<!-- Generator: Adobe Illustrator 22.1.0, SVG Export Plug-In . SVG Version: 6.00 Build 0)  -->
<svg version="1.1" id="Layer_1" xmlns="http://www.w3.org/2000/svg" xmlns:xlink="http://www.w3.org/1999/xlink" x="0px" y="0px"
	 width="59.3px" height="59.3px" viewBox="0 0 59.3 59.3" style="enable-background:new 0 0 59.3 59.3;" xml:space="preserve">
<style type="text/css">
	.st0{fill:#2E90C0;}
</style>
<g>
	<path class="st0" d="M51.3,5.6c-1.3,0-2.4,1.1-2.4,2.4v40.3H8.6c-1.3,0-2.4,1.1-2.4,2.4c0,1.3,1.1,2.4,2.4,2.4h42.7
		c1.3,0,2.4-1.1,2.4-2.4V8C53.8,6.7,52.7,5.6,51.3,5.6L51.3,5.6z M51.3,5.6"/>
	<path class="st0" d="M36.1,23.2c-0.2-0.1-0.4-0.2-0.7-0.3v20.5c0,0.8,0.7,1.5,1.5,1.5h6.7c0.8,0,1.5-0.7,1.5-1.5V16.2l-1.7,4
		C42.3,23.1,39,24.4,36.1,23.2L36.1,23.2z M36.1,23.2"/>
	<path class="st0" d="M23.2,44.9H30c0.8,0,1.5-0.7,1.5-1.5V22l-9.8,3.9v17.4C21.7,44.2,22.4,44.9,23.2,44.9L23.2,44.9z M23.2,44.9"
		/>
	<path class="st0" d="M8,31v12.4c0,0.8,0.7,1.5,1.5,1.5h6.7c0.8,0,1.5-0.7,1.5-1.5V27.5L10,30.6C9.3,30.8,8.6,31,8,31L8,31z M8,31"
		/>
	<path class="st0" d="M8.8,27.6l23.9-9.5l3.6-1.4l-0.2,0.4c-0.5,1.2,0,2.6,1.3,3.2c1.2,0.5,2.6,0,3.2-1.3l2.5-5.7
		c0.5-1.2,0-2.6-1.3-3.2L36,7.6c-1.2-0.5-2.6,0-3.2,1.3c-0.5,1.2,0,2.6,1.3,3.2l0.5,0.2L31,13.6L7.1,23.1c-1.2,0.5-1.8,1.9-1.3,3.1
		C6.2,27.5,7.6,28.1,8.8,27.6L8.8,27.6z M8.8,27.6"/>
</g>
</svg>
