<?xml version="1.0" encoding="iso-8859-1"?>
<!-- Generator: Adobe Illustrator 22.1.0, SVG Export Plug-In . SVG Version: 6.00 Build 0)  -->
<svg version="1.1" id="Layer_1" xmlns="http://www.w3.org/2000/svg" xmlns:xlink="http://www.w3.org/1999/xlink" x="0px" y="0px"
	 width="91.248px" height="133.8px" viewBox="0 0 91.248 133.8" style="enable-background:new 0 0 91.248 133.8;"
	 xml:space="preserve">
<path style="fill:#FFFFFF;" d="M34.477,59.046c0,5.397,4.389,9.785,9.785,9.785s9.785-4.389,9.785-9.785s-4.389-9.785-9.785-9.785
	S34.477,53.649,34.477,59.046z"/>
<path style="fill:#FFFFFF;" d="M45.992,25.35c-1.041-1.041-2.671-0.788-3.459,0l-4.893,5.056c-0.956,0.956-0.956,2.504,0,3.459
	s2.504,0.956,3.459,0l0.717-0.717v6.326c0,1.352,1.094,2.446,2.446,2.446s2.43-1.094,2.43-2.446v-6.326l0.717,0.717
	c0.956,0.956,2.52,0.956,3.476,0c0.956-0.956,0.956-2.504,0-3.459L45.992,25.35z"/>
<path style="fill:#FFFFFF;" d="M44.262,90.848c-1.352,0-2.446,1.094-2.446,2.446v6.326l-0.717-0.717
	c-0.956-0.956-2.504-0.956-3.459,0c-0.956,0.956-0.956,2.504,0,3.459l4.893,5.056c0.975,0.975,2.525,0.934,3.459,0l4.893-5.056
	c0.956-0.956,0.956-2.504,0-3.459c-0.956-0.956-2.52-0.956-3.476,0l-0.717,0.717v-6.326C46.692,91.942,45.615,90.848,44.262,90.848z
	"/>
<path style="fill:#FFFFFF;" d="M19.799,66.385c0-1.352-1.094-2.446-2.446-2.446h-6.326l0.717-0.717c0.956-0.956,0.956-2.504,0-3.459
	c-0.956-0.956-2.504-0.956-3.459,0l-5.056,4.893c-1.041,1.041-0.788,2.671,0,3.459l5.056,4.893c0.956,0.956,2.504,0.956,3.459,0
	c0.956-0.956,0.956-2.504,0-3.459l-0.717-0.717h6.326C18.705,68.831,19.799,67.737,19.799,66.385z"/>
<path style="fill:#FFFFFF;" d="M85.297,64.655l-5.056-4.893c-0.956-0.956-2.504-0.956-3.459,0c-0.956,0.956-0.956,2.504,0,3.459
	l0.717,0.717h-6.326c-1.352,0-2.446,1.094-2.446,2.446c0,1.352,1.094,2.446,2.446,2.446h6.326l-0.717,0.717
	c-0.956,0.956-0.956,2.504,0,3.459c0.956,0.956,2.504,0.956,3.459,0l5.056-4.893C86.139,67.272,86.305,65.663,85.297,64.655z"/>
<path style="fill:#FFFFFF;" d="M26.752,83.895c-0.956-0.956-2.504-0.956-3.459,0l-4.472,4.472v-1.013
	c0-1.352-1.094-2.446-2.446-2.446s-2.446,1.094-2.446,2.446v6.919c0,0.324,0.07,0.63,0.184,0.913
	c0.348,0.862,1.376,1.533,2.262,1.533h6.919c1.352,0,2.446-1.094,2.446-2.446s-1.094-2.446-2.446-2.446H22.28l4.472-4.472
	C27.707,86.399,27.707,84.851,26.752,83.895z"/>
<path style="fill:#FFFFFF;" d="M61.773,48.874c0.956,0.956,2.504,0.956,3.459,0l4.472-4.472v1.013c0,1.352,1.094,2.446,2.446,2.446
	c1.352,0,2.446-1.094,2.446-2.446v-6.919c0-1.195-1.022-2.446-2.446-2.446h-6.919c-1.352,0-2.446,1.094-2.446,2.446
	c0,1.352,1.094,2.446,2.446,2.446h1.013l-4.472,4.472C60.817,46.37,60.817,47.919,61.773,48.874z"/>
<path style="fill:#FFFFFF;" d="M72.151,96.719c1.195,0,2.446-1.022,2.446-2.446v-6.919c0-1.352-1.094-2.446-2.446-2.446
	c-1.352,0-2.446,1.094-2.446,2.446v1.013l-4.472-4.472c-0.956-0.956-2.504-0.956-3.459,0c-0.956,0.956-0.956,2.504,0,3.459
	l4.472,4.472h-1.013c-1.352,0-2.446,1.094-2.446,2.446s1.094,2.446,2.446,2.446H72.151z"/>
<path style="fill:#FFFFFF;" d="M26.752,48.874c0.956-0.956,0.956-2.504,0-3.459l-4.472-4.472h1.013c1.352,0,2.446-1.094,2.446-2.446
	s-1.094-2.446-2.446-2.446h-6.918c-1.472,0-2.446,1.328-2.446,2.446v6.919c0,1.352,1.094,2.446,2.446,2.446s2.446-1.094,2.446-2.446
	v-1.013l4.472,4.472C24.248,49.83,25.796,49.83,26.752,48.874z"/>
<path style="fill:#FFFFFF;" d="M58.924,81.063v-2.446c0-3.773-1.454-7.183-3.801-9.785c-2.689,2.981-6.539,4.893-10.861,4.893
	s-8.172-1.912-10.861-4.893c-2.347,2.603-3.818,6.012-3.818,9.785v2.446c0,1.352,1.094,2.446,2.446,2.446h24.464
	C57.846,83.509,58.924,82.415,58.924,81.063z"/>
</svg>
