<?xml version="1.0" encoding="iso-8859-1"?>
<!-- Generator: Adobe Illustrator 22.1.0, SVG Export Plug-In . SVG Version: 6.00 Build 0)  -->
<svg version="1.1" id="Layer_1" xmlns="http://www.w3.org/2000/svg" xmlns:xlink="http://www.w3.org/1999/xlink" x="0px" y="0px"
	 width="91.248px" height="133.8px" viewBox="0 0 91.248 133.8" style="enable-background:new 0 0 91.248 133.8;"
	 xml:space="preserve">
<g>
	<path style="fill:#FFFFFF;" d="M60.356,93.235c-1.006-0.336-2.118-0.238-3.05,0.271l-2.928,1.6l0.403-1.197
		c0.38-1.13,0.194-2.382-0.503-3.351c-0.695-0.969-1.822-1.546-3.014-1.546c-1.527,0-2.879,0.916-3.446,2.333l-1.735,4.34h-4.119
		l-0.073-0.036l2.886-1.534c1.739-0.921,2.585-2.956,2.014-4.838c-0.328-1.085-1.068-1.969-2.081-2.481
		c-1.01-0.513-2.16-0.589-3.231-0.214l-10.95,3.841l-3.967,2.593h-8.938v-2.665H4.249v2.669h5.339v9.343h2.669v-9.343h2.697v12.012
		H4.249v2.669h13.375v-2.381l5.077,1.016l17.745,0.027l13.478-2.696l6.916-3.363c1.863-0.918,2.651-3.123,1.795-5.017
		C62.194,94.321,61.365,93.573,60.356,93.235z M50.298,92.337c0.284-0.714,1.364-0.848,1.812-0.222
		c0.198,0.276,0.251,0.619,0.141,0.941l-0.885,2.629h-2.409L50.298,92.337z M59.658,97.912l-6.43,3.173l-13.044,2.609H23.095
		l-5.471-1.094v-6.914h9.747l4.2-2.8l10.791-3.786c0.378-0.131,0.783-0.105,1.14,0.076c0.358,0.182,0.618,0.492,0.734,0.876
		c0.202,0.663-0.096,1.38-0.71,1.706l-7.458,3.965l5.265,2.633h12.669l4.585-2.505c0.284-0.157,0.614-0.19,0.924-0.083
		c0.31,0.103,0.557,0.324,0.691,0.622C60.462,96.964,60.223,97.633,59.658,97.912z"/>
	<path style="fill:#FFFFFF;" d="M80.326,24.953H10.923c-3.68,0-6.673,2.994-6.673,6.673v37.371c0,3.68,2.994,6.673,6.673,6.673
		h17.351v5.339h-5.339v2.669h12.012v-2.669h-4.004v-5.339h4.004v-2.669H10.923c-2.208,0-4.004-1.796-4.004-4.004h28.688
		c0.511,0.48,1.053,0.928,1.634,1.335h-2.293v2.669h2.669v2.669h-2.669v2.669h2.669v5.339h16.016V78.34h2.669v-2.669h-2.669v-2.669
		h2.669v-2.669h-2.294c0.581-0.407,1.124-0.854,1.634-1.335H84.33c0,2.208-1.796,4.004-4.004,4.004H56.302v2.669h4.004v5.339h-4.004
		v2.669h12.012v-2.669h-5.339v-5.339h17.351c3.68,0,6.673-2.994,6.673-6.673V31.626C86.999,27.947,84.005,24.953,80.326,24.953z
		 M50.963,81.009H40.285V78.34h10.677V81.009z M50.963,75.671H40.285v-2.669h10.677V75.671z M45.624,60.989
		c-1.472,0-2.669-1.197-2.669-2.669s1.197-2.669,2.669-2.669c1.472,0,2.669,1.197,2.669,2.669S47.096,60.989,45.624,60.989z
		 M51.629,68.712l-0.666,0.386v1.235h-4.004v-6.863c2.297-0.597,4.004-2.668,4.004-5.149c0-2.944-2.394-5.339-5.339-5.339
		c-2.944,0-5.339,2.394-5.339,5.339c0,2.481,1.707,4.553,4.004,5.149v6.863h-4.004v-1.235l-0.666-0.386
		c-3.705-2.146-6.007-6.129-6.007-10.392c0-6.624,5.388-12.012,12.012-12.012s12.012,5.388,12.012,12.012
		C57.636,62.583,55.334,66.566,51.629,68.712z M57.883,66.328c1.539-2.352,2.422-5.121,2.422-8.008
		c0-8.095-6.587-14.681-14.681-14.681S30.943,50.225,30.943,58.32c0,2.887,0.884,5.656,2.422,8.008H6.918V31.626
		c0-2.208,1.796-4.004,4.004-4.004h69.403c2.208,0,4.004,1.796,4.004,4.004v34.702H57.883z"/>
	<rect x="44.289" y="32.961" style="fill:#FFFFFF;" width="2.669" height="5.339"/>
	
		<rect x="32.945" y="36.002" transform="matrix(0.866 -0.5 0.5 0.866 -14.7435 22.3213)" style="fill:#FFFFFF;" width="2.669" height="5.339"/>
	
		<rect x="24.639" y="44.305" transform="matrix(0.5 -0.866 0.866 0.5 -27.6939 45.9803)" style="fill:#FFFFFF;" width="2.669" height="5.339"/>
	<rect x="20.265" y="56.985" style="fill:#FFFFFF;" width="5.339" height="2.669"/>
	<rect x="65.644" y="56.985" style="fill:#FFFFFF;" width="5.339" height="2.669"/>
	
		<rect x="62.603" y="45.642" transform="matrix(0.866 -0.5 0.5 0.866 -14.7435 38.9308)" style="fill:#FFFFFF;" width="5.339" height="2.669"/>
	
		<rect x="54.299" y="37.335" transform="matrix(0.4999 -0.8661 0.8661 0.4999 -5.0005 68.6786)" style="fill:#FFFFFF;" width="5.339" height="2.669"/>
</g>
</svg>
