<?xml version="1.0" encoding="iso-8859-1"?>
<!-- Generator: Adobe Illustrator 22.1.0, SVG Export Plug-In . SVG Version: 6.00 Build 0)  -->
<svg version="1.1" id="Layer_1" xmlns="http://www.w3.org/2000/svg" xmlns:xlink="http://www.w3.org/1999/xlink" x="0px" y="0px"
	 width="512px" height="512px" viewBox="-49 141 512 512" style="enable-background:new -49 141 512 512;" xml:space="preserve">
<path style="fill:#FFFFFF;" d="M207.009,183.667c-86.579,0-156.864,70.293-156.864,156.817c0,36.151,13.15,68.48,32.495,95.633
	c124.369,174.217,124.369,174.217,124.369,174.217s0,0,124.382-174.238c19.332-27.145,32.465-59.554,32.465-95.612
	C363.86,253.96,293.673,183.667,207.009,183.667z M207.009,438.399c-54.046,0-97.929-43.733-97.929-97.916
	c0-54.042,43.883-97.899,97.929-97.899c54.127,0,97.916,43.857,97.916,97.899C304.924,394.666,261.131,438.399,207.009,438.399z"/>
</svg>
