<?xml version="1.0" encoding="utf-8"?>
<!-- Generator: Adobe Illustrator 22.1.0, SVG Export Plug-In . SVG Version: 6.00 Build 0)  -->
<svg version="1.1" id="Layer_1" xmlns="http://www.w3.org/2000/svg" xmlns:xlink="http://www.w3.org/1999/xlink" x="0px" y="0px"
	 width="59.3px" height="59.3px" viewBox="0 0 59.3 59.3" style="enable-background:new 0 0 59.3 59.3;" xml:space="preserve">
<style type="text/css">
	.st0{fill:#2E90C0;}
</style>
<g>
	<path class="st0" d="M23.2,23.2v1.6h9.6c0.5,0,0.8-0.3,0.8-0.8v-4c0-0.5-0.3-0.8-0.8-0.8H11.2c-3.1,0-5.6,2.5-5.6,5.6V36h1.6V24.8
		c0-2.2,1.8-4,4-4h1l2.2,5.9c0.1,0.2,0.4,0.5,0.7,0.5c0.3,0,0.6-0.2,0.9-0.5l2.2-5.9H32v2.4H23.2z M15.3,24.2L14,20.8h2.6L15.3,24.2
		z M15.3,24.2"/>
	<path class="st0" d="M19.2,52H16V36.8h-1.6V52h-3.2V25.6H9.6v27.2c0,0.5,0.3,0.8,0.8,0.8H20c0.5,0,0.8-0.3,0.8-0.8V25.6h-1.6V52z
		 M19.2,52"/>
	<rect x="14.4" y="28.8" class="st0" width="1.6" height="1.6"/>
	<rect x="14.4" y="32" class="st0" width="1.6" height="1.6"/>
	<path class="st0" d="M14.4,18.4H16c2.2,0,4-1.8,4-4V12c0-2.2-1.8-4-4-4h-1.6c-2.2,0-4,1.8-4,4v2.4C10.4,16.7,12.2,18.4,14.4,18.4
		L14.4,18.4z M12,12c0-1.4,1-2.4,2.4-2.4H16c1.4,0,2.4,1,2.4,2.4v2.4c0,1.4-1,2.4-2.4,2.4h-1.6c-1.4,0-2.4-1-2.4-2.4V12z M12,12"/>
	<path class="st0" d="M29.6,16.8h17.6c0.5,0,0.8-0.3,0.8-0.8V6.4c0-0.5-0.3-0.8-0.8-0.8H29.6c-0.5,0-0.8,0.3-0.8,0.8V16
		C28.8,16.5,29.1,16.8,29.6,16.8L29.6,16.8z M30.4,7.2h16v8h-16V7.2z M30.4,7.2"/>
	<path class="st0" d="M36,35.2H24.8c-0.5,0-0.8,0.3-0.8,0.8v6.4c0,0.5,0.3,0.8,0.8,0.8h4.8v2.4h-4.8c-0.5,0-0.8,0.3-0.8,0.8v6.4
		c0,0.5,0.3,0.8,0.8,0.8H36c0.5,0,0.8-0.3,0.8-0.8v-6.4c0-0.5-0.3-0.8-0.8-0.8h-4.8v-2.4H36c0.5,0,0.8-0.3,0.8-0.8V36
		C36.8,35.5,36.5,35.2,36,35.2L36,35.2z M35.2,52h-9.6v-4.8h9.6V52z M35.2,41.6h-9.6v-4.8h9.6V41.6z M35.2,41.6"/>
	<path class="st0" d="M52.8,43.2c0.5,0,0.8-0.3,0.8-0.8V36c0-0.5-0.3-0.8-0.8-0.8H41.6c-0.5,0-0.8,0.3-0.8,0.8v6.4
		c0,0.5,0.3,0.8,0.8,0.8h4.8v2.4h-4.8c-0.5,0-0.8,0.3-0.8,0.8v6.4c0,0.5,0.3,0.8,0.8,0.8h11.2c0.5,0,0.8-0.3,0.8-0.8v-6.4
		c0-0.5-0.3-0.8-0.8-0.8H48v-2.4H52.8z M52,52h-9.6v-4.8H52V52z M42.4,36.8H52v4.8h-9.6V36.8z M42.4,36.8"/>
	<path class="st0" d="M48,33.6v-2.4c0-0.5-0.3-0.8-0.8-0.8h-8v-12h-1.6v12h-7.2c-0.5,0-0.8,0.3-0.8,0.8v2.4h1.6V32h15.2v1.6H48z
		 M48,33.6"/>
	<rect x="32" y="8.8" class="st0" width="9.6" height="1.6"/>
	<rect x="32" y="12" class="st0" width="12.8" height="1.6"/>
	<rect x="28" y="38.4" class="st0" width="1.6" height="1.6"/>
	<rect x="31.2" y="38.4" class="st0" width="1.6" height="1.6"/>
	<rect x="28" y="48.8" class="st0" width="1.6" height="1.6"/>
	<rect x="31.2" y="48.8" class="st0" width="1.6" height="1.6"/>
	<rect x="44.8" y="48.8" class="st0" width="1.6" height="1.6"/>
	<rect x="48" y="48.8" class="st0" width="1.6" height="1.6"/>
	<rect x="44.8" y="38.4" class="st0" width="1.6" height="1.6"/>
	<rect x="48" y="38.4" class="st0" width="1.6" height="1.6"/>
</g>
</svg>
