<?xml version="1.0" encoding="utf-8"?>
<!-- Generator: Adobe Illustrator 22.1.0, SVG Export Plug-In . SVG Version: 6.00 Build 0)  -->
<svg version="1.1" id="Layer_1" xmlns="http://www.w3.org/2000/svg" xmlns:xlink="http://www.w3.org/1999/xlink" x="0px" y="0px"
	 width="59.3px" height="59.3px" viewBox="0 0 59.3 59.3" style="enable-background:new 0 0 59.3 59.3;" xml:space="preserve">
<style type="text/css">
	.st0{fill:#2F90BC;}
</style>
<g>
	<path class="st0" d="M14.8,7.9c0-3.3,2.4-5.1,5.3-5.1s5.3,1.8,5.3,5.1s-2.4,7-5.3,7S14.8,11.2,14.8,7.9L14.8,7.9z M28.3,17.1
		c-0.4-0.4-1-0.7-1.6-0.7h-5l-0.9,1.2l1.6,9.2l-2.2,2.1L18,26.8l1.6-9.2l-0.9-1.2h-5c-1.3,0-2.3,1-2.3,2.3v14.8c0,1.3,1,2.3,2.3,2.3
		c0.3,0,0.5,0,0.8-0.1v17.7c0,1.7,1.4,3.1,3.1,3.1c1.1,0,2-0.5,2.6-1.4c0.5,0.8,1.5,1.4,2.6,1.4c1.7,0,3.1-1.4,3.1-3.1V35.6
		c0.2,0,0.4,0.1,0.6,0.1c1.3,0,2.3-1,2.4-2.3L29,18.8C29,18.2,28.8,17.6,28.3,17.1L28.3,17.1z M37.5,40.5c-0.1,0-0.3,0-0.4,0.1
		c-0.1,0-0.3,0.1-0.4,0.1c-0.3,0.2-0.5,0.6-0.5,1.4c0,0.5,0.1,0.8,0.4,1.1c0.2,0.1,0.4,0.3,0.7,0.3c0.3,0,0.7,0.1,1.2,0.1v-3.2
		c-0.1,0-0.3,0-0.5,0C37.9,40.5,37.7,40.5,37.5,40.5L37.5,40.5z M34.7,34.5h9c0.5,0,1-0.4,1-1c0-0.5-0.4-1-1-1h-9c-0.5,0-1,0.4-1,1
		S34.2,34.5,34.7,34.5L34.7,34.5z M35,32h8.5c0.3-0.3,0.5-0.8,0.5-1.3c0.1-1,0.9-3.5,0-3.9c-0.8-0.4-2,2.2-2.9,2.1
		c-0.7,0-1.2-1.9-1.9-1.9c-0.7,0-1.3,2-2,2c-0.9,0-2-2.6-2.8-2.2c-0.9,0.4-0.1,3,0,3.9C34.5,31.2,34.7,31.7,35,32L35,32z M41.3,45.6
		c-0.3-0.1-0.8-0.1-1.5-0.1v3.3c0.9,0,1.5-0.1,1.8-0.3c0.1-0.1,0.3-0.3,0.4-0.4c0.1-0.2,0.2-0.5,0.2-0.9c0-0.5-0.1-0.9-0.2-1.1
		C41.8,45.9,41.6,45.7,41.3,45.6L41.3,45.6z M49,53c-0.5,0.5-1.4,0.5-1.9,0c0,0-0.1-0.1-0.1-0.1H31.4c0,0,0,0.1-0.1,0.1
		c-0.5,0.5-1.4,0.6-1.9,0.1c-0.5-0.5-0.5-1.4,0-1.9c0.1-0.1,0.2-0.2,0.4-0.3V39.3c0-0.8,0.6-1.9,1.3-2.3l3.2-2c0.1,0,0.2,0,0.3,0
		h9.1c0.1,0,0.2,0,0.3,0l3.3,2c0.7,0.4,1.3,1.5,1.3,2.3v11.6c0.1,0.1,0.2,0.1,0.3,0.2C49.5,51.6,49.6,52.5,49,53L49,53z M44.4,47.2
		c0-1.2-0.2-2.1-0.8-2.6c-0.3-0.3-0.8-0.5-1.4-0.6c-0.6-0.1-1.4-0.2-2.4-0.2v-3.2c0.1,0,0.3,0,0.5,0c0.3,0,0.5,0,0.7,0
		c0.2,0,0.3,0.1,0.5,0.2c0.1,0.1,0.3,0.2,0.3,0.4c0.1,0.2,0.1,0.5,0.1,0.9h2c0-0.8-0.1-1.4-0.2-1.8c-0.2-0.5-0.4-0.8-0.7-1
		s-0.7-0.4-1.2-0.5c-0.5-0.1-1.1-0.1-2-0.2v-1.1h-1.3v1.1c-0.9,0-1.7,0.1-2.3,0.2c-0.6,0.1-1.1,0.4-1.5,0.9
		c-0.4,0.5-0.6,1.3-0.6,2.5c0,0.9,0.1,1.5,0.4,2c0.2,0.3,0.4,0.5,0.7,0.7c0.3,0.2,0.6,0.3,0.9,0.4c0.3,0.1,0.7,0.1,1.2,0.2
		c0.4,0,0.8,0.1,1.2,0.1v3.3c-0.4,0-0.8,0-1.3-0.1c-0.3,0-0.5-0.1-0.7-0.2c-0.2-0.1-0.3-0.3-0.4-0.5C36,47.8,36,47.4,36,46.7h-2
		c0,0.8,0.1,1.4,0.2,1.9c0.1,0.5,0.4,0.8,0.8,1.2c0.4,0.3,0.9,0.5,1.5,0.7c0.6,0.1,1.3,0.2,2.1,0.2v1.2h1.3v-1.2
		c1.4,0,2.4-0.2,3.2-0.5C43.9,49.7,44.4,48.7,44.4,47.2L44.4,47.2z"/>
</g>
</svg>
