<?xml version="1.0" encoding="utf-8"?>
<!-- Generator: Adobe Illustrator 22.1.0, SVG Export Plug-In . SVG Version: 6.00 Build 0)  -->
<svg version="1.1" id="Layer_1" xmlns="http://www.w3.org/2000/svg" xmlns:xlink="http://www.w3.org/1999/xlink" x="0px" y="0px"
	 width="234px" height="52px" viewBox="0 0 234 52" style="enable-background:new 0 0 234 52;" xml:space="preserve">
<style type="text/css">
	.st0{fill:#FFFFFF;}
	.st1{fill:url(#SVGID_1_);}
	.st2{fill:url(#SVGID_2_);}
	.st3{fill:#7ED321;}
	.st4{fill:#27BBFF;}
	.st5{fill:#FC5900;}
	.st6{fill:#F5A623;}
	.st7{fill:none;}
</style>
<g transform="translate(34 3)">
	<path class="st0" d="M31.5,40.4v-8h0.8v8H31.5z M36.1,40.4v-8h0.9l3.3,6.3v-6.3h0.8v8h-0.9l-3.3-6.3v6.3H36.1z M44.8,40.4v-8h4.3
		v0.9h-3.5v2.5h3v0.9h-3v3.6H44.8z M52.2,36.5c0-1.3,0.3-2.4,0.9-3.1c0.6-0.7,1.3-1.1,2.2-1.1c0.6,0,1.1,0.2,1.6,0.5
		c0.5,0.4,0.8,0.8,1.1,1.5c0.2,0.6,0.4,1.3,0.4,2.1c0,0.8-0.1,1.5-0.4,2.2c-0.3,0.6-0.6,1.1-1.1,1.4c-0.5,0.3-1,0.5-1.5,0.5
		c-0.6,0-1.1-0.2-1.6-0.5c-0.5-0.4-0.8-0.9-1.1-1.5S52.2,37.2,52.2,36.5z M53,36.5c0,1,0.2,1.7,0.6,2.3c0.4,0.6,0.9,0.8,1.6,0.8
		c0.6,0,1.2-0.3,1.6-0.8c0.4-0.6,0.6-1.3,0.6-2.4c0-0.6-0.1-1.2-0.3-1.7c-0.2-0.5-0.4-0.9-0.8-1.1c-0.3-0.3-0.7-0.4-1.1-0.4
		c-0.6,0-1.1,0.3-1.5,0.8S53,35.3,53,36.5z M61.6,40.4v-8h2.8c0.6,0,1,0.1,1.3,0.2c0.3,0.1,0.5,0.4,0.7,0.8c0.2,0.4,0.3,0.8,0.3,1.2
		c0,0.6-0.1,1-0.4,1.4s-0.7,0.6-1.4,0.7c0.2,0.1,0.4,0.3,0.5,0.4c0.2,0.3,0.5,0.6,0.7,1.1l1.1,2.2h-1.1l-0.8-1.7
		c-0.2-0.5-0.4-0.8-0.6-1.1c-0.2-0.3-0.3-0.4-0.4-0.5c-0.1-0.1-0.3-0.2-0.4-0.2c-0.1,0-0.3,0-0.5,0h-1v3.5H61.6z M62.4,35.9h1.8
		c0.4,0,0.7,0,0.9-0.1c0.2-0.1,0.4-0.3,0.5-0.5c0.1-0.2,0.2-0.5,0.2-0.7c0-0.4-0.1-0.7-0.3-0.9c-0.2-0.2-0.6-0.4-1-0.4h-2V35.9z
		 M70.2,40.4v-8h1.3L73,38c0.1,0.5,0.2,0.9,0.3,1.2c0.1-0.3,0.2-0.7,0.3-1.3l1.5-5.5h1.1v8h-0.8v-6.7l-1.9,6.7h-0.8L71,33.6v6.8
		H70.2z M79.9,40.4v-8h4.6v0.9h-3.8v2.4h3.5v0.9h-3.5v2.7h3.9v0.9H79.9z M88,40.4v-8h2.2c0.5,0,0.9,0,1.1,0.1
		c0.4,0.1,0.7,0.3,0.9,0.6c0.3,0.4,0.6,0.8,0.8,1.4c0.2,0.6,0.3,1.2,0.3,1.9c0,0.6-0.1,1.1-0.2,1.6c-0.1,0.5-0.3,0.9-0.4,1.2
		s-0.4,0.5-0.6,0.7c-0.2,0.2-0.5,0.3-0.8,0.4s-0.6,0.1-1,0.1H88z M88.9,39.4h1.4c0.4,0,0.8,0,1-0.1c0.2-0.1,0.4-0.2,0.6-0.4
		c0.2-0.2,0.4-0.6,0.5-1c0.1-0.4,0.2-0.9,0.2-1.5c0-0.8-0.1-1.5-0.3-1.9c-0.2-0.4-0.5-0.7-0.8-0.9c-0.2-0.1-0.6-0.2-1.1-0.2h-1.3
		V39.4z"/>
	<path class="st0" d="M103.6,40.4v-8h0.8v8H103.6z M107.9,40.4v-8h0.8l3.2,6.3v-6.3h0.8v8h-0.8l-3.2-6.3v6.3H107.9z M117.6,40.4v-7
		h-2v-0.9h4.8v0.9h-2v7H117.6z M123.3,40.4v-8h4.3v0.9h-3.5v2.4h3.3v0.9h-3.3v2.7h3.7v0.9H123.3z M130.9,40.4v-8h0.8v7h3v0.9H130.9z
		 M137.7,40.4v-8h0.8v7h3v0.9H137.7z M144.6,40.4v-8h0.8v8H144.6z M151.7,37.2v-0.9l2.5,0v3c-0.4,0.4-0.8,0.7-1.2,0.9
		c-0.4,0.2-0.8,0.3-1.3,0.3c-0.6,0-1.1-0.2-1.6-0.5c-0.5-0.3-0.8-0.8-1.1-1.5c-0.2-0.6-0.4-1.3-0.4-2.1c0-0.8,0.1-1.5,0.4-2.2
		c0.2-0.7,0.6-1.2,1.1-1.5c0.5-0.3,1-0.5,1.6-0.5c0.4,0,0.8,0.1,1.2,0.3c0.4,0.2,0.6,0.4,0.8,0.8c0.2,0.3,0.4,0.8,0.5,1.3l-0.7,0.3
		c-0.1-0.4-0.2-0.7-0.3-1s-0.3-0.4-0.6-0.6c-0.2-0.1-0.5-0.2-0.8-0.2c-0.4,0-0.7,0.1-0.9,0.2c-0.3,0.1-0.5,0.3-0.6,0.6
		c-0.2,0.2-0.3,0.5-0.4,0.8c-0.2,0.5-0.2,1-0.2,1.6c0,0.7,0.1,1.3,0.3,1.8c0.2,0.5,0.5,0.8,0.8,1.1c0.4,0.2,0.7,0.3,1.1,0.3
		c0.3,0,0.7-0.1,1-0.3c0.3-0.2,0.6-0.4,0.7-0.6v-1.5H151.7z M157.5,40.4v-8h4.3v0.9h-3.5v2.4h3.3v0.9h-3.3v2.7h3.7v0.9H157.5z
		 M165.2,40.4v-8h0.8l3.2,6.3v-6.3h0.8v8h-0.8l-3.2-6.3v6.3H165.2z M177.6,37.6l0.8,0.3c-0.2,0.9-0.5,1.5-0.9,2
		c-0.4,0.5-1,0.7-1.6,0.7c-0.6,0-1.2-0.2-1.6-0.5c-0.4-0.3-0.7-0.9-0.9-1.5s-0.3-1.4-0.3-2.1c0-0.8,0.1-1.6,0.4-2.2
		c0.2-0.6,0.6-1.1,1-1.4c0.4-0.3,0.9-0.5,1.5-0.5c0.6,0,1.1,0.2,1.5,0.6c0.4,0.4,0.7,1,0.9,1.7l-0.8,0.2c-0.1-0.6-0.3-1-0.6-1.3
		c-0.3-0.3-0.6-0.4-1-0.4c-0.5,0-0.8,0.1-1.2,0.4c-0.3,0.3-0.5,0.7-0.7,1.2s-0.2,1-0.2,1.5c0,0.7,0.1,1.3,0.2,1.8
		c0.1,0.5,0.4,0.9,0.7,1.1c0.3,0.2,0.7,0.4,1,0.4c0.4,0,0.8-0.2,1.1-0.5C177.3,38.8,177.5,38.2,177.6,37.6z M181.5,40.4v-8h4.3v0.9
		h-3.5v2.4h3.3v0.9h-3.3v2.7h3.7v0.9H181.5z M31.5,18.5c0,5,4.1,7.2,8.6,7.2c5.5,0,8.4-2.8,8.4-6.5c0-4.6-4.5-5.5-6-5.9
		c-5.1-1.2-6-1.6-6-3.1c0-1.7,1.6-2.3,3.1-2.3c1.4,0,3.5,0.1,4,2.4l4.3,0.6c0-4.7-3.9-6.5-8.1-6.5c-3.7,0-7.6,2-7.6,6.1
		c0,7.6,12.1,4.8,12.1,9.1c0,2.1-2.4,2.5-3.9,2.5c-1.6,0-4-0.4-4.5-3L31.5,18.5z M53.3,25.2h-4.1L58.5,5H63L72,25.2h-4.3l-2-4.5
		H55.5L53.3,25.2z M60.8,8.8L60.8,8.8l-3.4,7.8h6.7L60.8,8.8z M93.3,14.4c-3.5,0-7.5,0-10.4,0v3.7c0,0,0.3,0,0.8,0
		c1.1,0,3.2,0,4.1,0h0.5c-0.8,1.9-3.1,3.1-5.4,3.1c-3.4,0-6.1-2.7-6.1-6.1c0-3.4,2.7-6.1,6.1-6.1c2.3,0,4.2,1.2,5.2,3
		c2-1,2.1-1.1,3.9-2c-1.8-3.1-5.2-5.3-9.2-5.3c-5.8,0-10.5,4.7-10.5,10.5c0,5.8,4.7,10.5,10.5,10.5c3.9,0,7.5-2.2,9.2-5.4
		C93.2,18.7,93.3,15,93.3,14.4z M97.8,25.2h-4.1L102.9,5h4.5l9.1,20.2h-4.3l-2-4.5H99.9L97.8,25.2z M105.2,8.8L105.2,8.8l-3.4,7.8
		h6.7L105.2,8.8z M136.8,19.8c-1.8-0.8-1.9-0.9-3.8-1.9c-1,1.9-3,3.1-5.3,3.1c-3.3,0-6-2.7-6-6c0-3.3,2.7-6,6-6
		c2.2,0,4.1,1.2,5.1,2.9c1.9-0.9,2.1-1,3.8-1.9c-1.7-3.1-5-5.2-8.9-5.2c-5.7,0-10.3,4.7-10.3,10.3c0,5.7,4.6,10.3,10.3,10.3
		C131.7,25.3,135.1,23,136.8,19.8z M139.6,25.2h4.5V4.9h-4.5V25.2z M153.1,25.2h4.5V8.7h6.4V5h-17.3v3.7h6.4V25.2z M186,15
		c0,5.8-4.7,10.5-10.5,10.5c-5.8,0-10.5-4.7-10.5-10.5c0-5.8,4.7-10.5,10.5-10.5C181.3,4.5,186,9.2,186,15z M175.5,8.8
		c-3.4,0-6.2,2.8-6.2,6.2s2.8,6.2,6.2,6.2c3.4,0,6.1-2.8,6.1-6.2S178.9,8.8,175.5,8.8z"/>
</g>
<g transform="translate(4 3)">
	
		<linearGradient id="SVGID_1_" gradientUnits="userSpaceOnUse" x1="100.3133" y1="33.0447" x2="99.1708" y2="32.8991" gradientTransform="matrix(20 0 0 -16 -1960.5002 544)">
		<stop  offset="0" style="stop-color:#008ECF"/>
		<stop  offset="1" style="stop-color:#005CA9"/>
	</linearGradient>
	<path class="st1" d="M31.1,29.2H31c-7,0-12.7-5.6-12.7-12.4C18.3,10,24,4.4,31.1,4.5h18.1v6.4c0,3.5-2.9,6.4-6.6,6.4H31.1V29.2z"/>
	
		<linearGradient id="SVGID_2_" gradientUnits="userSpaceOnUse" x1="99.3768" y1="32.4727" x2="100.3363" y2="32.8893" gradientTransform="matrix(20 0 0 -16 -1962.4998 552)">
		<stop  offset="0" style="stop-color:#008ECF"/>
		<stop  offset="1" style="stop-color:#005CA9"/>
	</linearGradient>
	<path class="st2" d="M33.3,16.8L33.3,16.8c7.1,0,12.8,5.6,12.8,12.4s-5.8,12.3-12.8,12.3H15.2v-6.4c0-3.5,2.9-6.4,6.6-6.4h11.5
		V16.8z"/>
	<g transform="translate(7 8)">
		<circle class="st0" cx="25.2" cy="15" r="6.2"/>
		<path class="st3" d="M20.6,15.8h3.2c0.1,0.2,0.3,0.4,0.6,0.6v3.2C22.5,19.2,20.9,17.7,20.6,15.8z M20.5,15h3.1H20.5z M25.2,19.6
			v-3.1V19.6z"/>
		<path class="st4" d="M25.9,19.6v-3.2c0.5-0.3,0.8-0.8,0.8-1.3h3.1C29.8,17.3,28.1,19.2,25.9,19.6z M25.2,19.6v-3.1V19.6z"/>
		<path class="st5" d="M29.7,14.2h-3.2c-0.1-0.2-0.3-0.4-0.6-0.6v-3.2C27.9,10.8,29.4,12.3,29.7,14.2z M29.8,15h-3.1H29.8z
			 M25.2,13.5v-3.1V13.5z"/>
		<path class="st6" d="M24.4,10.4v3.2c-0.2,0.1-0.4,0.3-0.6,0.6h-3.2C20.9,12.3,22.5,10.8,24.4,10.4z M25.2,10.4v3.1V10.4z M23.6,15
			h-3.1H23.6z"/>
	</g>
</g>
<rect x="13" y="2.8" class="st7" width="46.3" height="46.3"/>
</svg>
