<?xml version="1.0" encoding="utf-8"?>
<!-- Generator: Adobe Illustrator 22.1.0, SVG Export Plug-In . SVG Version: 6.00 Build 0)  -->
<svg version="1.1" id="Layer_1" xmlns="http://www.w3.org/2000/svg" xmlns:xlink="http://www.w3.org/1999/xlink" x="0px" y="0px"
	 width="209.3px" height="46.5px" viewBox="0 0 209.3 46.5" style="enable-background:new 0 0 209.3 46.5;" xml:space="preserve">
<style type="text/css">
	.st0{fill:#001ECA;}
	.st1{fill:#4A4A4A;}
	.st2{fill:url(#SVGID_1_);}
	.st3{fill:url(#SVGID_2_);}
	.st4{fill:#FFFFFF;}
	.st5{fill:#7ED321;}
	.st6{fill:#27BBFF;}
	.st7{fill:#FC5900;}
	.st8{fill:#F5A623;}
	.st9{fill:none;}
</style>
<g>
	<g transform="translate(34 3)">
		<path class="st0" d="M20.4,37.2v-7.8h0.8v7.8H20.4z M24.8,37.2v-7.8h0.8l3.3,6.1v-6.1h0.8v7.8h-0.8l-3.3-6.1v6.1H24.8z M33.3,37.2
			v-7.8h4.2v0.9h-3.4v2.4h2.9v0.9h-2.9v3.5H33.3z M40.5,33.4c0-1.3,0.3-2.3,0.8-3c0.6-0.7,1.3-1.1,2.1-1.1c0.6,0,1.1,0.2,1.6,0.5
			s0.8,0.8,1.1,1.4c0.2,0.6,0.4,1.3,0.4,2.1c0,0.8-0.1,1.5-0.4,2.1c-0.3,0.6-0.6,1.1-1.1,1.4c-0.5,0.3-1,0.5-1.5,0.5
			c-0.6,0-1.1-0.2-1.6-0.5c-0.5-0.4-0.8-0.8-1-1.4C40.6,34.7,40.5,34.1,40.5,33.4z M41.4,33.4c0,0.9,0.2,1.7,0.6,2.2
			c0.4,0.5,0.9,0.8,1.5,0.8c0.6,0,1.1-0.3,1.5-0.8c0.4-0.5,0.6-1.3,0.6-2.3c0-0.6-0.1-1.2-0.3-1.7c-0.2-0.5-0.4-0.8-0.8-1.1
			c-0.3-0.3-0.7-0.4-1.1-0.4c-0.6,0-1.1,0.2-1.5,0.7C41.6,31.4,41.4,32.3,41.4,33.4z M49.7,37.2v-7.8h2.8c0.6,0,1,0.1,1.3,0.2
			s0.5,0.4,0.7,0.7c0.2,0.4,0.3,0.7,0.3,1.2c0,0.6-0.1,1-0.4,1.4c-0.3,0.4-0.7,0.6-1.3,0.7c0.2,0.1,0.4,0.3,0.5,0.4
			c0.2,0.3,0.5,0.6,0.7,1l1.1,2.1h-1l-0.8-1.6c-0.2-0.5-0.4-0.8-0.6-1.1c-0.2-0.2-0.3-0.4-0.4-0.5s-0.2-0.2-0.4-0.2
			c-0.1,0-0.2,0-0.5,0h-1v3.5H49.7z M50.5,32.9h1.8c0.4,0,0.7,0,0.9-0.1c0.2-0.1,0.4-0.3,0.5-0.5c0.1-0.2,0.2-0.4,0.2-0.7
			c0-0.4-0.1-0.7-0.3-0.9c-0.2-0.2-0.6-0.4-1-0.4h-2V32.9z M58.1,37.2v-7.8h1.2l1.5,5.5c0.1,0.5,0.2,0.9,0.3,1.2
			c0.1-0.3,0.2-0.7,0.3-1.2l1.5-5.4h1.1v7.8h-0.8v-6.5l-1.8,6.5h-0.7l-1.8-6.6v6.6H58.1z M67.6,37.2v-7.8h4.5v0.9h-3.7v2.4h3.4v0.9
			h-3.4v2.6h3.8v0.9H67.6z M75.5,37.2v-7.8h2.1c0.5,0,0.9,0,1.1,0.1c0.4,0.1,0.7,0.3,0.9,0.6c0.3,0.3,0.6,0.8,0.7,1.3
			c0.2,0.5,0.2,1.2,0.2,1.8c0,0.6-0.1,1.1-0.2,1.6c-0.1,0.5-0.3,0.8-0.4,1.1s-0.4,0.5-0.6,0.7s-0.5,0.3-0.7,0.4
			c-0.3,0.1-0.6,0.1-1,0.1H75.5z M76.4,36.3h1.3c0.4,0,0.7,0,1-0.1c0.2-0.1,0.4-0.2,0.6-0.4c0.2-0.2,0.3-0.6,0.5-1
			c0.1-0.4,0.2-0.9,0.2-1.5c0-0.8-0.1-1.4-0.3-1.9s-0.5-0.7-0.8-0.9c-0.2-0.1-0.6-0.2-1.1-0.2h-1.3V36.3z"/>
		<path class="st1" d="M90.7,37.2v-7.8h0.8v7.8H90.7z M94.9,37.2v-7.8h0.8l3.1,6.1v-6.1h0.7v7.8h-0.8l-3.1-6.1v6.1H94.9z
			 M104.4,37.2v-6.9h-1.9v-0.9h4.6v0.9h-1.9v6.9H104.4z M109.9,37.2v-7.8h4.2v0.9h-3.5v2.4h3.2v0.9h-3.2v2.6h3.6v0.9H109.9z
			 M117.4,37.2v-7.8h0.8v6.9h2.9v0.9H117.4z M124,37.2v-7.8h0.8v6.9h2.9v0.9H124z M130.7,37.2v-7.8h0.8v7.8H130.7z M137.7,34.2v-0.9
			l2.5,0v2.9c-0.4,0.4-0.8,0.7-1.2,0.9c-0.4,0.2-0.8,0.3-1.2,0.3c-0.6,0-1.1-0.2-1.6-0.5s-0.8-0.8-1.1-1.4c-0.2-0.6-0.4-1.3-0.4-2.1
			c0-0.8,0.1-1.5,0.4-2.1c0.2-0.7,0.6-1.1,1-1.5c0.4-0.3,1-0.5,1.5-0.5c0.4,0,0.8,0.1,1.1,0.3c0.3,0.2,0.6,0.4,0.8,0.8
			c0.2,0.3,0.3,0.7,0.4,1.3l-0.7,0.3c-0.1-0.4-0.2-0.7-0.3-0.9c-0.1-0.2-0.3-0.4-0.6-0.5c-0.2-0.1-0.5-0.2-0.8-0.2
			c-0.4,0-0.7,0.1-0.9,0.2c-0.3,0.1-0.5,0.3-0.6,0.6c-0.2,0.2-0.3,0.5-0.4,0.8c-0.1,0.5-0.2,1-0.2,1.6c0,0.7,0.1,1.3,0.3,1.7
			c0.2,0.5,0.4,0.8,0.8,1c0.3,0.2,0.7,0.3,1.1,0.3c0.3,0,0.7-0.1,1-0.3s0.6-0.4,0.7-0.5v-1.4H137.7z M143.3,37.2v-7.8h4.2v0.9h-3.5
			v2.4h3.2v0.9h-3.2v2.6h3.6v0.9H143.3z M150.8,37.2v-7.8h0.8l3.1,6.1v-6.1h0.7v7.8h-0.8l-3.1-6.1v6.1H150.8z M163,34.5l0.8,0.3
			c-0.2,0.8-0.5,1.5-0.9,1.9c-0.4,0.4-0.9,0.7-1.5,0.7c-0.6,0-1.1-0.2-1.5-0.5c-0.4-0.3-0.7-0.8-0.9-1.5c-0.2-0.6-0.3-1.3-0.3-2.1
			c0-0.8,0.1-1.5,0.3-2.1c0.2-0.6,0.6-1.1,1-1.4c0.4-0.3,0.9-0.5,1.4-0.5c0.6,0,1.1,0.2,1.5,0.6c0.4,0.4,0.7,1,0.8,1.7l-0.8,0.2
			c-0.1-0.6-0.3-1-0.6-1.2c-0.3-0.3-0.6-0.4-1-0.4c-0.5,0-0.8,0.1-1.1,0.4c-0.3,0.3-0.5,0.7-0.6,1.2s-0.2,1-0.2,1.5
			c0,0.7,0.1,1.2,0.2,1.7c0.1,0.5,0.4,0.9,0.7,1.1c0.3,0.2,0.6,0.4,1,0.4c0.4,0,0.8-0.2,1.1-0.5C162.7,35.6,162.9,35.1,163,34.5z
			 M166.8,37.2v-7.8h4.2v0.9h-3.5v2.4h3.2v0.9h-3.2v2.6h3.6v0.9H166.8z M20.4,15.8c0,4.9,4,7,8.4,7c5.4,0,8.2-2.7,8.2-6.3
			c0-4.5-4.4-5.4-5.9-5.8c-5-1.2-5.9-1.5-5.9-3c0-1.7,1.6-2.2,3-2.2c1.4,0,3.4,0.1,3.9,2.4l4.2,0.6c0-4.6-3.8-6.4-7.9-6.4
			c-3.6,0-7.4,1.9-7.4,6c0,7.4,11.8,4.7,11.8,8.9c0,2-2.3,2.5-3.8,2.5c-1.6,0-3.9-0.4-4.4-3L20.4,15.8z M41.7,22.4h-4l9-19.7h4.4
			l8.8,19.7h-4.2L53.7,18h-10L41.7,22.4z M49,6.4L49,6.4L45.6,14h6.6L49,6.4z M80.7,11.9c-3.4,0-7.3,0-10.1,0v3.7c0,0,0.2,0,0.8,0
			c1.1,0,3.1,0,4,0h0.4c-0.8,1.9-3,3-5.2,3c-3.3,0-6-2.6-6-6c0-3.3,2.7-6,6-6c2.2,0,4.1,1.1,5.1,2.9c1.9-1,2.1-1.1,3.8-1.9
			c-1.8-3.1-5.1-5.2-8.9-5.2c-5.6,0-10.2,4.6-10.2,10.2c0,5.6,4.6,10.2,10.2,10.2c3.8,0,7.3-2.1,9-5.3
			C80.5,16.1,80.7,12.4,80.7,11.9z M85,22.4h-4l9-19.7h4.4l8.8,19.7H99L97.1,18h-10L85,22.4z M92.3,6.4L92.3,6.4L89,14h6.6L92.3,6.4
			z M123.1,17.1c-1.8-0.8-1.8-0.9-3.7-1.9c-1,1.9-2.9,3.1-5.2,3.1c-3.2,0-5.9-2.6-5.9-5.9c0-3.2,2.6-5.9,5.9-5.9c2.1,0,4,1.2,5,2.9
			c1.9-0.9,2-1,3.7-1.9c-1.7-3-4.9-5.1-8.7-5.1c-5.5,0-10,4.5-10,10c0,5.5,4.5,10,10,10C118.2,22.5,121.4,20.3,123.1,17.1z
			 M125.8,22.4h4.3V2.6h-4.3V22.4z M139,22.4h4.3V6.3h6.2V2.7h-16.9v3.6h6.3V22.4z M171.1,12.4c0,5.6-4.6,10.2-10.2,10.2
			c-5.6,0-10.2-4.6-10.2-10.2c0-5.7,4.6-10.2,10.2-10.2C166.5,2.2,171.1,6.8,171.1,12.4z M160.9,6.4c-3.3,0-6,2.8-6,6.1s2.7,6,6,6
			c3.3,0,6-2.7,6-6S164.2,6.4,160.9,6.4z"/>
	</g>
	<g transform="translate(4 3)">
		
			<linearGradient id="SVGID_1_" gradientUnits="userSpaceOnUse" x1="88.0189" y1="30.283" x2="86.904" y2="30.141" gradientTransform="matrix(20 0 0 -16 -1725.3751 497.25)">
			<stop  offset="0" style="stop-color:#008ECF"/>
			<stop  offset="1" style="stop-color:#005CA9"/>
		</linearGradient>
		<path class="st2" d="M20.7,26.3h-0.1c-6.9,0-12.4-5.4-12.4-12.1s5.6-12,12.5-12h17.7v6.2c0,3.4-2.9,6.2-6.4,6.2H20.7V26.3z"/>
		
			<linearGradient id="SVGID_2_" gradientUnits="userSpaceOnUse" x1="87.1074" y1="29.7369" x2="88.0437" y2="30.1435" gradientTransform="matrix(20 0 0 -16 -1727.3749 505.25)">
			<stop  offset="0" style="stop-color:#008ECF"/>
			<stop  offset="1" style="stop-color:#005CA9"/>
		</linearGradient>
		<path class="st3" d="M22.8,14.2L22.8,14.2c7,0,12.5,5.4,12.5,12.1c0,6.7-5.6,12-12.5,12H5.2v-6.2c0-3.4,2.9-6.2,6.4-6.2h11.2V14.2
			z"/>
		<g transform="translate(7 8)">
			<circle class="st4" cx="14.7" cy="12.3" r="6"/>
			<path class="st5" d="M10.3,13h3.2c0.1,0.2,0.3,0.4,0.6,0.6v3.2C12.1,16.4,10.6,14.9,10.3,13z M10.2,12.3h3H10.2z M14.7,16.8v-3
				V16.8z"/>
			<path class="st6" d="M15.5,16.7v-3.2c0.5-0.3,0.8-0.7,0.8-1.3h3C19.3,14.5,17.6,16.4,15.5,16.7z M14.7,16.8v-3V16.8z"/>
			<path class="st7" d="M19.2,11.5H16c-0.1-0.2-0.3-0.4-0.6-0.6V7.8C17.4,8.1,18.9,9.6,19.2,11.5z M19.3,12.3h-3H19.3z M14.7,10.7
				v-3V10.7z"/>
			<path class="st8" d="M14,7.8v3.2c-0.2,0.1-0.4,0.3-0.6,0.6h-3.2C10.6,9.6,12.1,8.1,14,7.8z M14.7,7.7v3V7.7z M13.2,12.3h-3H13.2z
				"/>
		</g>
	</g>
	<rect x="3.1" y="0.6" class="st9" width="45.2" height="45.2"/>
</g>
</svg>
