<?xml version="1.0" encoding="iso-8859-1"?>
<!-- Generator: Adobe Illustrator 22.1.0, SVG Export Plug-In . SVG Version: 6.00 Build 0)  -->
<svg version="1.1" id="Layer_1" xmlns="http://www.w3.org/2000/svg" xmlns:xlink="http://www.w3.org/1999/xlink" x="0px" y="0px"
	 width="91.248px" height="133.8px" viewBox="0 0 91.248 133.8" style="enable-background:new 0 0 91.248 133.8;"
	 xml:space="preserve">
<g>
	<path style="fill:#FFFFFF;" d="M84.672,28.303H4.974c-0.826,0-1.376,0.55-1.376,1.376v63.213c0,0.818,0.55,1.367,1.376,1.367h5.495
		v15.117c0,0.826,0.55,1.376,1.376,1.376h65.956c0.826,0,1.376-0.55,1.376-1.376V94.259h5.495c0.826,0,1.376-0.55,1.376-1.367
		V29.679C86.048,28.853,85.498,28.303,84.672,28.303L84.672,28.303z M83.296,31.055v8.238H6.35v-8.238H83.296z M76.425,61.281H13.22
		v-8.247h63.205V61.281z M13.22,108.001V64.033h63.205v43.968H13.22z M79.177,91.516V51.667c0-0.826-0.55-1.376-1.376-1.376H11.845
		c-0.826,0-1.376,0.55-1.376,1.376v39.849H6.35V42.045h76.946v49.472H79.177z M79.177,91.516"/>
	<rect x="9.093" y="33.798" style="fill:#FFFFFF;" width="5.495" height="2.752"/>
	<rect x="17.339" y="33.798" style="fill:#FFFFFF;" width="5.495" height="2.752"/>
	<rect x="15.964" y="55.786" style="fill:#FFFFFF;" width="5.495" height="2.752"/>
	<rect x="24.21" y="55.786" style="fill:#FFFFFF;" width="5.495" height="2.752"/>
	<rect x="77.801" y="33.798" style="fill:#FFFFFF;" width="2.752" height="2.752"/>
	<rect x="72.306" y="33.798" style="fill:#FFFFFF;" width="2.752" height="2.752"/>
	<rect x="70.93" y="55.786" style="fill:#FFFFFF;" width="2.752" height="2.752"/>
	<rect x="65.435" y="55.786" style="fill:#FFFFFF;" width="2.752" height="2.752"/>
	<path style="fill:#FFFFFF;" d="M18.715,92.892h21.988c0.818,0,1.367-0.551,1.367-1.376V69.528c0-0.824-0.55-1.376-1.367-1.376
		H18.715c-0.826,0-1.376,0.551-1.376,1.376v21.988C17.339,92.341,17.889,92.892,18.715,92.892L18.715,92.892z M20.091,81.893h8.238
		v8.247h-8.238V81.893z M31.081,90.14v-8.247h8.247v8.247H31.081z M39.328,79.15h-8.247v-8.247h8.247V79.15z M28.329,70.904v8.247
		h-8.238v-8.247H28.329z M28.329,70.904"/>
	<rect x="46.199" y="68.152" style="fill:#FFFFFF;" width="5.495" height="2.752"/>
	<rect x="46.199" y="73.647" style="fill:#FFFFFF;" width="2.745" height="2.752"/>
	<rect x="51.693" y="73.647" style="fill:#FFFFFF;" width="2.752" height="2.752"/>
	<rect x="57.188" y="73.647" style="fill:#FFFFFF;" width="2.752" height="2.752"/>
	<rect x="62.683" y="73.647" style="fill:#FFFFFF;" width="2.752" height="2.752"/>
	<rect x="68.187" y="73.647" style="fill:#FFFFFF;" width="2.745" height="2.752"/>
	<rect x="55.813" y="68.152" style="fill:#FFFFFF;" width="5.502" height="2.752"/>
	<rect x="65.435" y="68.152" style="fill:#FFFFFF;" width="5.495" height="2.752"/>
	<rect x="46.199" y="79.15" style="fill:#FFFFFF;" width="24.731" height="2.745"/>
	<rect x="46.199" y="84.645" style="fill:#FFFFFF;" width="24.731" height="2.745"/>
	<rect x="46.199" y="90.14" style="fill:#FFFFFF;" width="24.731" height="2.752"/>
	<rect x="17.339" y="98.387" style="fill:#FFFFFF;" width="2.752" height="2.745"/>
	<rect x="22.834" y="98.387" style="fill:#FFFFFF;" width="2.752" height="2.745"/>
	<rect x="28.329" y="98.387" style="fill:#FFFFFF;" width="2.752" height="2.745"/>
	<rect x="33.833" y="98.387" style="fill:#FFFFFF;" width="37.099" height="2.745"/>
</g>
</svg>
