<?xml version="1.0" encoding="utf-8"?>
<!-- Generator: Adobe Illustrator 22.1.0, SVG Export Plug-In . SVG Version: 6.00 Build 0)  -->
<svg version="1.1" id="Layer_1" xmlns="http://www.w3.org/2000/svg" xmlns:xlink="http://www.w3.org/1999/xlink" x="0px" y="0px"
	 width="279.8px" height="53px" viewBox="0 0 279.8 53" style="enable-background:new 0 0 279.8 53;" xml:space="preserve">
<style type="text/css">
	.st0{fill:#001ECA;}
	.st1{fill:#0052FF;}
	.st2{fill:url(#SVGID_1_);}
	.st3{fill:url(#SVGID_2_);}
	.st4{fill:#FFFFFF;}
	.st5{fill:#7ED321;}
	.st6{fill:#27BBFF;}
	.st7{fill:#FC5900;}
	.st8{fill:#F5A623;}
	.st9{fill:none;}
</style>
<g transform="translate(-3.303 -2.2)">
	<g transform="translate(35 3)">
		<path class="st0" d="M57.6,42.9v-7.7h0.8v7.7H57.6z M62,42.9v-7.7h0.8l3.3,6.1v-6.1h0.8v7.7H66l-3.3-6.1v6.1H62z M70.5,42.9v-7.7
			h4.2v0.9h-3.4v2.4h2.9v0.9h-2.9v3.5H70.5z M77.6,39.1c0-1.3,0.3-2.3,0.8-3s1.3-1.1,2.1-1.1c0.6,0,1.1,0.2,1.5,0.5
			c0.5,0.3,0.8,0.8,1.1,1.4c0.2,0.6,0.4,1.3,0.4,2.1c0,0.8-0.1,1.5-0.4,2.1c-0.3,0.6-0.6,1.1-1.1,1.4c-0.5,0.3-1,0.5-1.5,0.5
			c-0.6,0-1.1-0.2-1.6-0.5c-0.5-0.4-0.8-0.8-1-1.4C77.8,40.5,77.6,39.8,77.6,39.1z M78.5,39.1c0,0.9,0.2,1.7,0.6,2.2
			c0.4,0.5,0.9,0.8,1.5,0.8c0.6,0,1.1-0.3,1.5-0.8c0.4-0.5,0.6-1.3,0.6-2.3c0-0.6-0.1-1.2-0.3-1.7s-0.4-0.8-0.7-1.1
			c-0.3-0.3-0.7-0.4-1.1-0.4c-0.6,0-1.1,0.2-1.5,0.7C78.7,37.1,78.5,38,78.5,39.1z M86.8,42.9v-7.7h2.8c0.6,0,1,0.1,1.3,0.2
			s0.5,0.4,0.7,0.7c0.2,0.4,0.3,0.7,0.3,1.2c0,0.5-0.1,1-0.4,1.4c-0.3,0.4-0.7,0.6-1.3,0.7c0.2,0.1,0.4,0.3,0.5,0.4
			c0.2,0.3,0.5,0.6,0.7,1l1.1,2.1h-1l-0.8-1.6c-0.2-0.5-0.4-0.8-0.6-1.1c-0.2-0.2-0.3-0.4-0.4-0.5c-0.1-0.1-0.2-0.2-0.4-0.2
			c-0.1,0-0.2,0-0.5,0h-1v3.4H86.8z M87.6,38.6h1.8c0.4,0,0.7,0,0.9-0.1s0.4-0.3,0.5-0.5c0.1-0.2,0.2-0.4,0.2-0.7
			c0-0.4-0.1-0.7-0.3-0.9c-0.2-0.2-0.5-0.4-1-0.4h-2V38.6z M95.2,42.9v-7.7h1.2l1.5,5.5c0.1,0.5,0.2,0.9,0.3,1.1
			c0.1-0.3,0.2-0.7,0.3-1.2l1.5-5.4h1.1v7.7h-0.8v-6.5l-1.8,6.5h-0.7L96,36.3v6.6H95.2z M104.6,42.9v-7.7h4.5v0.9h-3.7v2.4h3.4v0.9
			h-3.4V42h3.8v0.9H104.6z M112.6,42.9v-7.7h2.1c0.5,0,0.9,0,1.1,0.1c0.4,0.1,0.7,0.3,0.9,0.6c0.3,0.3,0.6,0.8,0.7,1.3
			c0.2,0.5,0.2,1.2,0.2,1.8c0,0.6-0.1,1.1-0.2,1.6c-0.1,0.5-0.3,0.8-0.4,1.1c-0.2,0.3-0.4,0.5-0.6,0.7c-0.2,0.2-0.5,0.3-0.7,0.4
			s-0.6,0.1-1,0.1H112.6z M113.4,42h1.3c0.4,0,0.7,0,1-0.1c0.2-0.1,0.4-0.2,0.6-0.4c0.2-0.2,0.3-0.6,0.5-1c0.1-0.4,0.2-0.9,0.2-1.5
			c0-0.8-0.1-1.4-0.3-1.9c-0.2-0.4-0.5-0.7-0.8-0.9c-0.2-0.1-0.6-0.2-1.1-0.2h-1.3V42z M127.7,42.9v-7.8h0.8v7.8H127.7z M131.9,42.9
			v-7.8h0.8l3.1,6.1v-6.1h0.7v7.8h-0.8l-3.1-6.1v6.1H131.9z M141.3,42.9v-6.8h-1.9v-0.9h4.6v0.9h-1.9v6.8H141.3z M146.9,42.9v-7.8
			h4.2v0.9h-3.4v2.4h3.2v0.9h-3.2V42h3.6v0.9H146.9z M154.3,42.9v-7.8h0.8V42h2.9v0.9H154.3z M160.9,42.9v-7.8h0.8V42h2.9v0.9H160.9
			z M167.6,42.9v-7.8h0.8v7.8H167.6z M174.5,39.9V39l2.5,0v2.9c-0.4,0.4-0.8,0.7-1.2,0.9c-0.4,0.2-0.8,0.3-1.2,0.3
			c-0.6,0-1.1-0.2-1.6-0.5c-0.5-0.3-0.8-0.8-1.1-1.4c-0.2-0.6-0.4-1.3-0.4-2.1c0-0.8,0.1-1.5,0.4-2.1c0.2-0.7,0.6-1.1,1-1.5
			c0.4-0.3,1-0.5,1.5-0.5c0.4,0,0.8,0.1,1.1,0.3c0.3,0.2,0.6,0.4,0.8,0.8c0.2,0.3,0.3,0.7,0.4,1.3l-0.7,0.3
			c-0.1-0.4-0.2-0.7-0.3-0.9c-0.1-0.2-0.3-0.4-0.6-0.5c-0.2-0.1-0.5-0.2-0.8-0.2c-0.4,0-0.7,0.1-0.9,0.2c-0.3,0.1-0.5,0.3-0.6,0.6
			c-0.2,0.2-0.3,0.5-0.4,0.8c-0.1,0.5-0.2,1-0.2,1.6c0,0.7,0.1,1.3,0.3,1.7c0.2,0.5,0.4,0.8,0.8,1s0.7,0.3,1.1,0.3
			c0.3,0,0.7-0.1,1-0.3c0.3-0.2,0.6-0.4,0.7-0.5v-1.4H174.5z M180.2,42.9v-7.8h4.2v0.9H181v2.4h3.2v0.9H181V42h3.6v0.9H180.2z
			 M187.6,42.9v-7.8h0.8l3.1,6.1v-6.1h0.7v7.8h-0.8l-3.1-6.1v6.1H187.6z M199.8,40.2l0.8,0.3c-0.2,0.8-0.5,1.5-0.9,1.9
			c-0.4,0.4-0.9,0.7-1.5,0.7c-0.6,0-1.1-0.2-1.5-0.5c-0.4-0.3-0.7-0.8-0.9-1.5c-0.2-0.6-0.3-1.3-0.3-2.1c0-0.8,0.1-1.5,0.3-2.1
			c0.2-0.6,0.6-1.1,1-1.4s0.9-0.5,1.4-0.5c0.6,0,1.1,0.2,1.5,0.6c0.4,0.4,0.7,1,0.8,1.7l-0.8,0.2c-0.1-0.6-0.3-1-0.6-1.2
			s-0.6-0.4-1-0.4c-0.4,0-0.8,0.1-1.1,0.4c-0.3,0.3-0.5,0.7-0.6,1.2c-0.1,0.5-0.2,1-0.2,1.5c0,0.7,0.1,1.2,0.2,1.7
			c0.1,0.5,0.4,0.9,0.7,1.1c0.3,0.2,0.6,0.4,1,0.4c0.4,0,0.8-0.2,1.1-0.5C199.4,41.3,199.6,40.8,199.8,40.2z M203.5,42.9v-7.8h4.2
			v0.9h-3.4v2.4h3.2v0.9h-3.2V42h3.6v0.9H203.5z"/>
		<path class="st1" d="M57.6,21.6c0,4.9,4,7,8.4,7c5.4,0,8.2-2.7,8.2-6.3c0-4.5-4.4-5.4-5.9-5.7c-4.9-1.2-5.9-1.5-5.9-3
			c0-1.7,1.6-2.2,3-2.2c1.4,0,3.4,0.1,3.9,2.4l4.2,0.6c0-4.6-3.8-6.4-7.9-6.4c-3.6,0-7.4,1.9-7.4,6c0,7.4,11.7,4.7,11.7,8.9
			c0,2-2.3,2.5-3.8,2.5c-1.6,0-3.9-0.4-4.4-3L57.6,21.6z M78.8,28.1h-3.9l8.9-19.7h4.4L97,28.1h-4.2l-1.9-4.4h-10L78.8,28.1z
			 M86.1,12.2L86.1,12.2l-3.3,7.6h6.5L86.1,12.2z M117.7,17.6c-3.4,0-7.3,0-10.1,0v3.6c0,0,0.2,0,0.8,0c1.1,0,3.1,0,4,0h0.4
			c-0.8,1.9-3,3-5.2,3c-3.3,0-6-2.6-6-6c0-3.3,2.7-6,6-6c2.2,0,4.1,1.1,5.1,2.9c1.9-1,2.1-1,3.8-1.9c-1.8-3.1-5.1-5.2-8.9-5.2
			c-5.6,0-10.2,4.6-10.2,10.2c0,5.6,4.6,10.2,10.2,10.2c3.8,0,7.3-2.1,8.9-5.3C117.6,21.9,117.7,18.2,117.7,17.6z M122,28.1h-3.9
			L127,8.5h4.4l8.8,19.7H136l-1.9-4.4h-10L122,28.1z M129.3,12.2L129.3,12.2l-3.3,7.6h6.5L129.3,12.2z M160,22.9
			c-1.8-0.8-1.8-0.9-3.7-1.9c-1,1.9-2.9,3.1-5.1,3.1c-3.2,0-5.9-2.6-5.9-5.9c0-3.2,2.6-5.9,5.9-5.9c2.1,0,4,1.2,5,2.8
			c1.9-0.9,2-1,3.7-1.9c-1.7-3-4.9-5.1-8.7-5.1c-5.5,0-10,4.5-10,10c0,5.5,4.5,10,10,10C155.1,28.2,158.4,26,160,22.9z M162.7,28.1
			h4.3V8.4h-4.3V28.1z M175.9,28.1h4.3v-16h6.2V8.5h-16.8v3.6h6.3V28.1z M207.9,18.2c0,5.6-4.6,10.2-10.2,10.2
			c-5.6,0-10.2-4.6-10.2-10.2c0-5.7,4.6-10.2,10.2-10.2C203.3,8,207.9,12.5,207.9,18.2z M197.7,12.2c-3.3,0-6,2.8-6,6s2.7,6,6,6
			c3.3,0,6-2.7,6-6S201,12.2,197.7,12.2z"/>
	</g>
	<g transform="translate(4 3)">
		
			<linearGradient id="SVGID_1_" gradientUnits="userSpaceOnUse" x1="-100.8368" y1="261.1068" x2="-101.9486" y2="260.9651" gradientTransform="matrix(20 0 0 -16 2088.4602 4196.2002)">
			<stop  offset="0" style="stop-color:#008ECF"/>
			<stop  offset="1" style="stop-color:#005CA9"/>
		</linearGradient>
		<path class="st2" d="M57.4,32h-0.1c-6.8,0-12.4-5.4-12.4-12.1c0-6.6,5.6-12,12.4-12H75v6.2c0,3.4-2.9,6.2-6.4,6.2H57.4V32z"/>
		
			<linearGradient id="SVGID_2_" gradientUnits="userSpaceOnUse" x1="-101.7455" y1="260.5635" x2="-100.8117" y2="260.9689" gradientTransform="matrix(20 0 0 -16 2086.4597 4204.2002)">
			<stop  offset="0" style="stop-color:#008ECF"/>
			<stop  offset="1" style="stop-color:#005CA9"/>
		</linearGradient>
		<path class="st3" d="M59.6,20L59.6,20C66.5,20,72,25.4,72,32.1c0,6.6-5.6,12-12.4,12H42v-6.2c0-3.4,2.9-6.2,6.4-6.2h11.2V20z"/>
		<g transform="translate(7 8)">
			<circle class="st4" cx="51.5" cy="18" r="6"/>
			<path class="st5" d="M47,18.8c0.3,1.9,1.8,3.4,3.7,3.7v-3.1c-0.2-0.1-0.4-0.3-0.6-0.6H47z"/>
			<path class="st6" d="M52.2,22.4c2.1-0.4,3.8-2.2,3.8-4.4h-3c0,0.6-0.3,1-0.8,1.3V22.4z"/>
			<path class="st7" d="M55.9,17.2c-0.3-1.9-1.8-3.4-3.7-3.7v3.1c0.2,0.1,0.4,0.3,0.6,0.6H55.9z"/>
			<path class="st8" d="M50.7,13.6c-1.9,0.3-3.4,1.8-3.7,3.7h3.1c0.1-0.2,0.3-0.4,0.6-0.6V13.6z"/>
		</g>
	</g>
	<rect x="39.9" y="6.4" class="st9" width="45.1" height="45.1"/>
</g>
</svg>
